<svg width="348" height="350" viewBox="0 0 348 350" fill="none" xmlns="http://www.w3.org/2000/svg">
<ellipse cx="175" cy="176" rx="126" ry="138" fill="white"/>
<rect x="71" y="53" width="70" height="235" fill="#66CBFF"/>
<rect x="207" y="53" width="70" height="232" fill="#66CBFF"/>
<ellipse cx="175" cy="176" rx="126" ry="138" fill="white" fill-opacity="0.7"/>
<mask id="path-5-outside-1_28_13" maskUnits="userSpaceOnUse" x="0" y="0" width="348" height="347" fill="black">
<rect fill="white" width="348" height="347"/>
<path fill-rule="evenodd" clip-rule="evenodd" d="M160.157 2.38292C156.298 2.77392 152.664 3.38792 152.084 3.74592C151.503 4.10492 148.644 9.56492 145.731 15.8779L140.434 27.3569L135.304 28.5509C132.483 29.2069 126.304 31.2209 121.574 33.0249C116.843 34.8299 111.16 37.2309 108.945 38.3609L104.918 40.4159L93.058 35.0499C84.121 31.0069 80.761 29.9179 79.426 30.6319C78.452 31.1539 74.708 33.6399 71.106 36.1579C67.505 38.6749 60.76 44.3309 56.117 48.7259C49.636 54.8599 47.68 57.3299 47.695 59.3579C47.706 60.8099 48.822 66.2739 50.175 71.4989C51.528 76.7239 52.644 81.8109 52.655 82.8039C52.666 83.7969 50.794 87.3789 48.494 90.7649C46.195 94.1509 42.026 101.39 39.23 106.853L34.147 116.784L22.196 120.179C15.624 122.047 9.89402 124.12 9.46402 124.787C9.03402 125.454 8.22602 127.574 7.66802 129.499C7.11002 131.424 5.79102 137.274 4.73502 142.499C3.68002 147.724 2.54202 155.374 2.20702 159.499C1.87202 163.624 1.95202 167.488 2.38602 168.085C2.82002 168.683 7.52702 172.373 12.847 176.286L22.519 183.4L23.157 189.199C23.507 192.389 24.712 199.724 25.834 205.499C26.956 211.274 28.108 217.258 28.395 218.797C28.814 221.045 27.615 223.549 22.296 231.539C18.654 237.008 15.675 242.396 15.675 243.513C15.675 244.629 17.016 248.5 18.654 252.113C20.293 255.727 23.901 262.382 26.673 266.902C29.445 271.421 32.959 276.613 34.483 278.439L37.254 281.758L49.715 280.809L62.175 279.86L66.675 283.949C69.15 286.197 71.562 288.317 75 291C81.575 296.584 77.5 293 84 298.5C88 301.5 84 298.5 88 301.5C91 303.75 91.7 304.205 92.119 306.746C92.413 308.535 93.096 314.248 93.636 319.442C94.341 326.23 95.123 329.391 96.414 330.683C97.403 331.671 102.631 334.285 108.032 336.491C113.434 338.697 121.696 341.616 126.393 342.978C131.09 344.34 135.495 345.127 136.182 344.726C136.869 344.326 141.309 340.449 146.049 336.109L154.666 328.22H173.6H192.534L201.192 336.109C205.954 340.449 210.442 344.335 211.166 344.745C211.89 345.155 216.429 344.346 221.253 342.948C226.077 341.55 234.415 338.584 239.781 336.357C245.147 334.13 250.275 331.494 251.176 330.498C252.322 329.231 253.191 324.993 254.067 316.397C255.264 304.654 255.447 304.015 258.178 302.053C259.75 300.923 264.668 297.12 269.106 293.602C273.544 290.084 278.975 285.54 281.175 283.505L285.175 279.804L297.031 280.718C303.552 281.221 309.483 281.403 310.211 281.123C310.94 280.844 313.909 277.102 316.81 272.807C319.71 268.513 324.242 260.764 326.879 255.589C329.517 250.413 331.675 245.122 331.675 243.83C331.675 242.539 328.696 237.008 325.054 231.539C319.804 223.653 318.533 221.016 318.914 218.797C319.178 217.258 320.317 211.499 321.446 205.999C322.575 200.499 323.792 193.074 324.15 189.499L324.803 182.999L331.297 178.545C334.869 176.096 339.611 172.534 341.835 170.63L345.879 167.169L345.188 159.584C344.808 155.412 343.841 148.489 343.038 144.199C342.236 139.909 340.702 133.558 339.63 130.087L337.68 123.776L325.428 120.301L313.175 116.827L307.931 106.616C305.046 101 300.821 93.6589 298.541 90.3009C294.461 84.2929 294.411 84.1169 295.416 79.0979C295.977 76.2939 297.266 70.2569 298.281 65.6839L300.126 57.3699L286.109 43.6799C277.777 35.5429 270.42 29.2369 267.967 28.1309L263.842 26.2709L259.508 29.6299C257.125 31.4779 253.432 34.5029 251.302 36.3519C247.966 39.2489 246.927 39.6329 243.802 39.1199C241.807 38.7919 235 36.5589 228.675 34.1579C222.35 31.7559 214.864 29.2429 212.039 28.5729L206.904 27.3539L201.344 15.5109C197.903 8.18292 195.096 3.46592 193.98 3.13692C192.987 2.84492 186.55 2.39492 179.675 2.13892C172.8 1.88192 164.017 1.99192 160.157 2.38292ZM186.701 62.5519C191.362 63.1309 198.775 64.5049 203.175 65.6049C207.609 66.7129 216.969 70.4549 224.175 73.9989C232.629 78.1569 240.075 82.7219 245.469 87.0519C250.031 90.7139 256.51 96.9019 259.867 100.803C263.224 104.703 268.027 111.068 270.539 114.947C273.051 118.825 276.833 125.999 278.943 130.887C281.054 135.775 283.968 144.55 285.42 150.387C287.717 159.617 288.056 163.017 288.026 176.499C288.001 187.226 287.478 194.258 286.328 199.337C285.414 203.372 283.514 210.122 282.105 214.337C280.697 218.551 277.581 225.703 275.18 230.231C272.779 234.759 268.286 241.822 265.197 245.927C262.107 250.032 256.292 256.461 252.273 260.214C248.255 263.966 241.748 269.196 237.814 271.836C233.88 274.476 226.949 278.375 222.412 280.501C217.876 282.627 210.185 285.519 205.323 286.928C200.46 288.337 191.347 290.026 185.072 290.68C176.392 291.584 171.093 291.595 162.919 290.723C157.01 290.093 148.669 288.649 144.385 287.514C140.1 286.379 132.675 283.758 127.885 281.691C123.094 279.623 116.001 275.875 112.123 273.363C108.244 270.851 101.879 266.048 97.979 262.691C94.078 259.334 87.968 252.94 84.401 248.482C80.834 244.023 75.44 235.566 72.414 229.687C69.389 223.809 65.974 216.074 64.826 212.499C63.678 208.924 62.246 203.749 61.645 200.999C61.043 198.249 60.166 191.581 59.696 186.182C59.194 180.406 59.231 172.172 59.787 166.182C60.306 160.581 61.857 151.724 63.232 146.499C64.606 141.274 67.936 132.469 70.631 126.933C73.326 121.396 78.228 113.229 81.525 108.783C84.821 104.337 89.957 98.2609 92.937 95.2799C95.918 92.2999 101.016 87.8369 104.266 85.3619C107.516 82.8879 112.875 79.2549 116.175 77.2879C119.475 75.3209 125.484 72.3139 129.528 70.6059C133.573 68.8979 139.648 66.7689 143.028 65.8739C146.409 64.9799 152.775 63.6739 157.175 62.9729C161.575 62.2709 168.112 61.6519 171.701 61.5979C175.291 61.5439 182.041 61.9729 186.701 62.5519Z"/>
</mask>
<path fill-rule="evenodd" clip-rule="evenodd" d="M160.157 2.38292C156.298 2.77392 152.664 3.38792 152.084 3.74592C151.503 4.10492 148.644 9.56492 145.731 15.8779L140.434 27.3569L135.304 28.5509C132.483 29.2069 126.304 31.2209 121.574 33.0249C116.843 34.8299 111.16 37.2309 108.945 38.3609L104.918 40.4159L93.058 35.0499C84.121 31.0069 80.761 29.9179 79.426 30.6319C78.452 31.1539 74.708 33.6399 71.106 36.1579C67.505 38.6749 60.76 44.3309 56.117 48.7259C49.636 54.8599 47.68 57.3299 47.695 59.3579C47.706 60.8099 48.822 66.2739 50.175 71.4989C51.528 76.7239 52.644 81.8109 52.655 82.8039C52.666 83.7969 50.794 87.3789 48.494 90.7649C46.195 94.1509 42.026 101.39 39.23 106.853L34.147 116.784L22.196 120.179C15.624 122.047 9.89402 124.12 9.46402 124.787C9.03402 125.454 8.22602 127.574 7.66802 129.499C7.11002 131.424 5.79102 137.274 4.73502 142.499C3.68002 147.724 2.54202 155.374 2.20702 159.499C1.87202 163.624 1.95202 167.488 2.38602 168.085C2.82002 168.683 7.52702 172.373 12.847 176.286L22.519 183.4L23.157 189.199C23.507 192.389 24.712 199.724 25.834 205.499C26.956 211.274 28.108 217.258 28.395 218.797C28.814 221.045 27.615 223.549 22.296 231.539C18.654 237.008 15.675 242.396 15.675 243.513C15.675 244.629 17.016 248.5 18.654 252.113C20.293 255.727 23.901 262.382 26.673 266.902C29.445 271.421 32.959 276.613 34.483 278.439L37.254 281.758L49.715 280.809L62.175 279.86L66.675 283.949C69.15 286.197 71.562 288.317 75 291C81.575 296.584 77.5 293 84 298.5C88 301.5 84 298.5 88 301.5C91 303.75 91.7 304.205 92.119 306.746C92.413 308.535 93.096 314.248 93.636 319.442C94.341 326.23 95.123 329.391 96.414 330.683C97.403 331.671 102.631 334.285 108.032 336.491C113.434 338.697 121.696 341.616 126.393 342.978C131.09 344.34 135.495 345.127 136.182 344.726C136.869 344.326 141.309 340.449 146.049 336.109L154.666 328.22H173.6H192.534L201.192 336.109C205.954 340.449 210.442 344.335 211.166 344.745C211.89 345.155 216.429 344.346 221.253 342.948C226.077 341.55 234.415 338.584 239.781 336.357C245.147 334.13 250.275 331.494 251.176 330.498C252.322 329.231 253.191 324.993 254.067 316.397C255.264 304.654 255.447 304.015 258.178 302.053C259.75 300.923 264.668 297.12 269.106 293.602C273.544 290.084 278.975 285.54 281.175 283.505L285.175 279.804L297.031 280.718C303.552 281.221 309.483 281.403 310.211 281.123C310.94 280.844 313.909 277.102 316.81 272.807C319.71 268.513 324.242 260.764 326.879 255.589C329.517 250.413 331.675 245.122 331.675 243.83C331.675 242.539 328.696 237.008 325.054 231.539C319.804 223.653 318.533 221.016 318.914 218.797C319.178 217.258 320.317 211.499 321.446 205.999C322.575 200.499 323.792 193.074 324.15 189.499L324.803 182.999L331.297 178.545C334.869 176.096 339.611 172.534 341.835 170.63L345.879 167.169L345.188 159.584C344.808 155.412 343.841 148.489 343.038 144.199C342.236 139.909 340.702 133.558 339.63 130.087L337.68 123.776L325.428 120.301L313.175 116.827L307.931 106.616C305.046 101 300.821 93.6589 298.541 90.3009C294.461 84.2929 294.411 84.1169 295.416 79.0979C295.977 76.2939 297.266 70.2569 298.281 65.6839L300.126 57.3699L286.109 43.6799C277.777 35.5429 270.42 29.2369 267.967 28.1309L263.842 26.2709L259.508 29.6299C257.125 31.4779 253.432 34.5029 251.302 36.3519C247.966 39.2489 246.927 39.6329 243.802 39.1199C241.807 38.7919 235 36.5589 228.675 34.1579C222.35 31.7559 214.864 29.2429 212.039 28.5729L206.904 27.3539L201.344 15.5109C197.903 8.18292 195.096 3.46592 193.98 3.13692C192.987 2.84492 186.55 2.39492 179.675 2.13892C172.8 1.88192 164.017 1.99192 160.157 2.38292ZM186.701 62.5519C191.362 63.1309 198.775 64.5049 203.175 65.6049C207.609 66.7129 216.969 70.4549 224.175 73.9989C232.629 78.1569 240.075 82.7219 245.469 87.0519C250.031 90.7139 256.51 96.9019 259.867 100.803C263.224 104.703 268.027 111.068 270.539 114.947C273.051 118.825 276.833 125.999 278.943 130.887C281.054 135.775 283.968 144.55 285.42 150.387C287.717 159.617 288.056 163.017 288.026 176.499C288.001 187.226 287.478 194.258 286.328 199.337C285.414 203.372 283.514 210.122 282.105 214.337C280.697 218.551 277.581 225.703 275.18 230.231C272.779 234.759 268.286 241.822 265.197 245.927C262.107 250.032 256.292 256.461 252.273 260.214C248.255 263.966 241.748 269.196 237.814 271.836C233.88 274.476 226.949 278.375 222.412 280.501C217.876 282.627 210.185 285.519 205.323 286.928C200.46 288.337 191.347 290.026 185.072 290.68C176.392 291.584 171.093 291.595 162.919 290.723C157.01 290.093 148.669 288.649 144.385 287.514C140.1 286.379 132.675 283.758 127.885 281.691C123.094 279.623 116.001 275.875 112.123 273.363C108.244 270.851 101.879 266.048 97.979 262.691C94.078 259.334 87.968 252.94 84.401 248.482C80.834 244.023 75.44 235.566 72.414 229.687C69.389 223.809 65.974 216.074 64.826 212.499C63.678 208.924 62.246 203.749 61.645 200.999C61.043 198.249 60.166 191.581 59.696 186.182C59.194 180.406 59.231 172.172 59.787 166.182C60.306 160.581 61.857 151.724 63.232 146.499C64.606 141.274 67.936 132.469 70.631 126.933C73.326 121.396 78.228 113.229 81.525 108.783C84.821 104.337 89.957 98.2609 92.937 95.2799C95.918 92.2999 101.016 87.8369 104.266 85.3619C107.516 82.8879 112.875 79.2549 116.175 77.2879C119.475 75.3209 125.484 72.3139 129.528 70.6059C133.573 68.8979 139.648 66.7689 143.028 65.8739C146.409 64.9799 152.775 63.6739 157.175 62.9729C161.575 62.2709 168.112 61.6519 171.701 61.5979C175.291 61.5439 182.041 61.9729 186.701 62.5519Z" fill="url(#paint0_linear_28_13)"/>
<path fill-rule="evenodd" clip-rule="evenodd" d="M160.157 2.38292C156.298 2.77392 152.664 3.38792 152.084 3.74592C151.503 4.10492 148.644 9.56492 145.731 15.8779L140.434 27.3569L135.304 28.5509C132.483 29.2069 126.304 31.2209 121.574 33.0249C116.843 34.8299 111.16 37.2309 108.945 38.3609L104.918 40.4159L93.058 35.0499C84.121 31.0069 80.761 29.9179 79.426 30.6319C78.452 31.1539 74.708 33.6399 71.106 36.1579C67.505 38.6749 60.76 44.3309 56.117 48.7259C49.636 54.8599 47.68 57.3299 47.695 59.3579C47.706 60.8099 48.822 66.2739 50.175 71.4989C51.528 76.7239 52.644 81.8109 52.655 82.8039C52.666 83.7969 50.794 87.3789 48.494 90.7649C46.195 94.1509 42.026 101.39 39.23 106.853L34.147 116.784L22.196 120.179C15.624 122.047 9.89402 124.12 9.46402 124.787C9.03402 125.454 8.22602 127.574 7.66802 129.499C7.11002 131.424 5.79102 137.274 4.73502 142.499C3.68002 147.724 2.54202 155.374 2.20702 159.499C1.87202 163.624 1.95202 167.488 2.38602 168.085C2.82002 168.683 7.52702 172.373 12.847 176.286L22.519 183.4L23.157 189.199C23.507 192.389 24.712 199.724 25.834 205.499C26.956 211.274 28.108 217.258 28.395 218.797C28.814 221.045 27.615 223.549 22.296 231.539C18.654 237.008 15.675 242.396 15.675 243.513C15.675 244.629 17.016 248.5 18.654 252.113C20.293 255.727 23.901 262.382 26.673 266.902C29.445 271.421 32.959 276.613 34.483 278.439L37.254 281.758L49.715 280.809L62.175 279.86L66.675 283.949C69.15 286.197 71.562 288.317 75 291C81.575 296.584 77.5 293 84 298.5C88 301.5 84 298.5 88 301.5C91 303.75 91.7 304.205 92.119 306.746C92.413 308.535 93.096 314.248 93.636 319.442C94.341 326.23 95.123 329.391 96.414 330.683C97.403 331.671 102.631 334.285 108.032 336.491C113.434 338.697 121.696 341.616 126.393 342.978C131.09 344.34 135.495 345.127 136.182 344.726C136.869 344.326 141.309 340.449 146.049 336.109L154.666 328.22H173.6H192.534L201.192 336.109C205.954 340.449 210.442 344.335 211.166 344.745C211.89 345.155 216.429 344.346 221.253 342.948C226.077 341.55 234.415 338.584 239.781 336.357C245.147 334.13 250.275 331.494 251.176 330.498C252.322 329.231 253.191 324.993 254.067 316.397C255.264 304.654 255.447 304.015 258.178 302.053C259.75 300.923 264.668 297.12 269.106 293.602C273.544 290.084 278.975 285.54 281.175 283.505L285.175 279.804L297.031 280.718C303.552 281.221 309.483 281.403 310.211 281.123C310.94 280.844 313.909 277.102 316.81 272.807C319.71 268.513 324.242 260.764 326.879 255.589C329.517 250.413 331.675 245.122 331.675 243.83C331.675 242.539 328.696 237.008 325.054 231.539C319.804 223.653 318.533 221.016 318.914 218.797C319.178 217.258 320.317 211.499 321.446 205.999C322.575 200.499 323.792 193.074 324.15 189.499L324.803 182.999L331.297 178.545C334.869 176.096 339.611 172.534 341.835 170.63L345.879 167.169L345.188 159.584C344.808 155.412 343.841 148.489 343.038 144.199C342.236 139.909 340.702 133.558 339.63 130.087L337.68 123.776L325.428 120.301L313.175 116.827L307.931 106.616C305.046 101 300.821 93.6589 298.541 90.3009C294.461 84.2929 294.411 84.1169 295.416 79.0979C295.977 76.2939 297.266 70.2569 298.281 65.6839L300.126 57.3699L286.109 43.6799C277.777 35.5429 270.42 29.2369 267.967 28.1309L263.842 26.2709L259.508 29.6299C257.125 31.4779 253.432 34.5029 251.302 36.3519C247.966 39.2489 246.927 39.6329 243.802 39.1199C241.807 38.7919 235 36.5589 228.675 34.1579C222.35 31.7559 214.864 29.2429 212.039 28.5729L206.904 27.3539L201.344 15.5109C197.903 8.18292 195.096 3.46592 193.98 3.13692C192.987 2.84492 186.55 2.39492 179.675 2.13892C172.8 1.88192 164.017 1.99192 160.157 2.38292ZM186.701 62.5519C191.362 63.1309 198.775 64.5049 203.175 65.6049C207.609 66.7129 216.969 70.4549 224.175 73.9989C232.629 78.1569 240.075 82.7219 245.469 87.0519C250.031 90.7139 256.51 96.9019 259.867 100.803C263.224 104.703 268.027 111.068 270.539 114.947C273.051 118.825 276.833 125.999 278.943 130.887C281.054 135.775 283.968 144.55 285.42 150.387C287.717 159.617 288.056 163.017 288.026 176.499C288.001 187.226 287.478 194.258 286.328 199.337C285.414 203.372 283.514 210.122 282.105 214.337C280.697 218.551 277.581 225.703 275.18 230.231C272.779 234.759 268.286 241.822 265.197 245.927C262.107 250.032 256.292 256.461 252.273 260.214C248.255 263.966 241.748 269.196 237.814 271.836C233.88 274.476 226.949 278.375 222.412 280.501C217.876 282.627 210.185 285.519 205.323 286.928C200.46 288.337 191.347 290.026 185.072 290.68C176.392 291.584 171.093 291.595 162.919 290.723C157.01 290.093 148.669 288.649 144.385 287.514C140.1 286.379 132.675 283.758 127.885 281.691C123.094 279.623 116.001 275.875 112.123 273.363C108.244 270.851 101.879 266.048 97.979 262.691C94.078 259.334 87.968 252.94 84.401 248.482C80.834 244.023 75.44 235.566 72.414 229.687C69.389 223.809 65.974 216.074 64.826 212.499C63.678 208.924 62.246 203.749 61.645 200.999C61.043 198.249 60.166 191.581 59.696 186.182C59.194 180.406 59.231 172.172 59.787 166.182C60.306 160.581 61.857 151.724 63.232 146.499C64.606 141.274 67.936 132.469 70.631 126.933C73.326 121.396 78.228 113.229 81.525 108.783C84.821 104.337 89.957 98.2609 92.937 95.2799C95.918 92.2999 101.016 87.8369 104.266 85.3619C107.516 82.8879 112.875 79.2549 116.175 77.2879C119.475 75.3209 125.484 72.3139 129.528 70.6059C133.573 68.8979 139.648 66.7689 143.028 65.8739C146.409 64.9799 152.775 63.6739 157.175 62.9729C161.575 62.2709 168.112 61.6519 171.701 61.5979C175.291 61.5439 182.041 61.9729 186.701 62.5519Z" stroke="black" stroke-width="4" mask="url(#path-5-outside-1_28_13)"/>
<g filter="url(#filter0_d_28_13)">
<path fill-rule="evenodd" clip-rule="evenodd" d="M149.712 21.209L144.212 32.419L129.712 37.463C121.737 40.236 113.317 43.499 111.002 44.713C108.686 45.926 105.89 46.919 104.789 46.919C103.687 46.919 100.5 46.018 97.7061 44.917C94.9121 43.815 90.3221 41.363 87.5071 39.467L82.3871 36.019L76.5861 40.088C73.3951 42.327 67.0561 47.152 62.4981 50.813C54.5011 57.235 54.2171 57.606 54.3661 61.443C54.4511 63.63 55.4911 68.794 56.6771 72.919C58.1131 77.914 58.6501 81.856 58.2851 84.721C57.9831 87.088 56.4541 90.913 54.8881 93.221C53.3221 95.53 50.0241 101.019 47.5601 105.419C45.0951 109.819 42.4341 114.544 41.6451 115.919C40.8571 117.294 39.3601 119.417 38.3181 120.636C37.2771 121.856 34.3521 123.493 31.8181 124.275C29.2851 125.057 24.2371 126.455 20.6021 127.381L13.9921 129.065L11.8461 137.814C10.6661 142.625 9.23108 150.309 8.65608 154.889C8.08208 159.469 7.83808 163.804 8.11308 164.521C8.38808 165.239 11.5241 167.664 15.0801 169.91C18.6371 172.156 23.1481 175.766 25.1041 177.931C27.0611 180.097 28.8761 182.892 29.1381 184.144C29.4001 185.395 30.5151 192.044 31.6151 198.919C32.7141 205.794 34.1711 213.969 34.8521 217.085C36.0471 222.557 35.9991 222.881 33.4301 226.585C31.9681 228.694 28.7331 233.007 26.2421 236.171C23.7501 239.335 21.7121 242.77 21.7121 243.804C21.7121 244.839 23.6861 249 26.0981 253.052C28.5111 257.104 32.2531 263.569 34.4141 267.419L38.3431 274.419L51.5661 274.139C61.8411 273.922 65.2501 274.182 66.8561 275.307C67.9931 276.104 72.3631 280.09 76.5681 284.166C80.7721 288.241 87.1901 293.897 90.8291 296.734C96.3651 301.05 97.5481 302.507 98.0681 305.656C98.4101 307.726 98.7021 312.794 98.7161 316.919C98.7311 321.044 99.1191 325.012 99.5791 325.738C100.039 326.463 102.779 328.152 105.668 329.49C108.558 330.829 116.114 333.761 122.461 336.007L134.001 340.09L142.606 331.551L151.212 323.011L170.212 322.826C180.662 322.724 190.729 322.703 192.584 322.78C195.374 322.895 197.411 324.339 204.376 331.137L212.795 339.355L218.503 337.76C221.643 336.883 227.843 335.062 232.28 333.712C236.717 332.362 242.117 330.394 244.279 329.338C247.602 327.716 248.318 326.799 248.904 323.419C249.285 321.219 249.623 315.756 249.654 311.28C249.699 304.999 250.112 302.694 251.462 301.183C252.424 300.106 256.362 296.822 260.212 293.884C264.062 290.946 270.474 285.431 274.461 281.628L281.71 274.714L294.558 275.066C304.259 275.332 307.801 275.09 309.023 274.076C309.913 273.337 312.34 270.187 314.417 267.076C316.494 263.965 319.885 257.912 321.953 253.626C324.02 249.339 325.712 245.105 325.712 244.217C325.712 243.328 323.986 240.31 321.876 237.51C319.766 234.71 316.841 230.515 315.376 228.189C313.911 225.862 312.712 223.072 312.712 221.988C312.712 220.904 313.406 217.407 314.254 214.218C315.102 211.028 316.277 204.819 316.865 200.419C317.453 196.019 318.232 189.944 318.596 186.919C318.96 183.894 319.565 180.931 319.941 180.335C320.317 179.739 322.557 177.944 324.918 176.345C327.28 174.747 331.57 171.44 334.453 168.996C337.335 166.553 339.959 163.715 340.285 162.69C340.61 161.665 339.883 156.459 338.67 151.122C337.456 145.786 335.729 138.756 334.833 135.502L333.202 129.585L322.108 126.404C316.006 124.654 310.485 122.897 309.839 122.498C309.194 122.099 307.373 118.993 305.793 115.596C304.213 112.198 300.894 106.269 298.417 102.419C295.94 98.569 292.927 94.173 291.721 92.65C290.516 91.128 289.197 88.653 288.791 87.15C288.386 85.648 288.608 81.494 289.286 77.919C289.963 74.344 291.403 68.797 292.486 65.592L294.453 59.765L291.853 56.675C290.423 54.976 283.916 50.059 277.393 45.749C270.869 41.438 264.408 37.63 263.035 37.285C261.287 36.846 259.739 37.303 257.875 38.807C256.41 39.988 253.457 42.297 251.312 43.937C249.167 45.577 246.493 46.919 245.37 46.919C244.247 46.919 237.225 44.485 229.766 41.511C222.307 38.536 214.406 35.776 212.208 35.377C210.01 34.978 207.035 34.057 205.597 33.329C203.79 32.416 201.286 28.67 197.497 21.213L192.012 10.419L173.612 10.209L155.212 10L149.712 21.209ZM209.101 61.295C216.74 63.829 225.567 67.19 228.718 68.764C231.868 70.338 238.066 74.382 242.491 77.751C246.916 81.119 254.177 87.823 258.626 92.647C263.075 97.472 268.993 104.704 271.777 108.72C274.561 112.736 279.033 120.884 281.715 126.828C284.396 132.771 287.58 141.411 288.79 146.027C290.516 152.612 291.091 158.225 291.461 172.095C291.873 187.556 291.653 191.189 289.704 201.095C288.479 207.323 286.567 215.119 285.455 218.419C284.343 221.719 282.1 227.084 280.471 230.342C278.841 233.6 274.606 240.682 271.058 246.079C267.045 252.185 262.304 257.882 258.51 261.156C255.156 264.051 250.086 268.478 247.245 270.994C243.888 273.966 236.565 278.258 226.346 283.243C217.693 287.464 207.149 291.831 202.913 292.948C197.219 294.449 190.651 295.125 177.712 295.541C161.628 296.058 159.205 295.899 147.772 293.569C137.401 291.456 133.417 290.069 123.823 285.227C117.493 282.033 109.623 277.448 106.334 275.039C103.045 272.631 96.1061 266.556 90.9131 261.539C85.4521 256.264 79.2761 249.046 76.2651 244.419C73.4021 240.019 69.9031 234.394 68.4901 231.919C67.0771 229.444 64.5221 223.278 62.8131 218.217C61.1031 213.156 58.8101 205.281 57.7151 200.717C56.1891 194.351 55.7241 188.926 55.7191 177.419C55.7151 168.421 56.2941 159.38 57.1661 154.824C57.9651 150.647 59.4981 144.056 60.5731 140.177C61.6481 136.298 63.4561 131.165 64.5901 128.771C65.7241 126.378 68.5021 121.269 70.7631 117.419C73.0241 113.569 77.3401 107.134 80.3541 103.119C83.3691 99.104 89.5201 92.18 94.0231 87.732C98.5271 83.284 105.362 77.586 109.212 75.071C113.062 72.555 120.644 68.573 126.06 66.221C131.477 63.869 139.025 61.017 142.834 59.883C146.643 58.748 153.236 57.426 157.486 56.945C161.735 56.464 171.962 56.209 180.212 56.379C194.996 56.683 195.412 56.754 209.101 61.295Z" fill="#FFCC00"/>
</g>
<path d="M79.9929 195.727V184.102L109.141 138.182H119.163V154.273H113.232L94.8565 183.352V183.898H136.277V195.727H79.9929ZM113.504 208V192.182L113.777 187.034V138.182H127.618V208H113.504ZM173.487 209.534C167.624 209.511 162.578 208.068 158.351 205.205C154.146 202.341 150.908 198.193 148.635 192.761C146.385 187.33 145.271 180.795 145.294 173.159C145.294 165.545 146.419 159.057 148.669 153.693C150.942 148.33 154.18 144.25 158.385 141.455C162.612 138.636 167.646 137.227 173.487 137.227C179.328 137.227 184.351 138.636 188.555 141.455C192.783 144.273 196.033 148.364 198.305 153.727C200.578 159.068 201.703 165.545 201.68 173.159C201.68 180.818 200.544 187.364 198.271 192.795C196.021 198.227 192.794 202.375 188.589 205.239C184.385 208.102 179.351 209.534 173.487 209.534ZM173.487 197.295C177.487 197.295 180.68 195.284 183.067 191.261C185.453 187.239 186.635 181.205 186.612 173.159C186.612 167.864 186.067 163.455 184.976 159.932C183.908 156.409 182.385 153.761 180.408 151.989C178.453 150.216 176.146 149.33 173.487 149.33C169.51 149.33 166.328 151.318 163.942 155.295C161.555 159.273 160.351 165.227 160.328 173.159C160.328 178.523 160.862 183 161.93 186.591C163.021 190.159 164.555 192.841 166.533 194.636C168.51 196.409 170.828 197.295 173.487 197.295ZM211.149 195.727V184.102L240.297 138.182H250.32V154.273H244.388L226.013 183.352V183.898H267.433V195.727H211.149ZM244.661 208V192.182L244.933 187.034V138.182H258.774V208H244.661Z" fill="black"/>
<defs>
<filter id="filter0_d_28_13" x="3" y="9" width="342.363" height="340.09" filterUnits="userSpaceOnUse" color-interpolation-filters="sRGB">
<feFlood flood-opacity="0" result="BackgroundImageFix"/>
<feColorMatrix in="SourceAlpha" type="matrix" values="0 0 0 0 0 0 0 0 0 0 0 0 0 0 0 0 0 0 127 0" result="hardAlpha"/>
<feOffset dy="4"/>
<feGaussianBlur stdDeviation="2.5"/>
<feComposite in2="hardAlpha" operator="out"/>
<feColorMatrix type="matrix" values="0 0 0 0 0 0 0 0 0 0 0 0 0 0 0 0 0 0 0.5 0"/>
<feBlend mode="normal" in2="BackgroundImageFix" result="effect1_dropShadow_28_13"/>
<feBlend mode="normal" in="SourceGraphic" in2="effect1_dropShadow_28_13" result="shape"/>
</filter>
<linearGradient id="paint0_linear_28_13" x1="173.94" y1="2" x2="173.94" y2="344.852" gradientUnits="userSpaceOnUse">
<stop stop-color="#FFE600"/>
<stop offset="1" stop-color="#D2A800"/>
</linearGradient>
</defs>
</svg>
