<?xml version="1.0" encoding="utf-8"?>
<!-- Generator: Adobe Illustrator 24.0.1, SVG Export Plug-In . SVG Version: 6.00 Build 0)  -->
<svg version="1.1" id="Capa_1" xmlns="http://www.w3.org/2000/svg" xmlns:xlink="http://www.w3.org/1999/xlink" x="0px" y="0px"
	 viewBox="0 0 356 356" enable-background="new 0 0 356 356" xml:space="preserve">
<rect fill="none" width="356" height="356"/>
<g>
	<ellipse shape-rendering="auto" fill="#FFFFFF" cx="179" cy="176" rx="126" ry="138"/>
</g>
<g>
	<rect x="75" y="53" shape-rendering="auto" fill="#66CBFF" width="70" height="235"/>
</g>
<g>
	<rect x="211" y="53" shape-rendering="auto" fill="#66CBFF" width="70" height="232"/>
</g>
<g>
	<ellipse shape-rendering="auto" fill="#FFFFFF" fill-opacity="0.7" cx="179" cy="176" rx="126" ry="138"/>
</g>
<g>
	<path shape-rendering="auto" fill-rule="evenodd" clip-rule="evenodd" d="M179.4,73.4c-0.1,0.2-0.5,0.5-0.9,0.7
		c-0.4,0.2-1.3,0.7-2,1.1c-0.7,0.4-2.2,1.3-3.3,1.9c-1.1,0.6-2.6,1.5-3.5,2c-0.8,0.5-2.3,1.2-3.2,1.7c-0.9,0.4-2.4,1.3-3.3,1.9
		c-0.9,0.6-2.9,1.6-4.3,2.4c-1.5,0.7-3.3,1.7-4,2.2c-0.7,0.5-1.5,0.9-1.7,0.9c-0.2,0-0.4,0.1-0.4,0.3s-0.4,0.5-0.9,0.7
		c-0.5,0.2-2.2,1-3.7,1.9c-1.6,0.8-3.2,1.8-3.7,2.2c-0.5,0.3-2.1,1.2-3.7,2c-1.5,0.8-3.2,1.7-3.6,2c-0.5,0.3-1.8,1.1-3,1.7
		c-1.2,0.6-3,1.6-4,2.2c-1,0.5-2.3,1.3-3,1.6c-0.6,0.3-1.4,0.8-1.6,1c-0.3,0.2-0.7,0.4-1,0.4s-0.8,0.3-1.1,0.7
		c-0.6,0.7-0.6,1.4-0.6,9l0,8.2h-1.3c-0.7,0-1.9-0.2-2.5-0.5c-0.7-0.3-1.6-0.5-2.1-0.5c-0.5,0-1.3-0.2-1.7-0.5s-1.4-0.5-2-0.5
		c-0.6,0-1.5-0.2-2-0.5s-1.4-0.5-2-0.5s-1.5-0.2-2-0.5s-1.4-0.5-2-0.5c-0.6,0-1.5-0.2-2-0.5c-0.5-0.3-1.5-0.5-2.3-0.5
		c-0.8,0-1.7,0.1-1.8,0.3c-0.2,0.2-1.5,0.9-3,1.7c-1.5,0.8-3,1.6-3.4,1.8c-0.4,0.2-0.7,0.5-0.7,0.6c0,0.1-0.5,0.3-1,0.4
		c-0.5,0.1-1,0.3-1,0.5c0,0.1-0.4,0.4-0.9,0.6c-0.5,0.2-2.4,1.2-4.2,2.1c-1.8,1-4.7,2.5-6.3,3.3c-2.2,1.2-3.1,1.5-3.3,1.2
		c-0.3-0.3-0.3-0.4,0-0.5c0.2-0.1,0.4-0.3,0.4-0.5c0-0.2-0.3-0.1-0.7,0.2c-0.4,0.3-0.7,0.9-0.7,1.4c0,0.4,0.2,0.9,0.3,1
		c0.2,0.1,0.3,15.4,0.3,47.5c0,35.9,0.1,47.4,0.4,47.8c0.2,0.3,0.9,0.5,1.4,0.5c0.6,0,1.3,0.2,1.7,0.5c0.4,0.3,1,0.5,1.3,0.5
		c0.4,0,0.9,0.2,1.1,0.4c0.2,0.2,1,0.6,1.6,0.9c0.7,0.3,1.6,0.5,1.9,0.6c0.4,0.1,1.6,0.6,2.7,1.1c1.1,0.5,2.4,1,2.9,1.1
		c0.5,0.1,0.9,0.4,0.9,0.5c0,0.2,0.3,0.3,0.7,0.3c0.4,0,1,0.2,1.4,0.5c0.4,0.3,0.9,0.5,1.2,0.5s1.7,0.5,3.1,1.2
		c1.4,0.7,2.6,1.3,2.7,1.5c0.1,0.2,0.7,0.3,1.3,0.3c0.6,0,1.3,0.2,1.5,0.4c0.2,0.2,1,0.6,1.6,0.9c0.7,0.3,1.6,0.5,1.9,0.6
		c0.4,0.1,1.2,0.4,1.8,0.7c0.6,0.3,1.4,0.7,1.7,0.9c0.3,0.2,0.9,0.5,1.3,0.6c0.5,0.1,1.4,0.4,2.1,0.7c0.7,0.3,1.4,0.6,1.6,0.9
		c0.2,0.2,0.7,0.4,1.1,0.4s1,0.2,1.3,0.4c0.6,0.4,0.6,0.5-0.2,1.9c-0.4,0.8-1,1.7-1.2,1.9c-0.2,0.3-0.7,0.8-1,1.3
		c-0.4,0.6-0.4,0.9-0.2,1.2c0.2,0.2,0.6,0.3,0.8,0.2c0.3-0.1,1.4-1.6,2.6-3.2s2.3-3.3,2.4-3.6c0.2-0.3,0.7-1.1,1.2-1.7
		c0.5-0.6,0.9-1.3,0.9-1.5s0.3-0.7,0.7-1.1c0.4-0.3,0.9-1.1,1.2-1.6c0.3-0.5,0.9-1.4,1.3-1.8c0.4-0.5,0.8-1,0.8-1.3
		c0-0.2,0.2-0.6,0.5-0.9c0.3-0.3,1.9-2.6,3.7-5.3c1.8-2.6,3.6-5.2,4-5.7c0.4-0.5,0.8-1.1,0.8-1.4c0-0.2,0.4-0.8,1-1.4
		c0.5-0.5,1-1.2,1-1.5c0-0.3,0.2-0.7,0.5-0.9c0.3-0.1,1.1-1.2,1.9-2.4c0.8-1.2,1.6-2.4,1.8-2.7c0.2-0.3,0.9-1.4,1.7-2.5
		c0.7-1.1,1.7-2.4,2.2-3c0.5-0.6,0.9-1.3,0.9-1.5c0-0.2,0.5-0.9,1-1.5c0.6-0.6,1-1.3,1-1.5c0-0.2,0.5-0.8,1-1.4s1-1.2,1-1.4
		s0.2-0.6,0.5-0.9c0.3-0.3,1.6-2.2,3-4.3c2.5-3.7,2.6-3.8,2-4.7c-0.3-0.5-0.5-1.4-0.5-2c0-0.6-0.2-1.4-0.5-1.8
		c-0.3-0.4-0.5-1.3-0.5-2s-0.2-1.6-0.5-2c-0.3-0.4-0.5-1.1-0.5-1.8c0-0.6-0.2-1.4-0.4-1.8c-0.3-0.5-0.3-0.7-0.1-0.9
		c0.2-0.1,1.3-1.4,2.4-2.9c1.1-1.5,2.3-2.9,2.7-3.2c0.4-0.3,1.2-1.4,1.9-2.4c0.6-1,1.4-2,1.8-2.2c0.3-0.2,1.3-1.4,2.2-2.6
		c0.9-1.2,2.5-3.1,3.6-4.3c1.1-1.2,1.9-2.3,1.9-2.5s0.7-1,1.5-1.9c0.9-0.8,1.9-2,2.3-2.7c0.4-0.7,1.5-2,2.4-2.9s1.9-2.2,2.3-2.9
		c0.4-0.6,1.2-1.7,1.9-2.4c0.7-0.7,1.7-1.8,2.4-2.6c0.6-0.7,1.2-1.5,1.2-1.7c0-0.2,0.4-0.7,0.9-1.2c0.5-0.4,1.4-1.4,2-2.2
		c0.6-0.8,1.1-1.5,1.1-1.6c0-0.1,0.5-0.7,1.1-1.3c0.6-0.6,1.5-1.5,1.9-2c0.5-0.5,1.1-1.4,1.5-1.9c0.3-0.5,1-1.4,1.5-1.8
		c0.5-0.5,1.3-1.5,1.9-2.2c0.6-0.8,1.1-1.5,1.1-1.6c0-0.1,0.6-0.9,1.4-1.6c0.8-0.8,1.9-2,2.5-2.7c0.6-0.8,1.1-1.5,1.1-1.7
		c0-0.2,0.2-0.5,0.4-0.6c0.2-0.1,0.7-0.6,1-1c0.5-0.6,0.5-0.8,0.1-2.1c-0.3-0.8-0.5-2.6-0.5-4.1c0-1.7-0.2-3-0.5-3.5
		c-0.3-0.5-0.5-1.8-0.5-3.5c0-1.8-0.2-2.9-0.5-3.3c-0.3-0.4-0.5-1.1-0.5-1.6c0-0.5,0.1-0.9,0.3-0.9c0.2,0,0.4-0.4,0.5-0.8
		c0.1-0.4,0.6-1.2,1.2-1.7c0.5-0.5,1-1.1,1-1.4c0-0.2,0.4-0.9,0.9-1.5c0.5-0.6,1.8-2.4,2.8-4c1.1-1.6,2.1-3.1,2.4-3.3
		c0.3-0.2,0.5-0.6,0.5-0.8c0-0.2-0.2-0.6-0.4-0.8c-0.3-0.3-0.6-0.1-1.3,0.6c-0.5,0.5-1.3,1.6-1.7,2.3c-0.5,0.7-1,1.4-1.3,1.4
		s-2.8-1.3-5.6-3c-2.9-1.6-5.3-3-5.4-3c-0.1,0-0.8-0.4-1.6-1c-0.8-0.5-2.4-1.5-3.6-2.1c-1.2-0.6-2.8-1.5-3.6-2
		c-0.8-0.5-1.5-0.9-1.6-0.9c-0.1,0-0.9-0.4-1.7-1c-0.8-0.5-1.8-1-2.1-1C179.9,73,179.5,73.2,179.4,73.4z M179.5,87.9l0.1,11.7
		l-3.9,1.7c-2.1,0.9-4.1,1.7-4.3,1.7s-0.5,0.1-0.7,0.3c-0.2,0.1-1.2,0.6-2.3,1c-1.1,0.4-2.4,1-3,1.2c-0.5,0.2-1.6,0.7-2.2,1
		s-1.8,0.8-2.4,1.1c-0.6,0.3-1.6,0.5-2.1,0.4l-1-0.1v-9.7c0-8.6,0.1-9.8,0.6-10.3c0.3-0.3,1.1-0.9,1.8-1.3c0.7-0.4,1.8-1,2.4-1.4
		c0.6-0.4,2.3-1.3,3.7-2c1.4-0.7,3.2-1.8,4.2-2.3c0.9-0.5,2.3-1.3,3-1.7c0.7-0.4,2.1-1.2,3.1-1.7c1-0.5,1.8-1.1,1.9-1.2
		c0.1-0.2,0.4-0.2,0.6-0.2C179.3,76.2,179.4,79.4,179.5,87.9z M184,77.1c1.2,0.6,2.8,1.5,3.6,2.1c0.8,0.5,2.5,1.5,3.7,2.1
		c1.2,0.7,2.5,1.3,2.8,1.5c0.3,0.2,1.2,0.7,2,1.2c0.8,0.5,1.5,0.9,1.7,0.9s0.6,0.4,1,0.8c0.7,0.8,0.8,0.9,0.6,6.1
		c-0.1,2.9-0.2,5.6-0.2,5.9c0,0.4,0.1,2.6,0.2,4.9l0.2,4.2h-1.2c-0.6,0-2-0.4-3-0.9c-1-0.5-2.3-1.2-3-1.5c-0.7-0.3-1.4-0.6-1.6-0.6
		c-0.2,0-1.3-0.5-2.6-1c-1.2-0.6-2.7-1.2-3.2-1.5c-0.5-0.3-1.1-0.5-1.4-0.5c-0.2,0-0.8-0.3-1.3-0.7l-0.9-0.7V87.8
		c0-6.5,0.1-11.8,0.1-11.8C181.8,76,182.8,76.5,184,77.1z M203.5,88.3c0.7,0.6,0.7,0.8,0.3,1.6c-0.3,0.5-0.9,1.3-1.3,1.7l-0.9,0.8
		v-2.7c0-2.5,0-2.7,0.6-2.4C202.5,87.5,203.1,87.9,203.5,88.3z M155.5,99.7c-0.1,9.8-0.1,10.1-0.8,10.2c-0.4,0.1-1.2,0.3-1.7,0.6
		c-0.6,0.3-1.6,0.7-2.3,1c-0.7,0.3-1.7,0.7-2.3,1c-0.6,0.3-1.6,0.7-2.2,0.9c-0.6,0.3-1.8,0.7-2.6,1c-0.8,0.3-1.9,0.8-2.4,1
		c-0.5,0.3-1.2,0.5-1.4,0.5c-0.4,0-0.5-1.4-0.5-8.8c0-8.2,0-8.8,0.6-9.3c0.3-0.3,1.1-0.8,1.7-1.2c0.6-0.3,2-1.1,3.1-1.7
		c1.1-0.6,2.8-1.5,3.8-2.1c1-0.5,2.5-1.4,3.4-2c0.9-0.5,1.8-1,1.9-1c0.2,0,0.5-0.2,0.7-0.5c0.2-0.3,0.6-0.4,0.7-0.2
		C155.5,89.4,155.6,94.1,155.5,99.7z M237.3,98.5c-0.9,0.8-0.9,1-0.9,3.2c0,1.3,0.3,2.9,0.6,3.7c0.3,0.8,0.5,2.1,0.5,2.9
		c0,0.8,0.2,1.9,0.5,2.3c0.3,0.5,0.5,1.5,0.5,2.4c0,0.8,0.2,2.2,0.5,3c0.3,0.8,0.5,1.7,0.5,2c0,0.3-0.6,1.2-1.3,1.9
		c-0.7,0.7-1.5,1.6-1.8,2.1s-2.6,3-5.1,5.6c-2.5,2.6-4.8,5.2-5.2,5.7c-0.3,0.5-2.7,3.1-5.3,5.7s-5.1,5.4-5.5,6
		c-0.4,0.7-2.8,3.2-5.2,5.7c-2.4,2.5-4.7,4.9-5,5.4c-0.3,0.5-1.8,2.2-3.3,3.8c-1.5,1.6-3.7,3.9-5,5.2c-1.2,1.3-2.5,2.7-2.8,3.2
		c-0.3,0.5-2.5,2.9-4.9,5.4c-2.4,2.5-4.8,5-5.2,5.6c-0.7,1-0.8,1.3-0.6,2.8c0.1,0.9,0.4,2.1,0.6,2.7c0.2,0.5,0.6,1.5,0.9,2.2
		c0.2,0.6,0.5,1.8,0.7,2.5c0.2,0.7,0.5,1.5,0.7,1.7c0.2,0.2,0.3,0.7,0.1,1c-0.1,0.3-0.8,1.3-1.5,2c-0.7,0.8-1.3,1.5-1.3,1.7
		c0,0.1-1.4,1.7-3.2,3.6s-4,4.3-5,5.6c-1,1.3-2.8,3.3-4,4.5c-1.2,1.2-2.6,2.7-3,3.4c-0.4,0.7-2.3,2.8-4.2,4.7
		c-1.9,1.9-3.6,3.9-4,4.5c-0.3,0.5-2.1,2.6-4,4.5c-1.9,1.9-3.7,4-4,4.5c-0.3,0.5-2,2.5-3.8,4.3c-1.8,1.8-3.6,3.9-4,4.5
		c-0.4,0.7-2.3,2.8-4.1,4.7c-1.8,1.9-3.7,4-4.2,4.7c-0.5,0.7-1.7,2.1-2.8,3.2c-1,1-2.4,2.5-3.1,3.2c-0.7,0.7-1.5,1.7-1.8,2.2
		c-0.6,0.9-0.6,1-0.1,1.5c0.5,0.5,0.7,0.4,2.1-1.1c0.9-0.9,2.7-2.9,4.1-4.5c2.1-2.5,2.6-2.9,3.5-2.9c0.6,0,1.3,0.2,1.7,0.5
		c0.4,0.3,1,0.5,1.5,0.5c0.5,0,1.1,0.2,1.3,0.5c0.2,0.3,0.7,0.5,1,0.5c0.3,0,0.8,0.2,1.2,0.5c0.4,0.3,0.9,0.5,1.3,0.5
		c0.3,0,1.1,0.2,1.6,0.5c0.5,0.3,1.4,0.7,1.9,1c0.5,0.3,1.2,0.5,1.5,0.5c0.3,0,0.9,0.2,1.4,0.5c0.5,0.3,1.5,0.7,2.1,1
		c0.6,0.3,1.8,0.8,2.7,1.1c0.8,0.3,2,0.8,2.7,1.1c0.6,0.3,1.6,0.7,2.1,1c0.5,0.3,1.1,0.5,1.4,0.5c0.2,0,1.3,0.4,2.4,1
		c1.1,0.5,2.2,1,2.4,1c0.3,0,0.9,0.2,1.4,0.4c0.5,0.2,1.4,0.7,2,1c0.6,0.3,1.3,0.6,1.6,0.6c0.3,0,0.9,0.2,1.4,0.5
		c0.5,0.2,1.4,0.7,2,1.1c0.7,0.4,1.8,0.6,2.8,0.6c0.9,0,2.2-0.3,2.8-0.6c0.6-0.3,1.3-0.6,1.6-0.6c0.2,0,0.8-0.2,1.4-0.5
		c0.5-0.3,2-0.9,3.2-1.5s2.4-1,2.6-1c0.2,0,0.7-0.2,1.3-0.5c0.5-0.3,1.5-0.7,2.3-1c0.7-0.3,1.7-0.8,2.2-1c0.5-0.3,1-0.5,1.2-0.5
		c0.2,0,1.4-0.5,2.6-1c1.2-0.6,2.5-1.2,2.9-1.3c0.4-0.2,2.2-0.9,4-1.7c1.8-0.8,3.5-1.5,3.6-1.7c0.2-0.2,1.2-0.3,2.3-0.3
		c1.2,0,2.3,0.2,2.7,0.5c0.4,0.3,1,0.5,1.3,0.5c0.4,0,1,0.2,1.3,0.5c0.4,0.3,1,0.5,1.5,0.5c0.5,0,1.1,0.2,1.3,0.5
		c0.2,0.3,0.7,0.5,1,0.5c0.3,0,1.2,0.2,1.9,0.5c0.7,0.3,1.7,0.7,2.2,1c0.5,0.3,1.3,0.5,1.7,0.5c0.4,0,1,0.2,1.4,0.5
		c0.4,0.3,1,0.5,1.4,0.5c0.4,0,1.2,0.2,1.7,0.5c0.5,0.3,1.6,0.7,2.4,1c0.8,0.3,1.9,0.8,2.4,1c0.5,0.3,1.3,0.5,1.8,0.5
		c0.5,0,1.5-0.4,2.2-0.8s1.6-1,2-1.2c0.4-0.2,1-0.5,1.3-0.7c0.3-0.2,0.8-0.5,1.2-0.7c0.3-0.2,1.1-0.6,1.7-0.9
		c0.6-0.3,1.7-0.9,2.3-1.3c0.6-0.3,1.2-0.7,1.3-0.9c0.1-0.1,0.5-0.4,1-0.6c0.5-0.2,1.1-0.5,1.4-0.7c0.3-0.2,0.8-0.5,1.2-0.7
		c0.3-0.2,1.1-0.6,1.7-1c0.6-0.3,2-1.1,3-1.6c1-0.5,2.2-1.2,2.7-1.5c0.4-0.3,1.1-0.6,1.4-0.6c0.3,0,0.6,0.1,0.6,0.2
		c0,0.1-0.7,0.9-1.5,1.7c-0.8,0.8-1.4,1.6-1.4,1.7c0.1,0.1,0.9-0.4,1.9-1c1-0.6,2.3-1.8,2.9-2.6c0.6-0.8,1.8-2.2,2.6-3
		c0.8-0.9,1.4-1.8,1.4-2c0-0.2,0.4-0.9,1-1.4c0.5-0.5,1-1.2,1-1.5c0-0.3,0.5-1,1-1.6c0.5-0.6,1-1.3,1-1.5c0-0.2,0.2-0.6,0.5-0.8
		c0.3-0.2,0.5-0.6,0.5-0.9c0-0.3,0.4-1,0.9-1.7s1.1-1.5,1.3-1.9c0.2-0.4,0.5-0.9,0.6-1.2c0.1-0.3,0.3-0.7,0.5-1
		c0.2-0.3,0.8-1.5,1.4-2.8c0.6-1.3,1.4-2.9,1.7-3.6c0.3-0.7,0.6-1.5,0.6-1.7s0.2-0.6,0.5-0.9c0.3-0.2,0.5-0.8,0.5-1.2
		s0.2-0.9,0.5-1.2c0.3-0.2,0.5-0.9,0.5-1.5c0-0.6,0.2-1.3,0.5-1.5c0.3-0.2,0.5-0.8,0.5-1.3c0-0.5,0.2-1.1,0.5-1.3
		c0.3-0.2,0.5-0.9,0.5-1.5c0-0.6,0.2-1.3,0.5-1.5s0.5-1,0.5-1.6c0-0.7,0.2-1.6,0.5-2c0.3-0.5,0.5-1.4,0.5-2.1c0-0.7,0.2-1.5,0.4-1.8
		c0.3-0.4,0.2-0.9-0.1-1.9l-0.5-1.3l-0.4,0.9c-0.2,0.5-0.4,1.3-0.4,1.7s-0.2,1.3-0.5,2.1c-0.3,0.7-0.6,1.9-0.7,2.5
		c-0.1,0.6-0.5,1.6-1,2.1c-0.6,0.8-1.1,1-2.6,1.1c-1,0.1-2,0.4-2.3,0.6c-0.3,0.2-0.9,0.5-1.5,0.6c-0.5,0.1-1.4,0.3-1.8,0.4
		c-0.7,0.2-0.8,0.2-0.5-0.4c0.2-0.3,0.3-19.2,0.4-41.9c0.1-28.3,0-41.6-0.3-42.2c-0.2-0.6-0.6-0.9-1.1-0.9c-0.4,0-0.9-0.2-1.2-0.5
		c-0.2-0.3-0.6-0.5-0.8-0.5c-0.2,0-0.6-0.2-0.9-0.4c-0.2-0.2-1.9-1.2-3.8-2.2c-1.8-1-3.7-2-4.2-2.4c-0.5-0.3-2-1.2-3.3-1.9
		s-3.1-1.7-3.8-2.1c-0.7-0.5-2.4-1.4-3.6-2.1c-1.3-0.7-2.5-1.3-2.7-1.5c-0.2-0.2-1.6-0.9-3-1.7c-1.5-0.8-4-2.2-5.7-3.2
		c-1.6-1-3.3-2-3.6-2.4c-0.4-0.5-0.6-1.4-0.7-3.3c-0.1-2.3,0-2.8,0.5-3.4c0.3-0.4,0.5-0.9,0.4-1.2c-0.1-0.3-0.4-0.5-0.7-0.5
		S237.9,98,237.3,98.5z M136.5,108.7c-0.1,7.3-0.2,8.7-0.6,9c-0.3,0.1-1.2,0.5-2,0.8c-0.8,0.3-1.8,0.7-2.2,0.8
		c-0.4,0.2-1.5,0.6-2.5,1c-1,0.4-2.3,0.9-2.8,1.2c-0.5,0.3-1.2,0.4-1.4,0.3c-0.4-0.2-0.5-1.5-0.5-7.8c0-6.8,0.1-7.7,0.6-8.1
		c0.3-0.3,2-1.3,3.7-2.2s4-2.1,5-2.7c1-0.6,2-1,2.3-1C136.5,100,136.6,101.8,136.5,108.7z M182.6,102.5c0.2,0.3,0.6,0.5,0.9,0.5
		s0.9,0.2,1.4,0.5c0.5,0.3,1.6,0.7,2.4,1c0.8,0.3,1.7,0.7,2,0.9c0.3,0.2,0.7,0.4,1,0.5c0.3,0.1,0.9,0.4,1.5,0.6
		c0.5,0.2,1.7,0.7,2.5,1c0.8,0.3,2.1,0.9,2.9,1.2c0.8,0.4,1.6,1,1.9,1.4c0.4,0.5,0.5,1.6,0.5,4c0,3.1,0,3.3-1.1,4.8
		c-0.6,0.9-1.6,2.2-2.4,2.9c-0.7,0.8-1.7,1.9-2.2,2.7c-0.5,0.7-1.2,1.6-1.6,2c-0.4,0.4-1.2,1.3-1.8,2.1c-1,1.3-1.2,1.4-2.7,1.4
		c-0.9,0-2-0.2-2.6-0.5c-0.5-0.3-1.4-0.5-2-0.5c-0.6,0-1.2-0.2-1.4-0.4c-0.3-0.3-0.4-3.8-0.4-13.5c0-7.3,0.1-13.1,0.3-13.1
		C182,102,182.4,102.2,182.6,102.5z M179.6,115c0,11.8,0,12.7-0.6,12.9c-0.3,0.1-1.1,0.4-1.6,0.7c-0.6,0.3-1.4,0.5-1.8,0.5
		c-0.4,0-1,0.2-1.4,0.3c-0.4,0.2-1.3,0.5-2.1,0.6c-0.8,0.2-1.9,0.4-2.4,0.6c-0.6,0.2-2,0.6-3.2,0.9c-1.2,0.3-2.6,0.7-3.2,0.9
		c-0.6,0.2-1.6,0.5-2.3,0.6c-0.7,0.2-1.7,0.4-2.2,0.5c-0.8,0.2-0.9,0.1-1.1-1.4c-0.1-0.9-0.2-5.8-0.2-10.9c0-5.1,0.1-9.5,0.3-9.7
		c0.1-0.2,0.7-0.6,1.2-0.9c0.5-0.3,1.7-0.8,2.5-1.1c0.8-0.3,1.9-0.8,2.5-1c0.5-0.2,1.7-0.7,2.5-1c0.8-0.3,2-0.8,2.6-1
		c0.6-0.3,1.6-0.7,2.2-0.9c0.6-0.2,1.5-0.6,1.9-0.8c0.5-0.2,1.7-0.7,2.7-1.1c1-0.4,2.1-0.8,2.3-1c0.3-0.2,0.7-0.3,0.9-0.3
		C179.5,102.3,179.6,105.1,179.6,115z M242.2,110.2c1.2,0.6,2.4,1.2,2.7,1.4c0.3,0.2,1.5,0.9,2.7,1.6c1.2,0.7,2.9,1.6,3.8,2.1
		s2.3,1.3,3.2,1.8c0.8,0.6,2.5,1.5,3.7,2.1c1.2,0.6,2.6,1.4,3.2,1.7c0.5,0.3,1.7,1,2.7,1.6c0.9,0.5,2.1,1.2,2.7,1.5
		c0.6,0.3,1.3,0.7,1.7,0.9c0.4,0.2,1.4,0.8,2.3,1.4c0.9,0.6,2.1,1.2,2.7,1.5c0.6,0.3,1.3,0.8,1.6,1.1c0.5,0.6,0.6,3.1,0.5,41.2
		l-0.1,40.6l-1.2,0.2c-0.6,0.1-1.4,0.3-1.7,0.5c-0.3,0.2-1.2,0.4-2,0.5c-0.8,0.1-2.2,0.4-3,0.6c-0.8,0.2-2,0.5-2.7,0.7
		c-0.6,0.2-1.8,0.5-2.5,0.6c-0.7,0.1-2,0.4-2.8,0.6c-0.8,0.2-2.2,0.6-3,0.9s-1.9,0.5-2.5,0.5c-0.5,0-1.4,0.2-1.8,0.5
		c-0.5,0.3-1.4,0.5-2.2,0.5c-0.7,0-1.6,0.2-2,0.5c-0.4,0.3-1.3,0.5-2,0.5c-0.7,0-1.7,0.2-2.2,0.5c-0.5,0.3-1.4,0.5-2,0.5
		c-0.6,0-1.6,0.2-2.1,0.5c-0.5,0.3-1.3,0.5-1.8,0.5c-0.5,0-1.6,0.2-2.4,0.5c-0.8,0.3-2.2,0.6-3,0.9c-0.8,0.2-2.2,0.5-3.1,0.7
		s-1.9,0.4-2.2,0.6c-0.4,0.2-1.1,0.4-1.7,0.4s-1.5,0.2-2,0.5c-0.6,0.3-1.6,0.5-2.4,0.4l-1.4-0.1l-0.1-33.8
		c-0.1-23.4,0-35.8,0.3-40.3c0.2-3.6,0.5-6.8,0.7-7.2c0.1-0.4,1-1.5,1.8-2.5c0.9-1,1.7-1.9,1.9-1.9c0.2-0.1,0.3,16,0.3,37.4v37.5
		h2.3c1.3,0,2.9-0.2,3.7-0.5c0.8-0.3,2.3-0.5,3.5-0.5c1.1,0,2.6-0.2,3.4-0.5c0.7-0.3,2.2-0.5,3.3-0.5c1.1,0,2.6-0.2,3.3-0.5
		c0.7-0.3,2.2-0.5,3.2-0.5c1,0,2.6-0.2,3.5-0.5c0.9-0.3,2.5-0.5,3.5-0.5s2.5-0.2,3.3-0.5c0.8-0.3,2.4-0.5,3.5-0.5
		c1.1,0,2.7-0.2,3.5-0.5c0.8-0.3,2.3-0.5,3.4-0.5c1.6,0,2.2-0.1,2.8-0.7l0.8-0.7v-35.6c0-33.6,0-35.6-0.6-35.8
		c-0.3-0.1-2.2-1-4.1-1.9c-1.9-1-4.3-2.2-5.3-2.7c-1-0.5-1.9-1-2-1.1c-0.1-0.1-0.9-0.5-1.7-0.9c-0.8-0.4-1.7-0.7-1.9-0.7
		c-0.2,0-0.4-0.1-0.5-0.3c-0.1-0.1-0.6-0.5-1.3-0.9c-0.6-0.3-3.5-1.8-6.3-3.2c-2.9-1.4-5.5-2.9-5.9-3.3s-0.9-1.1-1.1-1.5
		c-0.2-0.5-0.3-1.4-0.3-2.1s-0.2-1.9-0.5-2.7c-0.3-0.8-0.5-1.9-0.5-2.6c0-0.6,0.1-1.1,0.3-1C239.9,109.1,241,109.6,242.2,110.2z
		 M155.6,123.3c0,10-0.1,11.3-0.5,11.5c-0.3,0.1-0.8,0.2-1.2,0.2c-0.4,0-1.4,0.2-2.4,0.5c-0.9,0.3-2.2,0.7-2.7,0.9
		c-0.6,0.2-1.6,0.5-2.3,0.6c-0.7,0.2-2,0.5-2.8,0.7c-0.8,0.2-2,0.6-2.7,0.8c-0.7,0.2-1.3,0.3-1.4,0.2c-0.1-0.1-0.2-4.6-0.2-9.9
		c0-8.4,0.1-9.8,0.5-10.3c0.3-0.3,0.7-0.5,1-0.5c0.2,0,0.9-0.2,1.5-0.5c0.6-0.3,1.5-0.7,2.1-1c0.6-0.3,1.2-0.5,1.5-0.5
		c0.2,0,0.9-0.2,1.4-0.5c0.5-0.3,1.5-0.7,2.1-1c0.6-0.3,1.7-0.7,2.4-1c0.7-0.3,1.4-0.5,1.7-0.5c0.3,0,0.7-0.2,0.9-0.5
		c0.2-0.3,0.6-0.5,0.9-0.5C155.5,112,155.6,113.9,155.6,123.3z M103.4,119.4c0.4,0.2,1.4,0.5,2.2,0.6c0.8,0.1,2.2,0.4,3,0.6
		c0.8,0.2,1.9,0.5,2.5,0.7c0.5,0.2,1.6,0.5,2.3,0.6c0.7,0.2,2,0.4,2.8,0.7c0.8,0.2,2.2,0.6,3.2,0.8c0.9,0.3,2,0.5,2.3,0.6
		c0.6,0.1,0.7,0.4,0.8,6.9l0.1,6.8l-0.8-0.2c-0.4-0.1-1.7-0.4-2.8-0.5s-2.4-0.4-2.9-0.6c-0.5-0.2-1.5-0.4-2.2-0.4
		c-0.7,0-1.6-0.2-2.1-0.5c-0.5-0.3-1.5-0.5-2.3-0.5c-0.8,0-1.9-0.2-2.3-0.5c-0.5-0.3-1.5-0.5-2.3-0.5c-0.8,0-1.9-0.2-2.4-0.5
		c-0.5-0.3-1.1-0.8-1.3-1.1c-0.2-0.4-0.3-3.2-0.3-6.8c0-3.4,0.1-6.2,0.2-6.3c0.1-0.1,0.5-0.2,0.9-0.2
		C102.4,119,103,119.1,103.4,119.4z M98.9,126.2l-0.1,6.2l-1.7,0.8c-0.9,0.4-2.1,1-2.6,1.2c-0.5,0.2-1.2,0.5-1.4,0.5
		c-0.4,0-0.5-1-0.5-6c0-5.8,0-6,0.7-6.5c0.4-0.3,1.6-0.9,2.6-1.5c1-0.5,2.1-1,2.4-1C99,120,99,120.4,98.9,126.2z M136.5,129.9
		l-0.1,9.9l-1.2,0.2c-0.6,0.1-1.5,0.4-1.9,0.6c-0.4,0.2-1.1,0.4-1.6,0.4c-0.5,0-1.2,0.2-1.6,0.4c-0.4,0.2-1.4,0.5-2.2,0.6
		c-0.8,0.1-1.9,0.4-2.4,0.5l-0.9,0.2l0-8.8c0-4.8,0.1-9,0.3-9.2c0.1-0.2,1.1-0.7,2.2-1.1c1.1-0.4,2.5-0.9,3.1-1.2s1.6-0.7,2.3-1
		c0.7-0.3,1.6-0.7,2.1-1c0.5-0.2,1.1-0.5,1.4-0.5C136.6,120,136.6,120.6,136.5,129.9z M242.6,121.5c0.6,0.3,1.3,0.7,1.6,0.8
		c0.3,0.1,1.7,0.9,3.2,1.7c1.5,0.8,4,2.1,5.7,3c1.6,0.9,5.1,2.7,7.7,4c2.6,1.3,4.9,2.5,5.2,2.6c0.3,0.2,0.7,0.4,1,0.5
		c0.3,0.1,0.7,0.3,1,0.5c0.3,0.2,0.8,0.4,1.1,0.5c0.5,0.2,0.6,2.1,0.6,35v34.8h-1.3c-0.7,0-1.9,0.2-2.7,0.5
		c-0.8,0.3-2.4,0.5-3.5,0.5c-1.1,0-2.7,0.2-3.5,0.5c-0.8,0.3-2.3,0.5-3.4,0.5c-1.1,0-2.5,0.2-3.2,0.5c-0.7,0.3-2.1,0.5-3.2,0.5
		c-1.1,0-2.6,0.2-3.4,0.5c-0.7,0.3-2.3,0.5-3.4,0.5c-1.1,0-2.7,0.2-3.5,0.5c-0.8,0.3-2.3,0.5-3.3,0.5s-2.7,0.2-3.6,0.5
		c-1,0.3-2.4,0.5-3.3,0.4l-1.6-0.1l-0.1-37.1c-0.1-20.4,0-37.4,0.1-37.8c0.1-0.4,0.7-1.2,1.3-1.9c0.6-0.7,2.2-2.5,3.6-4
		c1.3-1.5,3.3-3.8,4.5-4.9c1.1-1.2,2.4-2.6,2.9-3.1c0.5-0.6,1.1-0.9,1.7-0.9C241.2,121,242.1,121.2,242.6,121.5z M90.7,129.9v5.6
		l-0.9,0.7c-0.5,0.4-1.1,0.7-1.4,0.7c-0.3,0-0.8,0.2-1.2,0.5c-0.4,0.3-1.1,0.5-1.6,0.5h-0.9l-0.1-4.2c0-2.3,0-4.8,0-5.4
		c0-0.7,0.2-1.3,0.6-1.5c0.3-0.2,1.5-0.8,2.6-1.4s2.2-1.1,2.4-1.1C90.6,124.3,90.7,125.6,90.7,129.9z M81.7,129.3
		c0.1,0.2,0.1,2.6,0,5.3l-0.1,5l-1.2,0.6c-0.7,0.3-1.8,0.7-2.4,1c-0.6,0.2-1.2,0.4-1.3,0.4c-0.1,0-0.1-2.3,0-5.1l0.1-5.1l2.2-1.2
		c1.2-0.7,2.3-1.2,2.4-1.3C81.5,129,81.7,129.1,81.7,129.3z M179.5,136.1c0.1,5.3,0.1,5.6-0.7,6.6c-0.4,0.6-1.2,1.6-1.8,2.3
		c-0.6,0.7-1.7,2-2.4,3c-0.7,1-1.8,2.3-2.4,3c-0.6,0.7-1.5,1.8-2.1,2.5c-0.5,0.7-1.2,1.6-1.5,1.9c-0.3,0.3-0.9,0.7-1.3,1
		c-0.5,0.3-2,0.5-3.3,0.7c-1.4,0.1-3.2,0.4-4.1,0.7c-1.3,0.4-1.6,0.4-1.9,0c-0.2-0.2-0.3-4.7-0.3-10c0-5.2,0.1-10,0.2-10.5
		c0.2-0.7,0.6-1.1,1.6-1.4c0.7-0.3,1.9-0.6,2.7-0.7c0.7-0.1,1.7-0.4,2.1-0.6c0.4-0.2,1.1-0.4,1.5-0.4c0.4,0,1.5-0.2,2.4-0.5
		c0.9-0.3,2.4-0.7,3.3-1c0.9-0.3,1.9-0.5,2.3-0.5c0.4,0,1.1-0.2,1.6-0.5c0.5-0.3,1.4-0.5,2-0.5c0.6,0,1.2-0.2,1.3-0.4
		c0.1-0.2,0.4-0.3,0.6-0.2C179.3,130.5,179.4,132.2,179.5,136.1z M185.5,131.5c0.4,0.3,1,0.5,1.4,0.5c0.4,0,0.7,0.1,0.7,0.3
		s-0.4,0.6-0.9,1.1c-0.5,0.4-1.2,1.3-1.6,2c-0.4,0.6-1.3,1.7-1.9,2.4c-0.7,0.7-1.3,1.2-1.4,1.2c-0.1,0-0.2-1.9-0.2-4.2v-4.2l1.6,0.2
		C184,130.9,185.1,131.2,185.5,131.5z M103.6,135.4c0.8,0.3,2,0.5,2.6,0.5c0.7,0,1.4,0.2,1.6,0.3c0.2,0.2,1.2,0.4,2.1,0.5
		c1,0.1,2.3,0.4,2.9,0.7c0.6,0.3,1.6,0.5,2.2,0.5s1.8,0.2,2.6,0.5c0.8,0.3,1.9,0.5,2.6,0.5c0.6,0,1.4,0.2,1.8,0.3
		c0.6,0.3,0.6,0.8,0.6,7.4v7l-0.8-0.2c-0.4-0.1-1.8-0.3-3.1-0.4c-1.3-0.1-2.8-0.4-3.4-0.6c-0.6-0.3-2-0.5-3.2-0.5s-2.7-0.2-3.4-0.5
		c-0.7-0.3-2.1-0.5-3.3-0.5c-1.3,0-2.6-0.2-3.3-0.6l-1.2-0.6l-0.1-6.7c-0.1-3.7,0-7,0.1-7.4c0.1-0.4,0.4-0.8,0.6-0.8
		S102.9,135.2,103.6,135.4z M99,142.5c0,4.3-0.1,7.4-0.3,7.8c-0.2,0.4-0.7,0.6-1.3,0.6c-0.5,0-1.4,0.2-1.9,0.5
		c-0.5,0.3-1.4,0.5-1.9,0.5l-0.9,0v-7.2v-7.2l0.9-0.4c0.5-0.2,1.4-0.6,2.1-0.9c0.6-0.3,1.4-0.6,1.7-0.8c0.3-0.2,0.8-0.3,1.1-0.3
		C98.9,135.3,99,135.8,99,142.5z M155.6,147.4v10.5l-1.8,0.5c-1,0.3-2.5,0.5-3.4,0.5s-2.4,0.2-3.4,0.5s-3.1,0.5-4.7,0.6l-2.8,0.1
		l-0.1-9.4c-0.1-7.4,0-9.4,0.3-9.5c0.2-0.1,0.9-0.3,1.6-0.5c0.6-0.2,1.8-0.5,2.5-0.7c0.7-0.1,1.7-0.4,2.1-0.6
		c0.4-0.2,1.1-0.4,1.7-0.4c0.5,0,1.3-0.2,1.8-0.5c0.5-0.3,1.2-0.5,1.7-0.5c0.5,0,1.4-0.2,2-0.5c0.6-0.3,1.5-0.5,1.9-0.5l0.8,0V147.4
		z M90.5,145.8v7l-1,0.1c-0.5,0.1-1.5,0.3-2,0.6c-0.6,0.3-1.4,0.5-1.9,0.5h-0.9l-0.1-5.9c-0.1-3.3,0-6.2,0-6.5
		c0.1-0.3,0.6-0.8,1.2-1.1s1.7-0.8,2.6-1.2c0.8-0.4,1.6-0.6,1.8-0.6C90.4,138.8,90.5,141.5,90.5,145.8z M81.7,148.7l-0.1,6.1
		l-1.8,0.6c-1,0.3-2.1,0.6-2.5,0.6c-0.7,0-0.7-0.1-0.7-5.8v-5.8l1.6-0.7c0.9-0.4,2-0.9,2.4-1.1c0.5-0.2,0.9-0.3,1-0.2
		C81.7,142.4,81.8,145.3,81.7,148.7z M136.5,151.3l-0.1,9.4l-2,0.4c-1.1,0.2-3.6,0.6-5.6,0.8c-3,0.3-3.7,0.3-3.9-0.1
		c-0.2-0.2-0.3-4.1-0.3-8.5l0-8l1.6-0.6c0.9-0.3,2.2-0.7,2.9-0.8c0.7-0.1,1.7-0.4,2.1-0.6c0.4-0.2,1.1-0.4,1.7-0.4
		c0.5,0,1.3-0.2,1.8-0.5c0.5-0.3,1.1-0.5,1.4-0.5C136.6,141.9,136.6,142.5,136.5,151.3z M217.7,149.5c0.1,1.8,0.2,19.2,0.2,38.8
		l0,35.6h-1c-0.6,0-1.3-0.2-1.7-0.3c-0.6-0.3-0.6-1.1-0.6-37.3v-37l1.2-1.5c0.7-0.8,1.3-1.5,1.4-1.5
		C217.4,146.3,217.5,147.7,217.7,149.5z M212.5,154.9l0.1,3.1h-3c-1.7,0-3-0.1-3-0.3c0-0.2,0.7-1,1.6-1.9c0.9-0.9,2-2.2,2.6-2.9
		c0.5-0.7,1.1-1.2,1.3-1.1C212.2,151.8,212.4,153.2,212.5,154.9z M103.8,152.4c0.7,0.3,2.3,0.5,3.5,0.5c1.2,0,2.3,0.2,2.5,0.4
		c0.2,0.2,1.7,0.5,3.3,0.6c1.6,0.2,3.4,0.5,3.9,0.7c0.5,0.2,1.7,0.4,2.7,0.4c1,0,2,0.1,2.3,0.2c0.4,0.2,0.5,0.8,0.5,4v3.8l-1.6,0.5
		c-0.9,0.3-2.5,0.5-3.6,0.5s-2.7,0.2-3.5,0.5c-0.8,0.3-2.3,0.5-3.5,0.5c-1.1,0-2.7,0.2-3.6,0.5c-0.9,0.3-2.3,0.5-3.6,0.4l-2.1-0.1
		l-0.1-6.3c-0.1-3.9,0-6.5,0.3-6.9c0.2-0.4,0.5-0.7,0.8-0.7C102.3,151.9,103.1,152.2,103.8,152.4z M98.9,159.4
		c0.1,6.1,0.1,6.3-0.6,6.9c-0.5,0.4-1.3,0.6-3.2,0.6h-2.5v-6.1c0-4.3,0.1-6.2,0.4-6.5c0.2-0.2,0.9-0.4,1.6-0.4c0.7,0,1.6-0.2,2-0.5
		c0.5-0.3,1.1-0.4,1.5-0.4C98.8,153.1,98.8,153.4,98.9,159.4z M90.5,161.4v6.3l-2.8,0.2c-1.6,0.1-2.9,0.2-2.9,0.2
		c0,0-0.1-2.5-0.1-5.6c0-4,0.1-5.7,0.4-6.1c0.2-0.3,1-0.5,1.6-0.5c0.7,0,1.6-0.2,2-0.5c0.5-0.3,1.1-0.4,1.3-0.4
		C90.4,155.1,90.5,156.1,90.5,161.4z M81.7,163.1v5.8l-1.6,0.2c-0.9,0.1-2,0.3-2.5,0.4l-0.9,0.2v-5.5c0-3.8,0.1-5.6,0.4-5.9
		c0.2-0.2,0.9-0.4,1.6-0.4c0.7,0,1.4-0.2,1.7-0.3c0.3-0.2,0.7-0.3,0.9-0.3C81.6,157.3,81.7,158.6,81.7,163.1z M165.3,159.2
		c0,0.1-0.4,0.7-0.9,1.3c-0.5,0.6-1.2,1.4-1.6,1.8c-0.4,0.4-1,1.3-1.5,2c-0.4,0.6-1.3,1.7-1.9,2.3c-0.6,0.6-1.2,1-1.4,0.9
		c-0.2-0.1-0.3-1.1-0.3-2.3c0-1.2,0.1-2.8,0.1-3.7l0.1-1.6l1.7,0c1,0,2.3-0.2,3.1-0.5c0.7-0.2,1.6-0.5,1.9-0.5
		C165,158.9,165.3,159,165.3,159.2z M210.4,170.9v10.8l-12.3,0.1c-6.8,0-12.5,0-12.8-0.1c-0.3-0.1-0.2-0.5,0.5-1.4
		c0.5-0.7,1.3-1.5,1.7-1.9c0.4-0.4,1.8-1.9,3-3.4c1.3-1.5,3.4-3.8,4.6-5.1c1.3-1.3,2.8-2.9,3.3-3.5c0.6-0.6,2-2.2,3.2-3.5
		c1.2-1.4,2.3-2.6,2.5-2.7c0.2-0.1,1.7-0.2,3.3-0.2l3,0.1V170.9z M155.6,165.9v5.3l-1.1,1.3c-0.6,0.7-1.2,1.3-1.3,1.4
		c-0.1,0.1-0.5,0.6-0.9,1.2c-0.6,0.8-0.7,1.5-0.7,3.2c0,1.2,0.2,2.7,0.5,3.4c0.3,0.7,0.5,1.5,0.5,1.7c0,0.3-1.5,0.4-6.6,0.4h-6.6
		l-0.1-10.1c-0.1-5.5-0.1-10.2,0-10.4c0-0.2,1-0.6,2.1-0.9c1.1-0.3,2.9-0.6,4-0.6s2.4-0.2,2.9-0.4c0.5-0.2,2.2-0.5,3.8-0.6
		c1.6-0.1,3-0.3,3.2-0.3C155.5,160.6,155.6,161.9,155.6,165.9z M136.5,173.5l0.1,10.4l-5.9-0.1l-5.9-0.1v-9.3v-9.3l2.5-0.6
		c1.4-0.3,3.3-0.6,4.3-0.6c1,0,2.4-0.2,3-0.5c0.6-0.2,1.3-0.4,1.5-0.4C136.3,163.1,136.5,166.9,136.5,173.5z M122.6,174.6v9.3h-5.5
		h-5.5v-8.3c0-6.2,0.1-8.4,0.4-8.6c0.2-0.2,0.9-0.4,1.6-0.6c0.6-0.1,2.5-0.4,4.2-0.5c1.7-0.2,3.3-0.4,3.7-0.6
		c0.3-0.2,0.7-0.3,0.9-0.2C122.5,165.2,122.6,169.5,122.6,174.6z M109.6,175.5l0.1,8.4h-4h-4l0.1-7.9l0.1-7.9l2.5-0.2
		c1.4-0.1,2.9-0.4,3.5-0.6c0.5-0.2,1.1-0.3,1.3-0.2C109.3,167.1,109.5,170.3,109.6,175.5z M99,176.4v7.5h-3.2h-3.2v-7v-7l1.1-0.5
		c0.6-0.3,2-0.5,3.2-0.5l2.1,0V176.4z M90.7,176.9v7h-3h-3l-0.1-5.9c-0.1-3.3,0-6.2,0-6.5c0.1-0.3,0.7-0.8,1.7-1
		c0.8-0.3,2.2-0.5,3-0.5l1.4,0V176.9z M81.5,171.2c0.1,0.2,0.2,3.1,0.2,6.4l0,6.1l-2.5,0.1l-2.5,0.1v-6v-6l0.9,0
		c0.5,0,1.4-0.2,2.1-0.5c0.6-0.2,1.3-0.5,1.4-0.5C81.2,170.9,81.4,171.1,81.5,171.2z M212.4,217.8l0,33.8l-0.8,0.3
		c-0.4,0.2-1.6,0.7-2.7,1.2c-1,0.5-2.3,1.1-2.9,1.3c-0.5,0.2-1.6,0.7-2.3,1c-0.7,0.3-1.7,0.8-2.2,1.1c-0.5,0.3-1.1,0.5-1.4,0.5
		c-0.3,0-1.2,0.3-2,0.7c-0.8,0.4-1.6,0.8-1.7,1c-0.1,0.2-0.5,0.3-0.8,0.3c-0.3,0-1,0.2-1.6,0.5c-0.5,0.3-1.5,0.7-2.3,1.1
		c-0.7,0.3-1.7,0.8-2.2,1c-0.5,0.2-1.1,0.4-1.3,0.4c-0.2,0-1.4,0.5-2.6,1s-2.6,1.2-3.1,1.5c-0.5,0.3-1.3,0.5-1.8,0.5h-0.9l0.2-30.2
		c0.1-16.6,0.3-30.8,0.4-31.5c0.2-0.7,1-2.1,2-3.2c0.9-1.1,1.8-2,1.9-2c0.1,0,0.3,14.1,0.3,31.4c0,27.6,0.1,31.5,0.5,31.6
		c0.3,0.1,0.7,0.1,1,0c0.4-0.2,0.5-4.1,0.5-32.8v-32.6l0.8-1.7c0.6-1.3,0.7-1.9,0.5-2.3c-0.2-0.3-0.3-0.9-0.3-1.3
		c0-0.4-0.2-1.1-0.5-1.6c-0.3-0.5-0.5-1.6-0.5-2.4c0-1-0.1-1.4-0.5-1.4c-0.3,0-0.5-0.2-0.5-0.5c0-0.4,1.6-0.5,13.4-0.4l13.4,0.1
		L212.4,217.8z M190.6,221.4c0,28.9,0.1,36.5,0.4,36.6c0.2,0.1,0.7,0.1,1,0c0.6-0.1,0.6-2.2,0.6-36.6v-36.4h-1h-1V221.4z
		 M196.6,220.3c0,31.2,0.1,35.5,0.5,35.6c0.3,0.1,0.7,0.1,1,0c0.4-0.2,0.5-4.4,0.5-35.6v-35.4h-1h-1V220.3z M202.6,218.8
		c0,29.9,0.1,34,0.5,34.1c0.3,0.1,0.7,0.1,1,0c0.4-0.2,0.5-4.3,0.5-34.1v-33.9h-1h-1V218.8z M208.6,217.9c0,26.1,0.1,33,0.4,33.1
		c0.2,0.1,0.7,0.1,1,0c0.5-0.1,0.6-2.1,0.7-32.8c0-17.9,0-32.8,0-32.9s-0.5-0.3-1.1-0.3h-1V217.9z M81.4,186.2
		c0.1,0.1,0.2,2.8,0.3,5.9l0.1,5.7l-2.1,0.1c-1.3,0.1-2.3-0.1-2.6-0.3c-0.4-0.3-0.5-1.5-0.5-5.8c0-3,0.1-5.5,0.2-5.6
		c0.1-0.1,1.2-0.2,2.3-0.2S81.4,186,81.4,186.2z M90.6,192.5l0.1,6.4h-2.6c-1.6,0-2.8-0.2-3-0.4c-0.3-0.3-0.4-2.1-0.4-6.3
		c0-3.2,0.1-6,0.2-6.1c0.1-0.1,1.4-0.2,2.9-0.1l2.7,0.1L90.6,192.5z M98.6,186.3c0.3,0.3,0.4,2.3,0.4,7v6.6h-2.8
		c-1.7,0-2.9-0.2-3.2-0.4c-0.3-0.3-0.4-2.3-0.4-6.8c0-3.5,0.1-6.5,0.2-6.6c0.1-0.1,1.4-0.2,2.8-0.2
		C97.2,185.9,98.3,186.1,98.6,186.3z M109.1,186.1c0.5,0.2,0.5,1.2,0.5,7.8c0,4.2-0.1,7.7-0.3,7.8c-0.2,0.1-0.7,0-1.2-0.2
		c-0.5-0.2-2.1-0.5-3.6-0.6l-2.7-0.2l-0.1-7c0-3.8,0-7.2,0.1-7.4c0.1-0.3,1.1-0.4,3.5-0.4C107.1,185.9,108.8,186,109.1,186.1z
		 M122.5,194.6v8.5l-2.2-0.1c-1.2,0-3.6-0.3-5.4-0.7l-3.2-0.6V194c0-4.2,0.1-7.8,0.2-7.9c0.1-0.1,2.6-0.2,5.4-0.1l5.2,0.1V194.6z
		 M136.5,195.5l0.1,9.4h-2.2c-1.2,0-3-0.2-4.1-0.5c-1.1-0.3-2.6-0.5-3.5-0.5c-1.2,0-1.7-0.1-1.9-0.6c-0.2-0.4-0.3-3.7-0.3-8.5
		c0-6.7,0.1-7.9,0.5-8.4c0.5-0.5,1.3-0.5,5.9-0.4l5.4,0.1L136.5,195.5z M153.1,186.5c0.3,0.2,0.6,1.2,0.7,2.3l0.2,1.8l-4.3,6.4
		c-2.3,3.5-4.7,6.9-5.2,7.6c-0.9,1.2-1.1,1.2-2.7,1.2c-1,0-1.9-0.2-2.1-0.4c-0.3-0.3-0.4-2.9-0.4-9.8c0-7.2,0.1-9.4,0.4-9.6
		c0.2-0.1,3.2-0.1,6.6-0.1C150.7,186.1,152.7,186.2,153.1,186.5z M81.6,206l0.1,5.9h-1c-0.5,0-1.7-0.3-2.5-0.7l-1.5-0.7v-5.3v-5.3
		l2.4,0.1l2.4,0.1L81.6,206z M89.4,201.2l1.2,0.3v6.3c0,4.2-0.1,6.4-0.4,6.5c-0.2,0.1-0.5,0.1-0.7-0.1c-0.2-0.2-0.9-0.4-1.4-0.4
		s-1.6-0.3-2.2-0.6c-0.6-0.3-1.2-0.6-1.2-0.7c-0.1,0-0.1-2.5-0.1-5.5c0-3,0-5.6,0-5.8c0-0.3,0.6-0.4,1.8-0.4
		C87.4,200.9,88.7,201.1,89.4,201.2z M98.2,202.5c0.7,0.4,0.7,0.5,0.7,7.2c0,4-0.1,6.9-0.3,7c-0.2,0.1-0.8,0-1.3-0.3
		c-0.5-0.3-1.4-0.5-1.9-0.5c-0.5,0-1.3-0.2-1.8-0.5l-1-0.5v-6.5v-6.5l2.4,0.2C96.4,202,97.8,202.3,98.2,202.5z M106.8,203.6
		c1.1,0.2,2.2,0.5,2.4,0.5c0.3,0.1,0.4,1.9,0.4,7.8v7.7l-0.9-0.3c-0.5-0.1-1.5-0.4-2.2-0.5c-0.7-0.1-2.1-0.5-3-0.7l-1.7-0.5
		l-0.1-7.4l-0.1-7.4l1.6,0.2C104.1,203.1,105.7,203.3,106.8,203.6z M117.1,204.9c1.8,0.2,3.8,0.4,4.3,0.6l1,0.3l0.1,8.6l0.1,8.6
		h-0.9c-0.5,0-1.6-0.2-2.6-0.5c-0.9-0.3-2.4-0.7-3.2-1c-0.8-0.3-1.9-0.5-2.4-0.5c-0.5,0-1.1-0.2-1.4-0.5c-0.4-0.4-0.5-1.7-0.5-8.4
		v-7.8l1.1,0.2C113.3,204.5,115.3,204.7,117.1,204.9z M129,206.4c1,0.3,2.8,0.5,3.9,0.5c1.1,0,2.4,0.1,2.9,0.3l0.9,0.3v4.3v4.3
		l-2.5,3.8c-1.4,2.1-2.8,4.1-3.1,4.4c-0.4,0.5-0.9,0.6-2,0.5c-0.8-0.1-2.1-0.4-2.8-0.7l-1.3-0.5l-0.1-8.4c0-4.6,0-8.6,0.1-8.9
		c0.1-0.2,0.7-0.4,1.3-0.4S127.9,206.1,129,206.4z M177.7,210.5c0.1,2.3,0.2,15.3,0.2,28.8c0,16.3-0.1,24.6-0.3,24.8
		c-0.2,0.1-0.9,0-1.6-0.2c-0.7-0.2-1.9-0.7-2.7-1.1s-2.1-0.9-2.8-1.2c-0.7-0.3-1.9-0.8-2.5-1c-0.6-0.2-1.8-0.7-2.5-1
		c-0.7-0.3-2.5-1-3.8-1.6c-1.4-0.6-2.6-1-2.7-1c-0.1,0-1.2-0.4-2.3-1c-1.2-0.5-2.5-1.1-2.9-1.2c-0.5-0.1-1.6-0.6-2.5-1
		c-0.9-0.4-2.3-1-3.2-1.3c-0.8-0.3-2-0.8-2.7-1.1c-0.6-0.3-1.8-0.8-2.7-1.2c-0.8-0.4-1.8-0.9-2.3-1.2l-0.8-0.5l0.9-0.9
		c0.5-0.5,2.3-2.5,4.1-4.5c1.7-2,3.5-4,4-4.5c0.5-0.5,2.3-2.5,4-4.5s3.5-4,4-4.5c0.5-0.5,2.1-2.3,3.5-4c1.5-1.7,3.1-3.6,3.7-4.2
		c0.5-0.6,1.6-1.7,2.3-2.5c0.7-0.8,2.1-2.4,3.1-3.6c1-1.2,2.2-2.5,2.6-3c0.5-0.5,1.7-1.8,2.7-3c1-1.1,2-2.3,2.1-2.5
		c0.1-0.3,0.4-0.5,0.5-0.5C177.4,206.2,177.6,208.1,177.7,210.5z M141.7,208.3c0.1,0.2-0.3,1-0.9,1.7c-0.6,0.7-1.2,1.2-1.3,1.2
		c-0.1,0-0.3-0.8-0.3-1.7v-1.7h1.1C141.1,207.9,141.6,208.1,141.7,208.3z M77.8,213.6c0.1,0.2,0.7,0.3,1.4,0.3
		c0.6,0,1.5,0.2,1.8,0.3c0.6,0.3,0.6,0.8,0.6,6.2v5.8l-1-0.2c-0.6-0.1-1.7-0.5-2.5-0.9l-1.5-0.6v-5.6c0-4.7,0.1-5.6,0.5-5.6
		C77.4,213.2,77.7,213.4,77.8,213.6z M283.2,214.4c0,0.2-0.7,0.4-1.5,0.4c-0.9,0.1-1.8,0-2.1-0.1c-0.3-0.1-0.4-0.3-0.3-0.5
		c0.1-0.2,1-0.3,2-0.3C282.4,214,283.2,214.2,283.2,214.4z M89.2,216.6l1.4,0.6v6.3v6.3h-0.8c-0.4,0-0.9-0.1-1-0.3
		c-0.1-0.2-0.6-0.4-1.1-0.5c-0.5-0.1-1.4-0.5-2-0.7l-1.1-0.5v-6.1v-6.1l1.6,0.2C87.1,215.9,88.5,216.3,89.2,216.6z M277.2,216.1
		c0.2,0.1,0.2,0.3,0.1,0.5c-0.1,0.2-1.6,0.3-3.4,0.3c-2.4,0-3.1-0.1-3-0.4c0.1-0.2,0.7-0.5,1.3-0.6c0.6-0.1,1.9-0.2,2.9-0.1
		C276.1,215.8,277.1,216,277.2,216.1z M262.4,216.3c-0.1,0.2-0.6,0.5-1.3,0.5c-1.1,0.1-1.1,0.1-0.5-0.4c0.4-0.3,0.9-0.5,1.3-0.5
		C262.3,215.9,262.5,216.1,262.4,216.3z M258.8,217.3c-0.1,0.2-0.7,0.5-1.4,0.5c-1.1,0.1-1.2,0-0.8-0.4c0.2-0.3,0.9-0.5,1.4-0.5
		C258.6,216.9,258.9,217,258.8,217.3z M282.8,217.7c-0.1,0.5-0.5,0.8-1.5,1c-0.8,0.2-1.6,0.2-1.9,0.1c-0.3-0.1-0.5-0.3-0.5-0.5
		c0-0.2,0.6-0.5,1.4-0.8c0.8-0.3,1.7-0.5,2-0.5C282.7,217,282.8,217.2,282.8,217.7z M96.8,218.5c0.9,0.3,1.8,0.7,2,0.9
		c0.1,0.2,0.2,3.4,0.2,7.1c0,4.3-0.1,6.8-0.3,6.9c-0.2,0.1-0.5,0.1-0.7-0.1c-0.2-0.2-1.2-0.6-2.2-0.9s-2.1-0.8-2.4-1.1
		c-0.5-0.4-0.6-1.2-0.6-6.9v-6.4h1.2C94.5,217.9,95.8,218.1,96.8,218.5z M255.1,218.3c-0.1,0.2-0.8,0.5-1.7,0.5
		c-0.8,0.1-1.7,0.3-1.9,0.6s-1,0.5-1.6,0.5c-0.7,0-1.5,0.2-1.9,0.5c-0.4,0.3-1.2,0.5-1.8,0.5c-0.6,0-1.5,0.2-2,0.5
		c-0.5,0.3-1.3,0.5-1.9,0.5c-0.6,0-1.5,0.2-2,0.5c-0.5,0.3-1.3,0.5-1.7,0.5c-0.4,0-1.5,0.2-2.3,0.5c-0.8,0.3-2.4,0.7-3.4,1
		c-1,0.3-2.7,0.7-3.7,1c-1,0.3-2.7,0.7-3.8,1c-1.1,0.3-2.8,0.8-3.8,1c-1,0.3-2.3,0.7-2.8,0.9c-0.6,0.2-1.7,0.4-2.6,0.5l-1.6,0.1
		v-1.5v-1.5h1.2c0.7,0,1.6,0.2,2.2,0.5c0.9,0.5,1.2,0.5,2.6,0c0.9-0.3,2.5-0.7,3.7-1c1.1-0.3,3-0.7,4.2-1c1.1-0.3,2.8-0.7,3.7-1
		c0.9-0.2,2.3-0.6,3.2-0.8c0.8-0.2,2.1-0.5,2.8-0.6c0.7-0.1,1.9-0.4,2.5-0.6c0.6-0.2,1.8-0.5,2.7-0.7c0.8-0.2,2.2-0.5,3-0.6
		c0.8-0.1,1.8-0.4,2.2-0.6c0.4-0.2,1.3-0.4,2-0.4c0.7,0,1.6-0.2,1.9-0.5c0.4-0.3,1.2-0.5,1.8-0.5C254.9,217.9,255.2,218,255.1,218.3
		z M269.9,218.4c0,0.2-0.9,0.6-2,0.9c-1.2,0.4-2.6,0.6-3.9,0.5c-1.1-0.1-2-0.2-2.1-0.3c-0.1-0.1-0.1-0.4,0-0.7
		c0.1-0.3,0.7-0.6,1.5-0.6c0.7-0.1,2.5-0.1,3.9-0.1C268.8,218,270,218.2,269.9,218.4z M103.5,220.4c0.5,0.3,1.3,0.5,1.8,0.5
		c0.5,0,1.6,0.3,2.5,0.6l1.7,0.6l0.1,7.9c0.1,6.9,0,7.9-0.4,7.9c-0.3,0-0.8-0.1-1.1-0.3c-0.3-0.2-1.3-0.6-2.1-1
		c-0.9-0.4-1.7-0.7-1.8-0.7c-0.1,0-0.7-0.2-1.3-0.5l-1.1-0.5v-7.5c0-6.1,0.1-7.5,0.5-7.5C102.4,219.9,103,220.1,103.5,220.4z
		 M258.4,220.2c0.3,0.2,1,0.5,1.5,0.7c0.5,0.2,0.9,0.5,0.9,0.7c0,0.2-0.4,0.3-1,0.3c-0.5,0-1.5,0.2-2.2,0.5
		c-0.7,0.3-2.2,0.5-3.5,0.5c-1.2,0-2.6-0.1-3.2-0.2c-0.6-0.1-1.1-0.2-1.2-0.2c-0.1,0-0.3-0.2-0.3-0.3c0-0.2,0.6-0.5,1.4-0.8
		c0.8-0.3,1.9-0.6,2.4-0.6c0.5,0,1.3-0.2,1.6-0.5c0.4-0.3,1.1-0.5,1.8-0.5C257.4,219.9,258.1,220,258.4,220.2z M278.5,220.2
		c0.3,0.2,0.4,0.4,0.3,0.4c-0.1,0.1-0.6,0.3-1.2,0.6c-0.5,0.2-2.3,0.5-4,0.6c-1.6,0.1-3.2,0-3.5-0.2c-0.4-0.2-0.4-0.4-0.1-0.8
		c0.2-0.3,0.9-0.6,1.5-0.6s2.3-0.2,3.7-0.2C276.8,219.9,278.2,220,278.5,220.2z M280.7,223.2c-0.3,0.4-1,0.7-1.4,0.7
		s-0.8-0.2-0.8-0.4c0-0.2,0.5-0.7,1.1-1c0.6-0.3,1.2-0.4,1.4-0.2C281.2,222.4,281,222.8,280.7,223.2z M266.7,222.5
		c0.2,0.2,1,0.4,1.8,0.4c0.8,0.1,1.5,0.3,1.6,0.5c0.1,0.2-0.4,0.6-1.1,0.9c-0.7,0.3-1.7,0.7-2.4,1c-0.6,0.3-2,0.5-3.1,0.5
		c-1,0-2.6-0.3-3.4-0.6c-0.8-0.3-1.6-0.7-1.7-0.9c-0.1-0.2,0.4-0.4,1.1-0.5c0.7-0.1,1.4-0.4,1.6-0.6c0.2-0.2,0.8-0.4,1.4-0.4
		c0.6,0,1.2-0.1,1.5-0.3c0.3-0.2,0.9-0.3,1.3-0.3C266,222.2,266.5,222.4,266.7,222.5z M114.8,223.4c0.5,0.3,1.3,0.5,1.7,0.5
		c0.4,0,1.3,0.2,2,0.5c0.7,0.3,1.6,0.5,2,0.5c0.4,0,1.1,0.2,1.5,0.3c0.6,0.3,0.6,0.7,0.6,5.8v5.5l-1.7,2.7c-1,1.5-1.9,2.7-2.1,2.7
		c-0.2,0-0.8-0.2-1.3-0.5c-0.5-0.3-1.5-0.7-2.1-1c-0.6-0.3-1.7-0.7-2.4-1l-1.2-0.5v-8v-8h1.1C113.4,222.9,114.3,223.1,114.8,223.4z
		 M246.2,223.4c0.2,0.3,1.1,0.5,1.9,0.6c0.8,0.1,1.6,0.3,1.6,0.5c0.1,0.2-0.4,0.6-1.1,0.9c-0.7,0.3-1.5,0.6-1.9,0.6
		c-0.4,0-1,0.2-1.4,0.5c-0.4,0.3-1,0.5-1.5,0.5c-0.5,0-1.1,0.2-1.5,0.5c-0.4,0.3-1.2,0.5-1.8,0.5c-0.7,0-1.6-0.2-2-0.5
		c-0.5-0.3-1.3-0.5-1.9-0.5c-0.6,0-1.2-0.2-1.3-0.3c-0.1-0.2,0.3-0.6,0.9-1c0.6-0.4,1.6-0.7,2.1-0.7c0.6,0,1.3-0.2,1.7-0.5
		c0.4-0.3,1.2-0.5,1.8-0.5c0.6,0,1.5-0.2,2-0.5c0.5-0.3,1.1-0.5,1.4-0.5C245.5,222.9,246,223.1,246.2,223.4z M278.3,225.3
		c0.4,0.2,0.8,0.5,1,0.7c0.1,0.2,0.1,0.5-0.1,0.8c-0.2,0.2-1.1,0.8-2,1.3c-1.1,0.5-2.2,0.8-3.2,0.8c-0.9,0-1.9-0.2-2.4-0.5
		c-0.5-0.3-1.4-0.5-2-0.5c-0.6,0-1.4-0.2-1.6-0.3c-0.4-0.2-0.1-0.5,1-1c0.8-0.4,2-0.9,2.6-1.2c0.7-0.3,2.1-0.5,3.6-0.5
		C276.4,224.9,277.9,225,278.3,225.3z M257.4,226.3c0.4,0.3,1.2,0.5,1.8,0.6c0.6,0.1,1.2,0.3,1.3,0.5c0.1,0.3-0.2,0.4-0.6,0.4
		c-0.4,0-1.1,0.2-1.4,0.5c-0.4,0.3-0.9,0.5-1.3,0.5s-1,0.2-1.5,0.5c-0.5,0.3-1.5,0.7-2.1,1c-0.7,0.3-2,0.5-2.8,0.5s-1.9-0.2-2.2-0.5
		c-0.4-0.3-1.1-0.5-1.7-0.5c-0.6,0-1.2-0.2-1.4-0.4c-0.2-0.2-0.4-0.6-0.4-0.8c0-0.2,0.8-0.6,1.8-0.8c1-0.2,1.9-0.5,2-0.7
		c0.1-0.2,0.6-0.3,1.1-0.3c0.5,0,1.3-0.2,1.7-0.5c0.5-0.3,1.8-0.5,3-0.5C255.9,225.9,257,226.1,257.4,226.3z M126.8,226.7
		c1,0.3,1.7,0.7,1.8,0.9c0.1,0.3-0.1,0.7-0.4,1c-0.3,0.3-0.5,0.7-0.5,0.8s-0.1,0.4-0.3,0.4s-0.7,0.7-1.2,1.4s-1.1,1.2-1.2,1.2
		c-0.2,0-0.3-1.3-0.3-2.9c0-1.6,0.1-3,0.2-3.2c0.1-0.1,0.2-0.2,0.3-0.2S125.9,226.4,126.8,226.7z M232.4,227.4
		c0.4,0.3,1,0.5,1.5,0.5c0.5,0,1.1,0.1,1.4,0.2c0.3,0.1,0.5,0.5,0.5,0.8c0,0.3-0.2,0.7-0.5,0.8c-0.3,0.1-0.9,0.2-1.5,0.2
		c-0.5,0-1.1,0.2-1.3,0.5c-0.2,0.3-0.9,0.5-1.5,0.6c-0.6,0.1-2.2,0.6-3.6,1c-1.6,0.6-3.2,0.9-4.5,0.9c-1.1,0-2.4-0.2-2.8-0.5
		c-0.5-0.3-1.2-0.5-1.5-0.5c-0.4,0-0.9-0.2-1.1-0.5c-0.3-0.4-0.3-0.6,0.1-1c0.3-0.3,1.1-0.5,1.8-0.5c0.7,0,1.5-0.2,1.9-0.5
		c0.4-0.3,1.2-0.5,1.8-0.5c0.7,0,1.5-0.2,1.8-0.5c0.4-0.3,1-0.5,1.5-0.5c0.5,0,1.4-0.2,2-0.5c0.6-0.3,1.6-0.5,2.1-0.5
		C231.3,226.9,232,227.1,232.4,227.4z M268.2,229.4c0.5,0.3,1.2,0.5,1.7,0.5c0.5,0,1,0.1,1.1,0.3s-0.9,0.8-2.2,1.5
		c-1.3,0.6-3.1,1.4-3.9,1.8c-1,0.4-2.2,0.6-3.5,0.6c-1.1,0-2.5-0.3-3.1-0.6c-0.6-0.3-1.4-0.5-1.8-0.5c-0.4,0-1-0.2-1.3-0.3
		c-0.4-0.3-0.4-0.4,0.3-1c0.4-0.4,1.1-0.7,1.5-0.7c0.4,0,1-0.2,1.4-0.5c0.4-0.3,0.9-0.5,1.3-0.5c0.4,0,1-0.2,1.3-0.5
		c0.5-0.3,1.5-0.5,3.5-0.5C266.3,228.9,267.6,229.1,268.2,229.4z M242.4,230.3c0.4,0.3,1.1,0.5,1.7,0.6c0.6,0.1,1.6,0.4,2.2,0.6
		c0.7,0.2,1.2,0.6,1.2,0.9c0,0.2-0.4,0.4-0.9,0.4c-0.5,0-1.3,0.2-1.7,0.5c-0.5,0.3-1.2,0.5-1.6,0.5c-0.4,0-0.7,0.2-0.7,0.3
		c0,0.2-0.7,0.5-1.5,0.7c-0.8,0.2-1.6,0.5-1.7,0.7c-0.1,0.2-0.5,0.3-0.8,0.3c-0.3,0-1,0.2-1.6,0.5c-0.5,0.3-1.8,0.5-2.8,0.5
		c-1,0-2.3-0.2-2.8-0.5c-0.5-0.3-1.3-0.5-1.6-0.5c-0.4,0-1-0.2-1.3-0.5c-0.4-0.3-0.9-0.5-1.2-0.5c-0.3,0-0.6-0.2-0.6-0.5
		c0-0.3,0.3-0.5,0.9-0.5c0.5,0,1.2-0.2,1.6-0.5c0.4-0.3,1-0.5,1.5-0.5c0.5,0,1.3-0.2,1.8-0.5c0.5-0.3,1.3-0.5,1.8-0.5
		c0.5,0,1.2-0.2,1.5-0.5c0.4-0.3,1-0.5,1.5-0.5c0.5,0,1.1-0.2,1.5-0.5c0.4-0.3,1.2-0.5,1.8-0.5S242,230.1,242.4,230.3z M276.1,231.8
		c0.3,0.2,0.2,0.7-0.7,2.3c-0.7,1.1-1.2,2.1-1.2,2.2c0,0.1-0.3,0.5-0.6,0.9c-0.3,0.4-0.7,0.7-1,0.7c-0.2,0-0.8-0.2-1.3-0.5
		c-0.5-0.3-1.3-0.5-1.8-0.5c-0.5,0-1.1-0.2-1.5-0.5c-0.4-0.3-1.1-0.5-1.6-0.5c-0.6,0-0.9-0.2-0.9-0.5c0-0.3,0.1-0.5,0.3-0.5
		c0.2,0,1.3-0.5,2.6-1c1.2-0.6,2.5-1.2,2.9-1.4c0.4-0.2,1.1-0.5,1.7-0.6c0.5-0.1,1.4-0.3,1.8-0.3
		C275.3,231.6,275.9,231.7,276.1,231.8z M218.1,233.6c0.8,0.4,1.4,0.8,1.4,1c0,0.2-0.6,0.3-1.3,0.3c-0.7,0-1.5,0.2-1.7,0.5
		c-0.2,0.3-0.8,0.5-1.2,0.5c-0.7,0-0.8-0.1-0.8-1.7v-1.7l1.1,0.2C216.2,232.9,217.4,233.2,218.1,233.6z M253.5,233.9
		c0.6,0.2,1.8,0.5,2.7,0.7c0.8,0.2,1.7,0.4,1.9,0.5s0.4,0.3,0.4,0.6c0,0.3-0.8,0.9-1.9,1.4c-1.1,0.5-2.3,1.1-2.9,1.3
		c-0.5,0.3-1.1,0.5-1.4,0.5c-0.2,0-0.6,0.2-0.8,0.5c-0.2,0.3-0.6,0.5-0.9,0.5c-0.3,0-1.3,0.4-2.3,0.9c-1.7,0.8-1.9,0.8-3.4,0.5
		c-0.8-0.2-2-0.6-2.5-0.8c-0.6-0.2-1.5-0.6-2.2-0.8c-0.6-0.2-1.5-0.5-1.9-0.6c-0.4-0.1-0.7-0.4-0.7-0.6c0-0.2,0.3-0.5,0.7-0.6
		c0.4-0.1,1.3-0.4,1.9-0.6c0.6-0.2,1.6-0.6,2.2-0.8c0.6-0.2,1.7-0.7,2.5-1c0.8-0.3,2-0.8,2.7-1c0.6-0.2,1.6-0.6,2.2-0.8
		c0.6-0.2,1.4-0.3,1.8-0.2C252,233.5,252.9,233.7,253.5,233.9z M225.7,236.4c0.4,0.3,1,0.5,1.4,0.5c0.4,0,1.2,0.2,1.7,0.5
		c0.5,0.3,1.2,0.6,1.5,0.7c0.3,0.1,0.6,0.3,0.6,0.5c0,0.2-0.3,0.3-0.8,0.3c-0.4,0-1.1,0.2-1.4,0.5s-1,0.5-1.4,0.5
		c-0.4,0-0.8,0.2-0.9,0.3c-0.1,0.2-0.7,0.5-1.3,0.6s-1.7,0.6-2.6,0.9c-0.8,0.3-1.8,0.7-2.2,0.8c-0.4,0.2-1.2,0.5-1.9,0.8
		c-0.7,0.3-1.5,0.5-1.8,0.5c-0.3,0-0.9,0.2-1.3,0.5l-0.8,0.5v-3.5c0-3.2,0.1-3.5,0.6-3.5c0.3,0,0.9-0.2,1.2-0.5
		c0.4-0.3,1-0.5,1.5-0.5c0.5,0,1.2-0.2,1.7-0.5c0.5-0.3,1.8-0.5,3.2-0.5C224.2,235.9,225.3,236.1,225.7,236.4z M265.1,237.4
		c0.5,0.3,1.3,0.5,1.6,0.5c0.4,0,1,0.2,1.4,0.5c0.4,0.3,1.3,0.5,2,0.6c0.9,0.1,1.3,0.3,1.3,0.6c0,0.3-0.8,0.9-1.8,1.4
		c-1,0.5-1.9,1.1-2,1.2c-0.1,0.2-1,0.7-2,1.2c-1,0.5-2.5,1.3-3.3,1.7c-1,0.5-2.1,0.8-3.2,0.8c-0.9,0-2.1-0.2-2.7-0.5
		c-0.5-0.3-1.3-0.5-1.6-0.5c-0.4,0-1-0.2-1.3-0.5c-0.4-0.3-0.9-0.5-1.3-0.5c-0.3,0-1.1-0.2-1.6-0.5c-0.5-0.3-1-0.7-1-1
		c0-0.3,0.3-0.5,0.8-0.5c0.4,0,1-0.2,1.2-0.5s0.7-0.5,1-0.5c0.3,0,0.8-0.2,1-0.5c0.2-0.3,0.6-0.5,0.9-0.5s1.5-0.5,2.7-1
		c1.2-0.6,2.6-1.2,3-1.5s1.5-0.5,2.4-0.5S264.5,237.1,265.1,237.4z M237.3,240.4c0.8,0.3,1.9,0.7,2.5,1c0.6,0.3,1.4,0.5,1.7,0.5
		s0.8,0.3,1,0.7c0.3,0.6,0.2,0.7-0.6,1c-0.5,0.2-1.4,0.6-1.9,0.8c-0.6,0.2-2.5,1.1-4.3,2c-1.8,0.8-3.4,1.5-3.6,1.5
		c-0.2,0-0.7,0.2-1.2,0.5c-0.5,0.3-1.9,0.9-3.1,1.5c-1.2,0.6-2.6,1-3.1,1s-1.4-0.2-2.1-0.5c-0.7-0.3-1.6-0.7-1.9-0.8
		c-0.4-0.1-1.3-0.6-2.2-0.9c-0.8-0.4-1.8-0.8-2.3-0.9c-0.5-0.2-0.7-0.4-0.7-0.9c0.1-0.4,0.4-0.8,0.8-0.8c0.4-0.1,1.1-0.3,1.7-0.5
		c0.5-0.2,1.5-0.7,2.2-0.9c0.6-0.3,1.7-0.6,2.2-0.7c0.6-0.1,1.2-0.4,1.3-0.5c0.1-0.2,0.5-0.3,0.9-0.3c0.4,0,1-0.2,1.4-0.5
		c0.4-0.3,1-0.5,1.3-0.5s1-0.2,1.3-0.5c0.4-0.3,1-0.5,1.4-0.5s1-0.2,1.4-0.5c0.4-0.3,1.4-0.5,2.6-0.5
		C235,239.9,236.5,240.1,237.3,240.4z M248.5,244.4c0.7,0.3,1.7,0.7,2.3,1c0.6,0.3,1.4,0.5,1.7,0.5s0.8,0.2,1,0.4
		c0.2,0.2,1,0.5,1.6,0.6c0.8,0.1,1.3,0.4,1.4,0.8c0.1,0.4-0.2,0.7-0.8,1c-0.5,0.2-1,0.5-1.1,0.6c-0.1,0.1-0.5,0.4-1,0.6
		s-1.4,0.7-2.2,1.1c-0.7,0.4-2.6,1.4-4.2,2.3c-1.6,0.8-3.7,2-4.7,2.6c-1.3,0.7-2.3,1-3.4,1c-0.8,0-1.8-0.2-2.2-0.5
		c-0.4-0.3-0.9-0.5-1.1-0.5c-0.3,0-1.4-0.5-2.5-1s-2.2-1-2.5-1c-0.3,0-0.8-0.2-1.1-0.5c-0.4-0.3-1-0.5-1.4-0.5s-0.8-0.2-0.8-0.4
		c0-0.2,0.6-0.7,1.2-1c0.7-0.3,2.3-1,3.6-1.6c1.3-0.6,2.8-1.2,3.3-1.5c0.5-0.2,1.7-0.7,2.5-1.1c0.8-0.4,2.3-1,3.4-1.5
		c1-0.5,2-0.9,2.2-0.9s0.5-0.2,0.8-0.5c0.2-0.3,0.9-0.5,1.6-0.5S247.8,244.1,248.5,244.4z M268,244.8c-0.4,0.3-1.3,1-2.1,1.5
		c-0.8,0.5-2.4,1.4-3.5,2c-1.1,0.6-2.4,1.3-2.8,1.6c-0.5,0.3-1.4,0.8-2.2,1.2c-0.7,0.4-2.2,1.2-3.2,1.8c-1,0.6-2.7,1.5-3.7,2
		c-1,0.6-2.9,1.6-4.2,2.3c-1.3,0.7-2.9,1.6-3.6,2s-1.4,0.8-1.5,0.8c-0.2,0-0.5,0.2-0.7,0.5c-0.3,0.3-0.7,0.5-1.1,0.4
		c-0.4-0.1-1.3-0.4-2-0.7s-2.2-0.8-3.2-1.2c-1-0.4-2.2-0.8-2.7-1c-0.5-0.2-1.7-0.6-2.7-1c-1-0.4-2.9-1.1-4.2-1.5
		c-1.3-0.4-3.2-1.1-4.2-1.5c-1-0.4-2.1-0.8-2.5-0.9c-0.4-0.1-1.3-0.5-2.1-0.8c-1.3-0.6-1.4-0.7-1.4-1.8c0-1,0.1-1.2,0.6-1
		c0.3,0.1,0.9,0.3,1.2,0.4c0.3,0.1,1.5,0.6,2.5,1.1s2.1,1,2.3,1c0.3,0,1.2,0.4,2.1,1c0.9,0.5,1.8,1,2.1,1c0.2,0,1.9,0.6,3.7,1.4
		c1.8,0.8,4.4,1.9,5.8,2.4c1.4,0.5,2.8,1.1,3.2,1.4c0.4,0.2,1,0.4,1.3,0.4c0.4,0,1.7-0.6,2.8-1.3c1.2-0.7,2.8-1.6,3.7-2
		c0.8-0.4,1.8-0.9,2.2-1.1c0.4-0.2,0.9-0.5,1.2-0.7c0.3-0.2,0.8-0.4,1.2-0.6c0.4-0.2,1.6-0.9,2.7-1.5c1.1-0.6,3.2-1.8,4.7-2.5
		c1.5-0.7,3.1-1.6,3.7-2c0.5-0.3,1.6-0.9,2.3-1.4c0.7-0.4,2-1.1,2.8-1.5c0.8-0.4,1.6-0.8,1.8-0.8C268.5,244.2,268.3,244.5,268,244.8
		z"/>
</g>
<g>
	
		<linearGradient id="SVGID_1_" gradientUnits="userSpaceOnUse" x1="177.9395" y1="356" x2="177.9395" y2="13.1484" gradientTransform="matrix(1 0 0 -1 0 358)">
		<stop  offset="0" style="stop-color:#FFE600"/>
		<stop  offset="1" style="stop-color:#D2A800"/>
	</linearGradient>
	<path shape-rendering="auto" fill-rule="evenodd" clip-rule="evenodd" fill="url(#SVGID_1_)" d="M164.2,2.4c-3.9,0.4-7.5,1-8.1,1.4
		c-0.6,0.4-3.4,5.8-6.4,12.1l-5.3,11.5l-5.1,1.2c-2.8,0.7-9,2.7-13.7,4.5c-4.7,1.8-10.4,4.2-12.6,5.3l-4,2.1L97.1,35
		c-8.9-4-12.3-5.1-13.6-4.4c-1,0.5-4.7,3-8.3,5.5c-3.6,2.5-10.3,8.2-15,12.6c-6.5,6.1-8.4,8.6-8.4,10.6c0,1.5,1.1,6.9,2.5,12.1
		s2.5,10.3,2.5,11.3c0,1-1.9,4.6-4.2,8c-2.3,3.4-6.5,10.6-9.3,16.1l-5.1,9.9l-12,3.4c-6.6,1.9-12.3,3.9-12.7,4.6
		c-0.4,0.7-1.2,2.8-1.8,4.7c-0.6,1.9-1.9,7.8-2.9,13c-1.1,5.2-2.2,12.9-2.5,17s-0.3,8,0.2,8.6c0.4,0.6,5.1,4.3,10.5,8.2l9.7,7.1
		l0.6,5.8c0.4,3.2,1.6,10.5,2.7,16.3c1.1,5.8,2.3,11.8,2.6,13.3c0.4,2.2-0.8,4.8-6.1,12.7c-3.6,5.5-6.6,10.9-6.6,12
		c0,1.1,1.3,5,3,8.6c1.6,3.6,5.2,10.3,8,14.8c2.8,4.5,6.3,9.7,7.8,11.5l2.8,3.3l12.5-0.9l12.5-0.9l4.5,4.1c2.5,2.2,4.9,4.4,8.3,7.1
		c6.6,5.6,2.5,2,9,7.5c4,3,0,0,4,3c3,2.3,3.7,2.7,4.1,5.2c0.3,1.8,1,7.5,1.5,12.7c0.7,6.8,1.5,9.9,2.8,11.2c1,1,6.2,3.6,11.6,5.8
		c5.4,2.2,13.7,5.1,18.4,6.5c4.7,1.4,9.1,2.1,9.8,1.7c0.7-0.4,5.1-4.3,9.9-8.6l8.6-7.9h18.9h18.9l8.7,7.9c4.8,4.3,9.3,8.2,10,8.6
		s5.3-0.4,10.1-1.8c4.8-1.4,13.2-4.4,18.5-6.6c5.4-2.2,10.5-4.9,11.4-5.9c1.1-1.3,2-5.5,2.9-14.1c1.2-11.7,1.4-12.4,4.1-14.3
		c1.6-1.1,6.5-4.9,10.9-8.5c4.4-3.5,9.9-8.1,12.1-10.1l4-3.7l11.9,0.9c6.5,0.5,12.5,0.7,13.2,0.4c0.7-0.3,3.7-4,6.6-8.3
		c2.9-4.3,7.4-12,10.1-17.2c2.6-5.2,4.8-10.5,4.8-11.8c0-1.3-3-6.8-6.6-12.3c-5.3-7.9-6.5-10.5-6.1-12.7c0.3-1.5,1.4-7.3,2.5-12.8
		c1.1-5.5,2.3-12.9,2.7-16.5l0.7-6.5l6.5-4.5c3.6-2.4,8.3-6,10.5-7.9l4-3.5l-0.7-7.6c-0.4-4.2-1.3-11.1-2.1-15.4
		c-0.8-4.3-2.3-10.6-3.4-14.1l-2-6.3l-12.3-3.5l-12.3-3.5l-5.2-10.2c-2.9-5.6-7.1-13-9.4-16.3c-4.1-6-4.1-6.2-3.1-11.2
		c0.6-2.8,1.9-8.8,2.9-13.4l1.8-8.3l-14-13.7c-8.3-8.1-15.7-14.4-18.1-15.5l-4.1-1.9l-4.3,3.4c-2.4,1.8-6.1,4.9-8.2,6.7
		c-3.3,2.9-4.4,3.3-7.5,2.8c-2-0.3-8.8-2.6-15.1-5c-6.3-2.4-13.8-4.9-16.6-5.6l-5.1-1.2l-5.6-11.8c-3.4-7.3-6.2-12-7.4-12.4
		c-1-0.3-7.4-0.7-14.3-1C176.8,1.9,168,2,164.2,2.4z M190.7,62.6c4.7,0.6,12.1,2,16.5,3.1c4.4,1.1,13.8,4.9,21,8.4
		c8.5,4.2,15.9,8.7,21.3,13.1c4.6,3.7,11,9.8,14.4,13.8c3.4,3.9,8.2,10.3,10.7,14.1c2.5,3.9,6.3,11.1,8.4,15.9
		c2.1,4.9,5,13.7,6.5,19.5c2.3,9.2,2.6,12.6,2.6,26.1c0,10.7-0.5,17.8-1.7,22.8c-0.9,4-2.8,10.8-4.2,15c-1.4,4.2-4.5,11.4-6.9,15.9
		s-6.9,11.6-10,15.7c-3.1,4.1-8.9,10.5-12.9,14.3c-4,3.8-10.5,9-14.5,11.6c-3.9,2.6-10.9,6.5-15.4,8.7c-4.5,2.1-12.2,5-17.1,6.4
		c-4.9,1.4-14,3.1-20.3,3.8c-8.7,0.9-14,0.9-22.2,0c-5.9-0.6-14.3-2.1-18.5-3.2c-4.3-1.1-11.7-3.8-16.5-5.8
		c-4.8-2.1-11.9-5.8-15.8-8.3c-3.9-2.5-10.2-7.3-14.1-10.7c-3.9-3.4-10-9.8-13.6-14.2c-3.6-4.5-9-12.9-12-18.8
		c-3-5.9-6.4-13.6-7.6-17.2c-1.1-3.6-2.6-8.8-3.2-11.5c-0.6-2.8-1.5-9.4-1.9-14.8c-0.5-5.8-0.5-14,0.1-20c0.5-5.6,2.1-14.5,3.4-19.7
		c1.4-5.2,4.7-14,7.4-19.6c2.7-5.5,7.6-13.7,10.9-18.2c3.3-4.4,8.4-10.5,11.4-13.5c3-3,8.1-7.4,11.3-9.9c3.3-2.5,8.6-6.1,11.9-8.1
		c3.3-2,9.3-5,13.4-6.7c4-1.7,10.1-3.8,13.5-4.7c3.4-0.9,9.7-2.2,14.1-2.9c4.4-0.7,10.9-1.3,14.5-1.4C179.3,61.5,186,62,190.7,62.6z
		"/>
	<defs>
		<filter id="Adobe_OpacityMaskFilter" filterUnits="userSpaceOnUse" x="4" y="0" width="348" height="346.9">
			<feColorMatrix  type="matrix" values="1 0 0 0 0  0 1 0 0 0  0 0 1 0 0  0 0 0 1 0"/>
		</filter>
	</defs>
	<mask maskUnits="userSpaceOnUse" x="4" y="0" width="348" height="346.9" id="path-6-outside-1_0_1_1_">
		<rect x="4" shape-rendering="auto" fill="#FFFFFF" filter="url(#Adobe_OpacityMaskFilter)" width="348" height="347"/>
		<path shape-rendering="auto" fill-rule="evenodd" clip-rule="evenodd" d="M164.2,2.4c-3.9,0.4-7.5,1-8.1,1.4
			c-0.6,0.4-3.4,5.8-6.4,12.1l-5.3,11.5l-5.1,1.2c-2.8,0.7-9,2.7-13.7,4.5c-4.7,1.8-10.4,4.2-12.6,5.3l-4,2.1L97.1,35
			c-8.9-4-12.3-5.1-13.6-4.4c-1,0.5-4.7,3-8.3,5.5c-3.6,2.5-10.3,8.2-15,12.6c-6.5,6.1-8.4,8.6-8.4,10.6c0,1.5,1.1,6.9,2.5,12.1
			s2.5,10.3,2.5,11.3c0,1-1.9,4.6-4.2,8c-2.3,3.4-6.5,10.6-9.3,16.1l-5.1,9.9l-12,3.4c-6.6,1.9-12.3,3.9-12.7,4.6
			c-0.4,0.7-1.2,2.8-1.8,4.7c-0.6,1.9-1.9,7.8-2.9,13c-1.1,5.2-2.2,12.9-2.5,17s-0.3,8,0.2,8.6c0.4,0.6,5.1,4.3,10.5,8.2l9.7,7.1
			l0.6,5.8c0.4,3.2,1.6,10.5,2.7,16.3c1.1,5.8,2.3,11.8,2.6,13.3c0.4,2.2-0.8,4.8-6.1,12.7c-3.6,5.5-6.6,10.9-6.6,12
			c0,1.1,1.3,5,3,8.6c1.6,3.6,5.2,10.3,8,14.8c2.8,4.5,6.3,9.7,7.8,11.5l2.8,3.3l12.5-0.9l12.5-0.9l4.5,4.1c2.5,2.2,4.9,4.4,8.3,7.1
			c6.6,5.6,2.5,2,9,7.5c4,3,0,0,4,3c3,2.3,3.7,2.7,4.1,5.2c0.3,1.8,1,7.5,1.5,12.7c0.7,6.8,1.5,9.9,2.8,11.2c1,1,6.2,3.6,11.6,5.8
			c5.4,2.2,13.7,5.1,18.4,6.5c4.7,1.4,9.1,2.1,9.8,1.7c0.7-0.4,5.1-4.3,9.9-8.6l8.6-7.9h18.9h18.9l8.7,7.9c4.8,4.3,9.3,8.2,10,8.6
			s5.3-0.4,10.1-1.8c4.8-1.4,13.2-4.4,18.5-6.6c5.4-2.2,10.5-4.9,11.4-5.9c1.1-1.3,2-5.5,2.9-14.1c1.2-11.7,1.4-12.4,4.1-14.3
			c1.6-1.1,6.5-4.9,10.9-8.5c4.4-3.5,9.9-8.1,12.1-10.1l4-3.7l11.9,0.9c6.5,0.5,12.5,0.7,13.2,0.4c0.7-0.3,3.7-4,6.6-8.3
			c2.9-4.3,7.4-12,10.1-17.2c2.6-5.2,4.8-10.5,4.8-11.8c0-1.3-3-6.8-6.6-12.3c-5.3-7.9-6.5-10.5-6.1-12.7c0.3-1.5,1.4-7.3,2.5-12.8
			c1.1-5.5,2.3-12.9,2.7-16.5l0.7-6.5l6.5-4.5c3.6-2.4,8.3-6,10.5-7.9l4-3.5l-0.7-7.6c-0.4-4.2-1.3-11.1-2.1-15.4
			c-0.8-4.3-2.3-10.6-3.4-14.1l-2-6.3l-12.3-3.5l-12.3-3.5l-5.2-10.2c-2.9-5.6-7.1-13-9.4-16.3c-4.1-6-4.1-6.2-3.1-11.2
			c0.6-2.8,1.9-8.8,2.9-13.4l1.8-8.3l-14-13.7c-8.3-8.1-15.7-14.4-18.1-15.5l-4.1-1.9l-4.3,3.4c-2.4,1.8-6.1,4.9-8.2,6.7
			c-3.3,2.9-4.4,3.3-7.5,2.8c-2-0.3-8.8-2.6-15.1-5c-6.3-2.4-13.8-4.9-16.6-5.6l-5.1-1.2l-5.6-11.8c-3.4-7.3-6.2-12-7.4-12.4
			c-1-0.3-7.4-0.7-14.3-1C176.8,1.9,168,2,164.2,2.4z M190.7,62.6c4.7,0.6,12.1,2,16.5,3.1c4.4,1.1,13.8,4.9,21,8.4
			c8.5,4.2,15.9,8.7,21.3,13.1c4.6,3.7,11,9.8,14.4,13.8c3.4,3.9,8.2,10.3,10.7,14.1c2.5,3.9,6.3,11.1,8.4,15.9
			c2.1,4.9,5,13.7,6.5,19.5c2.3,9.2,2.6,12.6,2.6,26.1c0,10.7-0.5,17.8-1.7,22.8c-0.9,4-2.8,10.8-4.2,15c-1.4,4.2-4.5,11.4-6.9,15.9
			s-6.9,11.6-10,15.7c-3.1,4.1-8.9,10.5-12.9,14.3c-4,3.8-10.5,9-14.5,11.6c-3.9,2.6-10.9,6.5-15.4,8.7c-4.5,2.1-12.2,5-17.1,6.4
			c-4.9,1.4-14,3.1-20.3,3.8c-8.7,0.9-14,0.9-22.2,0c-5.9-0.6-14.3-2.1-18.5-3.2c-4.3-1.1-11.7-3.8-16.5-5.8
			c-4.8-2.1-11.9-5.8-15.8-8.3c-3.9-2.5-10.2-7.3-14.1-10.7c-3.9-3.4-10-9.8-13.6-14.2c-3.6-4.5-9-12.9-12-18.8
			c-3-5.9-6.4-13.6-7.6-17.2c-1.1-3.6-2.6-8.8-3.2-11.5c-0.6-2.8-1.5-9.4-1.9-14.8c-0.5-5.8-0.5-14,0.1-20
			c0.5-5.6,2.1-14.5,3.4-19.7c1.4-5.2,4.7-14,7.4-19.6c2.7-5.5,7.6-13.7,10.9-18.2c3.3-4.4,8.4-10.5,11.4-13.5c3-3,8.1-7.4,11.3-9.9
			c3.3-2.5,8.6-6.1,11.9-8.1c3.3-2,9.3-5,13.4-6.7c4-1.7,10.1-3.8,13.5-4.7c3.4-0.9,9.7-2.2,14.1-2.9c4.4-0.7,10.9-1.3,14.5-1.4
			C179.3,61.5,186,62,190.7,62.6z"/>
	</mask>
	<path shape-rendering="auto" mask="url(#path-6-outside-1_0_1_1_)" fill="none" stroke="#000000" stroke-width="4" d="M164.2,2.4
		c-3.9,0.4-7.5,1-8.1,1.4c-0.6,0.4-3.4,5.8-6.4,12.1l-5.3,11.5l-5.1,1.2c-2.8,0.7-9,2.7-13.7,4.5c-4.7,1.8-10.4,4.2-12.6,5.3l-4,2.1
		L97.1,35c-8.9-4-12.3-5.1-13.6-4.4c-1,0.5-4.7,3-8.3,5.5c-3.6,2.5-10.3,8.2-15,12.6c-6.5,6.1-8.4,8.6-8.4,10.6
		c0,1.5,1.1,6.9,2.5,12.1s2.5,10.3,2.5,11.3c0,1-1.9,4.6-4.2,8c-2.3,3.4-6.5,10.6-9.3,16.1l-5.1,9.9l-12,3.4
		c-6.6,1.9-12.3,3.9-12.7,4.6c-0.4,0.7-1.2,2.8-1.8,4.7c-0.6,1.9-1.9,7.8-2.9,13c-1.1,5.2-2.2,12.9-2.5,17s-0.3,8,0.2,8.6
		c0.4,0.6,5.1,4.3,10.5,8.2l9.7,7.1l0.6,5.8c0.4,3.2,1.6,10.5,2.7,16.3c1.1,5.8,2.3,11.8,2.6,13.3c0.4,2.2-0.8,4.8-6.1,12.7
		c-3.6,5.5-6.6,10.9-6.6,12c0,1.1,1.3,5,3,8.6c1.6,3.6,5.2,10.3,8,14.8c2.8,4.5,6.3,9.7,7.8,11.5l2.8,3.3l12.5-0.9l12.5-0.9l4.5,4.1
		c2.5,2.2,4.9,4.4,8.3,7.1c6.6,5.6,2.5,2,9,7.5c4,3,0,0,4,3c3,2.3,3.7,2.7,4.1,5.2c0.3,1.8,1,7.5,1.5,12.7c0.7,6.8,1.5,9.9,2.8,11.2
		c1,1,6.2,3.6,11.6,5.8c5.4,2.2,13.7,5.1,18.4,6.5c4.7,1.4,9.1,2.1,9.8,1.7c0.7-0.4,5.1-4.3,9.9-8.6l8.6-7.9h18.9h18.9l8.7,7.9
		c4.8,4.3,9.3,8.2,10,8.6s5.3-0.4,10.1-1.8c4.8-1.4,13.2-4.4,18.5-6.6c5.4-2.2,10.5-4.9,11.4-5.9c1.1-1.3,2-5.5,2.9-14.1
		c1.2-11.7,1.4-12.4,4.1-14.3c1.6-1.1,6.5-4.9,10.9-8.5c4.4-3.5,9.9-8.1,12.1-10.1l4-3.7l11.9,0.9c6.5,0.5,12.5,0.7,13.2,0.4
		c0.7-0.3,3.7-4,6.6-8.3c2.9-4.3,7.4-12,10.1-17.2c2.6-5.2,4.8-10.5,4.8-11.8c0-1.3-3-6.8-6.6-12.3c-5.3-7.9-6.5-10.5-6.1-12.7
		c0.3-1.5,1.4-7.3,2.5-12.8c1.1-5.5,2.3-12.9,2.7-16.5l0.7-6.5l6.5-4.5c3.6-2.4,8.3-6,10.5-7.9l4-3.5l-0.7-7.6
		c-0.4-4.2-1.3-11.1-2.1-15.4c-0.8-4.3-2.3-10.6-3.4-14.1l-2-6.3l-12.3-3.5l-12.3-3.5l-5.2-10.2c-2.9-5.6-7.1-13-9.4-16.3
		c-4.1-6-4.1-6.2-3.1-11.2c0.6-2.8,1.9-8.8,2.9-13.4l1.8-8.3l-14-13.7c-8.3-8.1-15.7-14.4-18.1-15.5l-4.1-1.9l-4.3,3.4
		c-2.4,1.8-6.1,4.9-8.2,6.7c-3.3,2.9-4.4,3.3-7.5,2.8c-2-0.3-8.8-2.6-15.1-5c-6.3-2.4-13.8-4.9-16.6-5.6l-5.1-1.2l-5.6-11.8
		c-3.4-7.3-6.2-12-7.4-12.4c-1-0.3-7.4-0.7-14.3-1C176.8,1.9,168,2,164.2,2.4z M190.7,62.6c4.7,0.6,12.1,2,16.5,3.1
		c4.4,1.1,13.8,4.9,21,8.4c8.5,4.2,15.9,8.7,21.3,13.1c4.6,3.7,11,9.8,14.4,13.8c3.4,3.9,8.2,10.3,10.7,14.1
		c2.5,3.9,6.3,11.1,8.4,15.9c2.1,4.9,5,13.7,6.5,19.5c2.3,9.2,2.6,12.6,2.6,26.1c0,10.7-0.5,17.8-1.7,22.8c-0.9,4-2.8,10.8-4.2,15
		c-1.4,4.2-4.5,11.4-6.9,15.9s-6.9,11.6-10,15.7c-3.1,4.1-8.9,10.5-12.9,14.3c-4,3.8-10.5,9-14.5,11.6c-3.9,2.6-10.9,6.5-15.4,8.7
		c-4.5,2.1-12.2,5-17.1,6.4c-4.9,1.4-14,3.1-20.3,3.8c-8.7,0.9-14,0.9-22.2,0c-5.9-0.6-14.3-2.1-18.5-3.2
		c-4.3-1.1-11.7-3.8-16.5-5.8c-4.8-2.1-11.9-5.8-15.8-8.3c-3.9-2.5-10.2-7.3-14.1-10.7c-3.9-3.4-10-9.8-13.6-14.2
		c-3.6-4.5-9-12.9-12-18.8c-3-5.9-6.4-13.6-7.6-17.2c-1.1-3.6-2.6-8.8-3.2-11.5c-0.6-2.8-1.5-9.4-1.9-14.8c-0.5-5.8-0.5-14,0.1-20
		c0.5-5.6,2.1-14.5,3.4-19.7c1.4-5.2,4.7-14,7.4-19.6c2.7-5.5,7.6-13.7,10.9-18.2c3.3-4.4,8.4-10.5,11.4-13.5c3-3,8.1-7.4,11.3-9.9
		c3.3-2.5,8.6-6.1,11.9-8.1c3.3-2,9.3-5,13.4-6.7c4-1.7,10.1-3.8,13.5-4.7c3.4-0.9,9.7-2.2,14.1-2.9c4.4-0.7,10.9-1.3,14.5-1.4
		C179.3,61.5,186,62,190.7,62.6z"/>
</g>
<g>
	<path shape-rendering="auto" fill-rule="evenodd" clip-rule="evenodd" fill="#FFCC00" d="M153.7,21.2l-5.5,11.2l-14.5,5
		c-8,2.8-16.4,6-18.7,7.3c-2.3,1.2-5.1,2.2-6.2,2.2c-1.1,0-4.3-0.9-7.1-2c-2.8-1.1-7.4-3.6-10.2-5.5L86.4,36l-5.8,4.1
		c-3.2,2.2-9.5,7.1-14.1,10.7c-8,6.4-8.3,6.8-8.1,10.6c0.1,2.2,1.1,7.4,2.3,11.5c1.4,5,2,8.9,1.6,11.8c-0.3,2.4-1.8,6.2-3.4,8.5
		c-1.6,2.3-4.9,7.8-7.3,12.2c-2.5,4.4-5.1,9.1-5.9,10.5c-0.8,1.4-2.3,3.5-3.3,4.7c-1,1.2-4,2.9-6.5,3.6c-2.5,0.8-7.6,2.2-11.2,3.1
		l-6.6,1.7l-2.1,8.7c-1.2,4.8-2.6,12.5-3.2,17.1c-0.6,4.6-0.8,8.9-0.5,9.6c0.3,0.7,3.4,3.1,7,5.4c3.6,2.2,8.1,5.9,10,8
		c2,2.2,3.8,5,4,6.2c0.3,1.3,1.4,7.9,2.5,14.8c1.1,6.9,2.6,15,3.2,18.2c1.2,5.5,1.1,5.8-1.4,9.5c-1.5,2.1-4.7,6.4-7.2,9.6
		c-2.5,3.2-4.5,6.6-4.5,7.6c0,1,2,5.2,4.4,9.2c2.4,4.1,6.2,10.5,8.3,14.4l3.9,7l13.2-0.3c10.3-0.2,13.7,0,15.3,1.2
		c1.1,0.8,5.5,4.8,9.7,8.9c4.2,4.1,10.6,9.7,14.3,12.6c5.5,4.3,6.7,5.8,7.2,8.9c0.3,2.1,0.6,7.1,0.6,11.3c0,4.1,0.4,8.1,0.9,8.8
		c0.5,0.7,3.2,2.4,6.1,3.8c2.9,1.3,10.4,4.3,16.8,6.5l11.5,4.1l8.6-8.5l8.6-8.5l19-0.2c10.4-0.1,20.5-0.1,22.4,0
		c2.8,0.1,4.8,1.6,11.8,8.4l8.4,8.2l5.7-1.6c3.1-0.9,9.3-2.7,13.8-4s9.8-3.3,12-4.4c3.3-1.6,4-2.5,4.6-5.9c0.4-2.2,0.7-7.7,0.8-12.1
		c0-6.3,0.5-8.6,1.8-10.1c1-1.1,4.9-4.4,8.8-7.3s10.3-8.5,14.2-12.3l7.2-6.9l12.8,0.4c9.7,0.3,13.2,0,14.5-1c0.9-0.7,3.3-3.9,5.4-7
		c2.1-3.1,5.5-9.2,7.5-13.4c2.1-4.3,3.8-8.5,3.8-9.4c0-0.9-1.7-3.9-3.8-6.7c-2.1-2.8-5-7-6.5-9.3c-1.5-2.3-2.7-5.1-2.7-6.2
		s0.7-4.6,1.5-7.8c0.8-3.2,2-9.4,2.6-13.8c0.6-4.4,1.4-10.5,1.7-13.5c0.4-3,1-6,1.3-6.6c0.4-0.6,2.6-2.4,5-4
		c2.4-1.6,6.7-4.9,9.5-7.3c2.9-2.4,5.5-5.3,5.8-6.3c0.3-1-0.4-6.2-1.6-11.6c-1.2-5.3-2.9-12.4-3.8-15.6l-1.6-5.9l-11.1-3.2
		c-6.1-1.8-11.6-3.5-12.3-3.9c-0.6-0.4-2.5-3.5-4-6.9c-1.6-3.4-4.9-9.3-7.4-13.2c-2.5-3.8-5.5-8.2-6.7-9.8c-1.2-1.5-2.5-4-2.9-5.5
		c-0.4-1.5-0.2-5.7,0.5-9.2c0.7-3.6,2.1-9.1,3.2-12.3l2-5.8l-2.6-3.1c-1.4-1.7-7.9-6.6-14.5-10.9c-6.5-4.3-13-8.1-14.4-8.5
		c-1.7-0.4-3.3,0-5.2,1.5c-1.5,1.2-4.4,3.5-6.6,5.1c-2.1,1.6-4.8,3-5.9,3s-8.1-2.4-15.6-5.4c-7.5-3-15.4-5.7-17.6-6.1
		c-2.2-0.4-5.2-1.3-6.6-2c-1.8-0.9-4.3-4.7-8.1-12.1L196,10.4l-18.4-0.2L159.2,10L153.7,21.2z M213.1,61.3
		c7.6,2.5,16.5,5.9,19.6,7.5c3.1,1.6,9.3,5.6,13.8,9c4.4,3.4,11.7,10.1,16.1,14.9c4.4,4.8,10.4,12.1,13.2,16.1s7.3,12.2,9.9,18.1
		c2.7,5.9,5.9,14.6,7.1,19.2c1.7,6.6,2.3,12.2,2.7,26.1c0.4,15.5,0.2,19.1-1.8,29c-1.2,6.2-3.1,14-4.2,17.3c-1.1,3.3-3.4,8.7-5,11.9
		c-1.6,3.3-5.9,10.3-9.4,15.7c-4,6.1-8.8,11.8-12.5,15.1c-3.4,2.9-8.4,7.3-11.3,9.8c-3.4,3-10.7,7.3-20.9,12.2
		c-8.7,4.2-19.2,8.6-23.4,9.7c-5.7,1.5-12.3,2.2-25.2,2.6c-16.1,0.5-18.5,0.4-29.9-2c-10.4-2.1-14.4-3.5-23.9-8.3
		c-6.3-3.2-14.2-7.8-17.5-10.2c-3.3-2.4-10.2-8.5-15.4-13.5c-5.5-5.3-11.6-12.5-14.6-17.1c-2.9-4.4-6.4-10-7.8-12.5
		c-1.4-2.5-4-8.6-5.7-13.7c-1.7-5.1-4-12.9-5.1-17.5c-1.5-6.4-2-11.8-2-23.3c0-9,0.6-18,1.4-22.6c0.8-4.2,2.3-10.8,3.4-14.6
		c1.1-3.9,2.9-9,4-11.4c1.1-2.4,3.9-7.5,6.2-11.4s6.6-10.3,9.6-14.3c3-4,9.2-10.9,13.7-15.4c4.5-4.4,11.3-10.1,15.2-12.7
		c3.8-2.5,11.4-6.5,16.8-8.8c5.4-2.4,13-5.2,16.8-6.3c3.8-1.1,10.4-2.5,14.7-2.9c4.2-0.5,14.5-0.7,22.7-0.6
		C199,56.7,199.4,56.8,213.1,61.3z"/>
</g>
<g>
	<path shape-rendering="auto" fill-rule="evenodd" clip-rule="evenodd" fill="#AC0000" d="M248.9,25.3
		c-8.8,12.8-20.6,29.8-26.2,37.8s-13,18.2-16.4,22.6l-6.2,8l0.3,10.7c0.2,7-0.2,11.5-1,13c-0.7,1.3-4.4,6.1-8.3,10.8
		c-3.9,4.7-8.3,9.8-9.8,11.5c-1.5,1.6-8.8,10.5-16.1,19.7L151.7,176l1.5,7l1.5,7l-6.8,9.9c-3.8,5.4-9.1,13.2-11.9,17.3
		c-2.8,4.1-6,8.8-7.1,10.5c-1.1,1.7-4.7,7.1-8,12.1c-3.3,4.9-12.4,18.4-20.3,29.9c-7.9,11.5-17.2,25-20.6,30
		c-3.4,5-11.9,17.3-18.9,27.4C54,337.3,48.7,345.9,49,346.7c0.3,0.8,1.1,1.2,1.8,0.9c0.7-0.3,6.9-6.9,13.7-14.6
		c6.8-7.8,16.9-19.1,22.4-25.3c5.5-6.1,18.8-21,29.5-33c10.7-12,20.4-22.8,21.5-23.9c1.1-1.1,8.7-9.7,16.9-19
		c8.2-9.4,17.6-20,21-23.6c3.3-3.6,7.2-7.9,8.6-9.5c1.4-1.6,3.1-3.9,3.7-5.1c0.9-1.7,0.8-3.1-0.3-6.4c-0.8-2.3-1.5-4.9-1.5-5.7
		s1.9-3.6,4.2-6.1c2.3-2.5,9-9.8,14.9-16.1c5.9-6.3,13.5-14.7,17.1-18.7c3.5-4,9.4-10.6,13.2-14.6l6.8-7.4l-1.5-7.2
		c-0.8-4-1.5-8.2-1.5-9.4s1.9-4.7,4.3-7.8c2.3-3.1,11.8-15.2,21.1-27c9.3-11.8,17.9-22.5,19.3-23.9c1.3-1.4,5.2-6.1,8.7-10.5
		c3.5-4.4,9.3-12,13-16.9c3.7-4.9,6.6-9.4,6.4-10c-0.2-0.6-1.9-1.4-3.8-1.8s-12.4-1-23.4-1.4l-20-0.7L248.9,25.3z"/>
	<defs>
		<filter id="Adobe_OpacityMaskFilter_1_" filterUnits="userSpaceOnUse" x="47" y="0" width="267.1" height="349.7">
			<feColorMatrix  type="matrix" values="1 0 0 0 0  0 1 0 0 0  0 0 1 0 0  0 0 0 1 0"/>
		</filter>
	</defs>
	<mask maskUnits="userSpaceOnUse" x="47" y="0" width="267.1" height="349.7" id="path-8-inside-2_0_1_1_">
		
			<path shape-rendering="auto" fill-rule="evenodd" clip-rule="evenodd" fill="#FFFFFF" filter="url(#Adobe_OpacityMaskFilter_1_)" d="
			M248.9,25.3c-8.8,12.8-20.6,29.8-26.2,37.8s-13,18.2-16.4,22.6l-6.2,8l0.3,10.7c0.2,7-0.2,11.5-1,13c-0.7,1.3-4.4,6.1-8.3,10.8
			c-3.9,4.7-8.3,9.8-9.8,11.5c-1.5,1.6-8.8,10.5-16.1,19.7L151.7,176l1.5,7l1.5,7l-6.8,9.9c-3.8,5.4-9.1,13.2-11.9,17.3
			c-2.8,4.1-6,8.8-7.1,10.5c-1.1,1.7-4.7,7.1-8,12.1c-3.3,4.9-12.4,18.4-20.3,29.9c-7.9,11.5-17.2,25-20.6,30
			c-3.4,5-11.9,17.3-18.9,27.4C54,337.3,48.7,345.9,49,346.7c0.3,0.8,1.1,1.2,1.8,0.9c0.7-0.3,6.9-6.9,13.7-14.6
			c6.8-7.8,16.9-19.1,22.4-25.3c5.5-6.1,18.8-21,29.5-33c10.7-12,20.4-22.8,21.5-23.9c1.1-1.1,8.7-9.7,16.9-19
			c8.2-9.4,17.6-20,21-23.6c3.3-3.6,7.2-7.9,8.6-9.5c1.4-1.6,3.1-3.9,3.7-5.1c0.9-1.7,0.8-3.1-0.3-6.4c-0.8-2.3-1.5-4.9-1.5-5.7
			s1.9-3.6,4.2-6.1c2.3-2.5,9-9.8,14.9-16.1c5.9-6.3,13.5-14.7,17.1-18.7c3.5-4,9.4-10.6,13.2-14.6l6.8-7.4l-1.5-7.2
			c-0.8-4-1.5-8.2-1.5-9.4s1.9-4.7,4.3-7.8c2.3-3.1,11.8-15.2,21.1-27c9.3-11.8,17.9-22.5,19.3-23.9c1.3-1.4,5.2-6.1,8.7-10.5
			c3.5-4.4,9.3-12,13-16.9c3.7-4.9,6.6-9.4,6.4-10c-0.2-0.6-1.9-1.4-3.8-1.8s-12.4-1-23.4-1.4l-20-0.7L248.9,25.3z"/>
	</mask>
	<path shape-rendering="auto" mask="url(#path-8-inside-2_0_1_1_)" fill="none" stroke="#000000" stroke-width="4" d="M248.9,25.3
		c-8.8,12.8-20.6,29.8-26.2,37.8s-13,18.2-16.4,22.6l-6.2,8l0.3,10.7c0.2,7-0.2,11.5-1,13c-0.7,1.3-4.4,6.1-8.3,10.8
		c-3.9,4.7-8.3,9.8-9.8,11.5c-1.5,1.6-8.8,10.5-16.1,19.7L151.7,176l1.5,7l1.5,7l-6.8,9.9c-3.8,5.4-9.1,13.2-11.9,17.3
		c-2.8,4.1-6,8.8-7.1,10.5c-1.1,1.7-4.7,7.1-8,12.1c-3.3,4.9-12.4,18.4-20.3,29.9c-7.9,11.5-17.2,25-20.6,30
		c-3.4,5-11.9,17.3-18.9,27.4C54,337.3,48.7,345.9,49,346.7c0.3,0.8,1.1,1.2,1.8,0.9c0.7-0.3,6.9-6.9,13.7-14.6
		c6.8-7.8,16.9-19.1,22.4-25.3c5.5-6.1,18.8-21,29.5-33c10.7-12,20.4-22.8,21.5-23.9c1.1-1.1,8.7-9.7,16.9-19
		c8.2-9.4,17.6-20,21-23.6c3.3-3.6,7.2-7.9,8.6-9.5c1.4-1.6,3.1-3.9,3.7-5.1c0.9-1.7,0.8-3.1-0.3-6.4c-0.8-2.3-1.5-4.9-1.5-5.7
		s1.9-3.6,4.2-6.1c2.3-2.5,9-9.8,14.9-16.1c5.9-6.3,13.5-14.7,17.1-18.7c3.5-4,9.4-10.6,13.2-14.6l6.8-7.4l-1.5-7.2
		c-0.8-4-1.5-8.2-1.5-9.4s1.9-4.7,4.3-7.8c2.3-3.1,11.8-15.2,21.1-27c9.3-11.8,17.9-22.5,19.3-23.9c1.3-1.4,5.2-6.1,8.7-10.5
		c3.5-4.4,9.3-12,13-16.9c3.7-4.9,6.6-9.4,6.4-10c-0.2-0.6-1.9-1.4-3.8-1.8s-12.4-1-23.4-1.4l-20-0.7L248.9,25.3z"/>
</g>
<g>
	<path shape-rendering="auto" fill-rule="evenodd" clip-rule="evenodd" d="M209.5,40.8c-0.3,0.3-1,0.7-1.5,0.9
		c-0.5,0.2-1.2,0.4-1.6,0.4l-0.6,0.1l-0.3,1.2c-0.2,0.6-0.2,1.2-0.2,1.2c0,0,0.4,0,0.8-0.1c0.4,0,1.1-0.2,1.6-0.4l0.9-0.3l-0.8,3.5
		l-0.8,3.5l1.4,0.3l1.4,0.3l1.2-5.3l1.2-5.3l-1.2-0.3l-1.2-0.3L209.5,40.8z M199.8,38.5c-0.3,0.1-0.7,0.4-0.9,0.6
		c-0.2,0.2-0.4,0.6-0.5,0.9c-0.1,0.2,0,0.7,0.1,1c0.1,0.3,0.4,0.8,0.6,1c0.2,0.2,0.6,0.4,0.8,0.5c0.2,0.1,0.7,0,1,0
		c0.3-0.1,0.7-0.3,0.9-0.5c0.2-0.2,0.5-0.7,0.5-1.1c0.1-0.6,0.1-0.8-0.3-1.5c-0.4-0.6-0.6-0.8-1.1-0.9
		C200.7,38.4,200.2,38.4,199.8,38.5z M193.8,37.5c-0.7-0.1-1.4-0.1-1.5-0.1c-0.1,0-0.2,1.4-0.4,2.9l-0.3,2.9l-0.3-0.5
		c-0.1-0.2-0.9-1.5-1.6-2.9c-0.7-1.3-1.4-2.5-1.5-2.7c-0.1-0.2-0.5-0.3-1.6-0.3c-0.8-0.1-1.5-0.1-1.5-0.1c0,0-0.3,2.3-0.5,5.1
		c-0.3,2.8-0.5,5.2-0.4,5.3c0,0.1,0.4,0.2,1.5,0.3c0.8,0.1,1.5,0.1,1.5,0.1c0,0,0.2-1.3,0.3-2.8c0.1-1.5,0.3-2.8,0.3-2.8
		s0.8,1.3,1.7,3l1.7,3l1.4,0.1c0.8,0.1,1.5,0.1,1.5,0.1c0.1,0,0.3-2.4,0.6-5.2c0.3-2.8,0.5-5.2,0.4-5.2
		C195.2,37.7,194.6,37.6,193.8,37.5z M201.1,40c0.1,0.1,0.1,0.4,0.1,0.6c0,0.2-0.2,0.4-0.3,0.5c-0.1,0.1-0.4,0.1-0.5,0.1
		c-0.2,0-0.4-0.2-0.5-0.4c-0.1-0.2-0.2-0.4-0.1-0.5s0.2-0.3,0.4-0.4c0.2-0.1,0.4-0.2,0.6-0.1C200.8,39.7,201,39.9,201.1,40z
		 M172.3,39.6c-0.6,0-1.5,0-2.1,0.1c-0.5,0.1-1.2,0.2-1.5,0.4c-0.3,0.1-0.6,0.4-0.8,0.6c-0.2,0.2-0.4,0.6-0.6,0.9
		c-0.2,0.4-0.2,0.5,0.1,0.6c0.2,0,0.8,0.1,1.4,0.1c0.9,0,1.1,0,1.4-0.3c0.2-0.2,0.6-0.5,1-0.5c0.5-0.1,0.8-0.1,1,0.1
		c0.2,0.1,0.3,0.4,0.3,0.6c0,0.2-0.4,0.4-0.8,0.6c-0.4,0.1-1.3,0.4-1.8,0.5c-0.6,0.1-1.3,0.4-1.6,0.6c-0.3,0.2-0.7,0.5-0.8,0.7
		c-0.1,0.2-0.3,0.7-0.3,1c0,0.3,0.1,0.8,0.3,1.1c0.2,0.3,0.5,0.7,0.9,0.9c0.4,0.2,0.8,0.3,1.4,0.3c0.4,0,1.1-0.1,1.5-0.2
		c0.4-0.1,0.9-0.4,1.3-0.6l0.6-0.4l0.1,0.4c0.1,0.3,0.2,0.4,0.4,0.4c0.2,0,0.8,0,1.4-0.1l1.1,0l-0.2-0.6c-0.1-0.3-0.2-1.5-0.3-2.7
		c-0.1-1.2-0.2-2.4-0.3-2.7c-0.1-0.3-0.4-0.7-0.6-0.9c-0.2-0.2-0.6-0.4-0.8-0.5C173.6,39.7,172.9,39.6,172.3,39.6z M160.1,40.7
		c-0.6,0.1-1.4,0.3-1.7,0.4c-0.4,0.2-0.8,0.5-1.1,0.7c-0.2,0.2-0.6,0.6-0.7,0.9c-0.2,0.3-0.4,0.7-0.4,1c-0.1,0.3-0.1,0.9-0.1,1.4
		c0,0.5,0.3,1.3,0.5,1.8c0.3,0.6,0.7,1,1.3,1.3c0.7,0.4,1,0.5,1.8,0.5c0.6,0,1.4,0,1.9-0.1s1.2-0.3,1.6-0.5c0.4-0.2,0.8-0.6,1.1-0.9
		c0.2-0.3,0.5-0.9,0.6-1.2c0.1-0.4,0.1-0.6-0.1-0.6c-0.1,0-0.7,0-1.4,0c-1.1,0-1.2,0.1-1.4,0.6c-0.1,0.3-0.4,0.6-0.7,0.7
		s-0.7,0.1-1,0.1c-0.3-0.1-0.7-0.2-0.8-0.4c-0.1-0.1-0.3-0.6-0.4-0.9c-0.1-0.4-0.1-1,0-1.4c0.1-0.6,0.3-0.8,0.8-1
		c0.3-0.2,0.8-0.3,1-0.2c0.2,0.1,0.6,0.2,0.7,0.4c0.3,0.3,0.4,0.3,1.5,0c0.7-0.2,1.3-0.4,1.3-0.4c0-0.1-0.1-0.3-0.3-0.5
		c-0.2-0.2-0.5-0.6-0.7-0.8c-0.3-0.2-0.8-0.5-1.4-0.6C161.6,40.6,160.8,40.6,160.1,40.7z M150.9,39.4l-1.4,0.3l0.2,0.9
		c0.1,0.5,0.2,0.9,0.3,1c0,0,0.7-0.1,1.4-0.3c0.8-0.2,1.4-0.4,1.3-0.5c0-0.1-0.1-0.6-0.1-1c-0.1-0.4-0.2-0.8-0.2-0.8
		C152.4,39.1,151.7,39.2,150.9,39.4z M172.6,44.8c-0.1,0.6-0.3,0.8-0.8,1c-0.4,0.2-0.8,0.3-1.1,0.2c-0.3-0.1-0.5-0.2-0.6-0.4
		c0-0.2,0-0.4,0-0.6c0-0.2,0.5-0.4,1.2-0.7c0.6-0.2,1.2-0.4,1.2-0.3C172.7,44,172.7,44.4,172.6,44.8z M151.5,42.2
		c-0.7,0.2-1.3,0.4-1.3,0.4c0,0.1,0.3,1.7,0.6,3.7s0.8,3.6,0.9,3.6c0.1,0.1,0.7,0,1.4-0.2c0.7-0.1,1.2-0.3,1.2-0.4
		c0-0.1-0.3-1.8-0.7-3.8c-0.4-2-0.7-3.6-0.8-3.6C152.9,42,152.2,42.1,151.5,42.2z M144.5,43.7c-0.4,0.1-1,0.4-1.3,0.6
		c-0.3,0.2-0.6,0.6-0.7,0.8c-0.1,0.2-0.3,0.4-0.3,0.4c-0.1,0-0.2-0.2-0.2-0.5c0-0.3-0.1-0.4-0.2-0.4c-0.1,0-0.7,0.2-1.3,0.3
		c-0.6,0.2-1.2,0.3-1.2,0.3c0,0,0.3,1.5,0.8,3.4s0.9,3.5,1,3.7l0.1,0.4l1.2-0.3c0.7-0.2,1.3-0.4,1.4-0.4c0.1-0.1-0.1-1-0.4-2.2
		c-0.3-1.2-0.5-2.4-0.4-2.6c0.1-0.3,0.3-0.6,0.5-0.7c0.2-0.1,0.5-0.2,0.8-0.1c0.2,0.1,0.5,0.2,0.6,0.4c0.1,0.2,0.4,1.3,0.7,2.4
		c0.3,1.1,0.6,2.1,0.6,2.2c0,0,0.7-0.1,1.4-0.3c0.7-0.2,1.4-0.4,1.4-0.5c0,0-0.3-1.2-0.7-2.6c-0.4-1.4-0.9-2.9-1.1-3.2
		c-0.3-0.5-0.6-0.7-1.2-0.9C145.4,43.6,145,43.6,144.5,43.7z M133.7,47.1c-0.4,0.1-1.2,0.3-1.6,0.4c-0.4,0.2-1.1,0.5-1.4,0.7
		c-0.3,0.2-0.7,0.6-0.9,0.9c-0.2,0.3-0.5,0.9-0.6,1.3c-0.1,0.4-0.1,1.1,0,1.5c0.1,0.4,0.3,1.1,0.4,1.4s0.6,0.9,0.9,1.2
		c0.4,0.3,0.9,0.6,1.5,0.7c0.8,0.2,1.2,0.2,2.2-0.1c0.7-0.2,1.6-0.5,2.1-0.8c0.6-0.4,1-0.8,1.3-1.3c0.3-0.5,0.5-1.1,0.5-1.5
		c0-0.4,0-0.7,0-0.7c0,0-0.7,0.1-1.4,0.3c-1.3,0.3-1.3,0.3-1.5,0.9c-0.1,0.5-0.3,0.7-0.7,0.9c-0.4,0.2-0.7,0.3-1.1,0.2
		c-0.3-0.1-0.7-0.3-0.9-0.5c-0.2-0.2-0.4-0.7-0.5-1c-0.1-0.4-0.1-0.9,0-1.2c0.1-0.3,0.3-0.7,0.4-0.8c0.2-0.2,0.6-0.3,0.9-0.4
		c0.4-0.1,0.6,0,0.9,0.2c0.2,0.2,0.5,0.2,0.6,0.2c0.1,0,0.7-0.3,1.2-0.6c0.6-0.3,1-0.6,0.9-0.7c0-0.1-0.3-0.4-0.6-0.6
		c-0.3-0.3-0.9-0.5-1.2-0.6C134.8,47.1,134.1,47.1,133.7,47.1z M121.5,48.7l-1.1,0.5l-0.1,0.9c-0.1,0.5-0.1,1.1-0.1,1.2
		c0,0.3,0.1,0.3,0.6,0c0.5-0.3,0.7-0.5,1.2-1.7c0.3-0.8,0.6-1.4,0.5-1.4C122.6,48.2,122.1,48.4,121.5,48.7z M280.7,88.3
		c-1.5,1.3-2.9,2.4-3.1,2.5c-0.2,0.1-0.5,0.1-0.7,0.1c-0.2,0-0.4-0.2-0.5-0.4c-0.1-0.2-0.2-0.5-0.1-0.8c0.1-0.2,0.2-0.5,0.4-0.7
		c0.2-0.2,0.3-0.3,0.3-0.4c0,0-0.5-0.5-1.1-1c-0.6-0.5-1.1-0.9-1.2-1c-0.1,0-0.4,0.3-0.6,0.6c-0.4,0.5-0.5,0.9-0.7,1.6
		c-0.1,0.7-0.1,1.1,0.2,1.8c0.2,0.4,0.7,1.2,1.1,1.7c0.5,0.5,1.1,1,1.5,1.2c0.4,0.2,1,0.4,1.4,0.4c0.3,0,1-0.1,1.4-0.3
		c0.4-0.2,1.8-1.2,3.5-2.6c1.5-1.3,2.8-2.4,2.9-2.5c0.1-0.1-0.2-0.6-0.8-1.2c-0.5-0.6-1-1.1-1-1.2C283.5,86,282.4,86.8,280.7,88.3z
		 M123,51.4c-0.5,0.1-1.3,0.4-1.7,0.6c-0.4,0.2-1.1,0.7-1.4,1.1c-0.5,0.5-0.7,0.8-0.9,1.7c-0.2,0.7-0.2,1.3-0.1,1.6
		c0.1,0.3,0.3,0.9,0.5,1.3c0.2,0.4,0.6,0.9,0.9,1.2c0.4,0.3,0.9,0.6,1.5,0.7c0.7,0.2,1.2,0.2,1.7,0c0.4-0.1,1.2-0.4,1.7-0.7
		c0.5-0.3,1.3-0.8,1.6-1.1c0.3-0.4,0.7-1,0.9-1.5c0.2-0.5,0.2-0.9,0.1-0.9c-0.1,0-0.7,0.2-1.5,0.4c-1,0.4-1.3,0.6-1.4,0.8
		c-0.1,0.2-0.3,0.5-0.7,0.7c-0.3,0.2-0.8,0.3-1,0.2c-0.2-0.1-0.6-0.3-0.7-0.4c-0.2-0.2-0.2-0.4-0.2-0.5c0.1-0.1,1.2-0.6,2.5-1.2
		c1.3-0.6,2.5-1.1,2.6-1.2c0.1-0.1,0-0.5-0.4-1c-0.3-0.5-0.8-1.1-1.1-1.4c-0.3-0.2-0.9-0.5-1.4-0.6C124.2,51.2,123.6,51.2,123,51.4z
		 M124.1,53.9c0.2,0.3,0.2,0.4-1,0.9c-0.7,0.3-1.3,0.6-1.3,0.6c0,0-0.1-0.3-0.1-0.5c-0.1-0.4,0-0.6,0.2-1c0.2-0.2,0.5-0.5,0.8-0.6
		c0.3-0.1,0.6-0.1,0.8,0C123.7,53.5,124,53.7,124.1,53.9z M109.8,54.8c-2.3,1.3-4.2,2.4-4.2,2.5c0,0.1,0.2,0.6,0.6,1.2l0.6,1
		l1.4-0.8l1.4-0.8l0.3,0.5c0.2,0.3,0.9,1.7,1.7,3.1c0.8,1.4,1.5,2.8,1.7,3c0.2,0.4,0.2,0.4,1.6-0.4c0.8-0.4,1.4-0.8,1.4-0.9
		s-0.7-1.4-1.5-2.9c-0.9-1.5-1.7-3.1-1.9-3.4l-0.4-0.6l1.4-0.8l1.4-0.8l-0.6-1.1c-0.3-0.6-0.6-1.1-0.7-1.1
		C114.1,52.4,112.2,53.5,109.8,54.8z M283.3,94.6c-1.2,0.8-2.4,1.8-2.6,2.1c-0.4,0.4-0.5,0.8-0.6,1.2c0,0.4,0,0.9,0.1,1.1
		c0.1,0.3,0.5,0.8,0.8,1.1c0.4,0.5,0.7,0.7,1.4,0.8l0.9,0.2l-0.4,0.3c-0.2,0.1-0.4,0.3-0.4,0.4c0,0.1,0.3,0.6,0.7,1.1
		c0.4,0.5,0.8,1,0.8,1c0.1,0,1.5-0.9,3.1-2.1c1.6-1.2,3-2.2,3-2.3c0-0.1-0.3-0.7-0.7-1.3l-0.8-1.1l-1.5,1.1
		c-0.8,0.6-1.7,1.2-2.1,1.4c-0.3,0.2-0.8,0.3-1,0.2c-0.2-0.1-0.6-0.3-0.7-0.5c-0.1-0.2-0.2-0.5-0.2-0.7c0-0.2,0.4-0.5,0.7-0.8
		c0.4-0.3,1.3-0.9,2-1.5l1.4-1l-0.9-1.2l-0.9-1.2L283.3,94.6z M289.9,103.8l-4.5,2.8l0.8,1.2l0.8,1.2l4.5-2.8l4.5-2.8l-0.8-1.2
		l-0.8-1.2L289.9,103.8z M296.6,106.7l-0.8,0.5l0.7,1.3l0.7,1.3l0.8-0.4c0.5-0.2,0.8-0.5,0.9-0.6c0-0.1-0.3-0.7-0.6-1.3
		c-0.4-0.6-0.7-1.2-0.8-1.2C297.4,106.2,297,106.4,296.6,106.7z M291.6,109.6l-3.3,1.9l0.7,1.2c0.4,0.7,0.7,1.2,0.8,1.3
		c0,0,1.5-0.8,3.3-1.8c1.8-1,3.2-1.9,3.3-1.9c0-0.1-0.2-0.6-0.6-1.3c-0.4-0.7-0.7-1.2-0.8-1.2C294.9,107.7,293.4,108.5,291.6,109.6z
		 M98.5,65.8c-0.4,0.1-1,0.3-1.3,0.6c-0.3,0.2-0.7,0.7-0.9,1.1c-0.2,0.4-0.3,0.8-0.3,1.1c0,0.2-0.1,0.4-0.1,0.4
		c-0.1,0-0.2-0.2-0.4-0.4l-0.3-0.4l-1,0.8c-0.6,0.4-1,0.9-1,0.9c0,0.1,0.9,1.5,2.1,3.1c1.2,1.6,2.2,2.9,2.3,2.9
		c0.1,0,0.6-0.3,1.2-0.8l1.1-0.8l-1.3-1.8c-0.8-1-1.4-2-1.4-2.3c-0.1-0.4,0-0.6,0.2-0.9c0.2-0.3,0.5-0.3,0.8-0.3
		c0.4,0.1,0.7,0.3,1.9,1.9c0.8,1,1.5,1.9,1.6,1.9c0.1,0,0.6-0.3,1.2-0.8l1.1-0.8l-1.6-2.2c-0.9-1.2-1.9-2.4-2.2-2.6
		c-0.3-0.2-0.7-0.5-0.8-0.5C99.3,65.6,98.9,65.7,98.5,65.8z M295.5,114c-0.4,0.1-1.1,0.3-1.4,0.6c-0.4,0.2-0.9,0.6-1.1,0.9
		c-0.3,0.4-0.5,0.9-0.7,1.5c-0.1,0.6-0.2,1.2,0,1.7c0.1,0.4,0.4,1.1,0.6,1.6c0.2,0.4,0.7,1.1,1,1.4c0.3,0.3,0.9,0.7,1.2,0.8
		c0.4,0.1,1,0.3,1.5,0.3c0.6,0,1.1-0.2,1.9-0.6c0.8-0.5,1.2-0.8,1.5-1.4c0.3-0.5,0.5-1.1,0.5-1.5c0-0.4,0-1-0.1-1.4
		c-0.1-0.4-0.4-1.1-0.7-1.6c-0.3-0.5-0.8-1.1-1.2-1.5c-0.4-0.3-1-0.6-1.4-0.7C296.6,113.9,295.9,113.9,295.5,114z M297.9,117.2
		c0.1,0.2,0.2,0.6,0.2,0.8c0,0.2-0.1,0.6-0.3,0.8c-0.2,0.2-0.7,0.6-1.1,0.8c-0.5,0.2-1,0.3-1.3,0.3c-0.2-0.1-0.6-0.2-0.7-0.3
		c-0.1-0.1-0.3-0.4-0.4-0.7c-0.1-0.3-0.1-0.7,0.1-1c0.1-0.2,0.5-0.6,0.8-0.8c0.3-0.2,0.8-0.4,1-0.5c0.2-0.1,0.6,0,0.9,0
		C297.4,116.8,297.8,117,297.9,117.2z M86.3,71.4l-0.9,0.8l0.2,1.1c0.1,0.6,0.3,1.2,0.3,1.2c0.1,0,0.3-0.2,0.6-0.4
		c0.4-0.4,0.5-0.5,0.6-2l0.1-1.6L86.3,71.4z M90.1,73.1c-0.5,0-1.1,0.3-1.8,0.6c-0.5,0.3-1.2,0.9-1.6,1.4c-0.5,0.6-0.7,1-0.9,1.8
		c-0.1,0.6-0.2,1.3-0.1,1.7c0.1,0.4,0.4,1.1,0.7,1.5c0.3,0.4,0.9,1,1.4,1.2c0.7,0.4,1,0.5,1.7,0.5c0.5,0,1.2-0.1,1.6-0.3
		c0.4-0.2,1-0.6,1.4-0.9c0.4-0.3,0.8-0.8,1-1.1c0.2-0.3,0.4-0.9,0.5-1.3c0.1-0.4,0.2-1.1,0.2-1.4c0-0.3-0.2-1-0.5-1.4
		c-0.3-0.4-0.7-1-1-1.3c-0.3-0.3-0.8-0.6-1.2-0.7C91.2,73.1,90.6,73,90.1,73.1z M91,76.4c0.3,0.3,0.6,0.9,0.7,1.2
		c0.1,0.5,0.1,0.7-0.1,1c-0.1,0.2-0.5,0.5-0.8,0.6c-0.5,0.2-0.6,0.2-1.1-0.1c-0.3-0.2-0.8-0.6-1-1c-0.3-0.4-0.4-0.8-0.4-1.3
		c0-0.5,0.1-0.7,0.6-0.9c0.3-0.2,0.7-0.3,1-0.2C90.2,75.7,90.7,76,91,76.4z M79.4,78.2c-0.4,0.4-0.8,0.9-1,1c-0.2,0.3-0.2,0.4,0.4,1
		c0.4,0.4,0.7,0.7,0.7,0.7c0,0,0.5-0.5,1-1c0.5-0.5,0.9-1,1-1.1c0-0.1-0.3-0.4-0.6-0.7c-0.3-0.3-0.7-0.6-0.7-0.6
		C80.2,77.5,79.9,77.8,79.4,78.2z M304.9,130.9c-1.8-0.1-4.2-0.2-5.3-0.2c-1.1-0.1-2.1,0-2.1,0.1c0,0.1,0.2,0.8,0.4,1.6
		c0.3,0.8,0.5,1.4,0.5,1.4c0,0,0.4,0,0.9,0c0.7,0,0.9,0,1,0.2c0.1,0.1,0.3,0.9,0.6,1.8l0.5,1.5l-0.7,0.6l-0.7,0.6l0.5,1.6
		c0.3,0.9,0.5,1.6,0.6,1.6c0,0,1.9-1.5,4.3-3.4c2.3-1.9,4.3-3.5,4.4-3.5c0.1-0.1,0-0.8-0.4-1.8c-0.4-1.1-0.6-1.7-0.8-1.7
		C308.3,131.1,306.7,131,304.9,130.9z M81.3,80.5c-0.8,0.8-1,1.1-0.9,1.2c0.1,0.1,1.3,1.3,2.6,2.7c1.4,1.4,2.5,2.5,2.6,2.5
		c0,0,0.3-0.2,0.6-0.5c0.3-0.3,0.7-0.7,1-1l0.5-0.5l-2.6-2.6c-1.4-1.4-2.7-2.6-2.7-2.7C82.3,79.5,81.8,79.9,81.3,80.5z M306.2,133.9
		c-0.2,0.1-0.8,0.6-1.5,1.1c-0.7,0.5-1.2,0.9-1.3,0.8c0,0-0.2-0.5-0.4-1c-0.2-0.6-0.3-1-0.3-1.1c0,0,0.8-0.1,1.7-0.1s1.7,0,1.8,0
		C306.5,133.7,306.5,133.7,306.2,133.9z M77.8,85.1c-0.4,0.1-1,0.4-1.4,0.6c-0.4,0.3-1,0.9-1.4,1.4c-0.6,0.8-0.8,1.1-1,2
		c-0.2,0.7-0.2,1.3-0.1,1.7c0.1,0.3,0.3,0.8,0.5,1.1c0.2,0.3,0.6,0.8,1,1.1c0.5,0.4,0.9,0.7,1.7,0.8c0.8,0.2,1.1,0.2,1.8,0
		c0.5-0.1,1.2-0.5,1.5-0.9c0.4-0.3,0.9-0.9,1.2-1.4c0.4-0.5,0.7-1,0.8-1.7c0.1-0.5,0.2-1.2,0.1-1.5c-0.1-0.3-0.2-0.8-0.4-1L82,86.9
		l-1,1c-1,0.9-1,1-0.9,1.3c0.1,0.2,0.1,0.6,0,0.9c-0.1,0.5-0.3,0.7-0.7,1c-0.5,0.3-0.7,0.3-1.2,0.1c-0.3-0.1-0.9-0.5-1.1-0.8
		c-0.3-0.3-0.5-0.8-0.6-1.2c0-0.5,0-0.7,0.3-1.1c0.2-0.3,0.4-0.5,0.4-0.5c0,0,0.3,0,0.7-0.1c0.6-0.1,0.7-0.2,1.3-1
		c0.3-0.5,0.6-1,0.7-1.1c0-0.1-0.2-0.3-0.6-0.4C78.8,85,78.2,85,77.8,85.1z M302.7,143c-0.8,0.2-1.4,0.4-1.4,0.5
		c0,0.1,0.2,0.7,0.4,1.5c0.2,0.7,0.3,1.4,0.4,1.4c0,0,0.6-0.1,1.3-0.2c0.7-0.2,1.3-0.4,1.4-0.4c0.1-0.1,0-0.8-0.2-1.6
		c-0.2-0.8-0.4-1.4-0.4-1.4C304.1,142.7,303.5,142.8,302.7,143z M70.5,93.7c-0.3,0.1-0.8,0.3-1,0.5c-0.2,0.2-0.7,0.8-1.1,1.2
		c-0.4,0.5-1,1.3-1.2,1.8c-0.3,0.5-0.5,1.1-0.5,1.5c0,0.3,0.1,0.8,0.3,1.2c0.1,0.3,0.4,0.6,0.5,0.7c0.1,0,0.6-0.4,1-0.9
		c0.8-0.9,0.8-1,0.7-1.5c-0.1-0.4-0.1-0.6,0.2-1c0.2-0.3,0.4-0.6,0.5-0.7c0.1-0.1,0.4-0.1,0.6,0c0.4,0.1,0.4,0.2,0.2,0.9
		c-0.1,0.4-0.4,1.2-0.7,1.8c-0.3,0.6-0.5,1.3-0.6,1.7c-0.1,0.4-0.1,0.9,0,1.2c0.1,0.3,0.3,0.7,0.5,0.9c0.2,0.2,0.7,0.4,1,0.5
		c0.3,0.1,0.8,0,1.2-0.1c0.3-0.1,0.9-0.5,1.2-0.9c0.6-0.6,0.7-0.9,1-2c0.3-1.2,0.3-1.2,0.7-1.2c0.4,0.1,0.5,0,1.2-1l0.8-1.1
		l-0.6-0.2c-0.3-0.1-1.3-0.8-2.2-1.5c-0.9-0.7-2-1.3-2.3-1.5C71.3,93.6,70.9,93.6,70.5,93.7z M309,154.2c-2.8,0.4-5.1,0.7-5.1,0.7
		c0,0,0,0.7,0.1,1.5c0.1,0.8,0.2,1.5,0.3,1.6s1,0,2.1-0.1c1.1-0.1,2-0.2,2.1-0.2c0.1,0.1,0,0.4,0,0.7c-0.1,0.5-0.4,0.8-1.9,1.9
		l-1.8,1.3l0.2,1.6c0.1,0.9,0.2,1.7,0.3,1.8c0,0.1,0.7-0.3,1.5-0.8c0.8-0.5,1.6-1.2,1.9-1.5s0.5-0.7,0.6-0.9l0.1-0.5l0.5,0.7
		c0.3,0.4,0.8,0.9,1.1,1.1c0.5,0.3,0.8,0.3,1.5,0.3c0.7,0,1.1-0.2,1.6-0.5c0.3-0.2,0.7-0.6,0.8-0.8c0.1-0.2,0.2-0.7,0.3-1.2
		c0.1-0.4-0.1-2.2-0.3-4c-0.2-1.8-0.5-3.2-0.5-3.3C314.1,153.5,311.8,153.8,309,154.2z M73.2,98.5c0.1,0.2,0.1,0.7,0,1
		c-0.1,0.4-0.3,0.6-0.6,0.8c-0.3,0.2-0.6,0.2-0.7,0.1c-0.1-0.1-0.3-0.3-0.3-0.4c0-0.1,0-0.5,0.1-0.8c0.1-0.4,0.3-0.9,0.4-1.2
		c0.2-0.6,0.2-0.6,0.6-0.2C72.8,97.9,73.1,98.3,73.2,98.5z M312.7,158.1c0.1,0.5,0.1,1.2,0,1.5c-0.1,0.4-0.3,0.5-0.7,0.6
		c-0.4,0.1-0.5,0.1-0.8-0.3c-0.2-0.2-0.4-0.8-0.5-1.3c-0.1-0.5-0.2-1-0.2-1.1c0-0.1,0.4-0.2,0.9-0.3c0.5-0.1,1-0.1,1-0.1
		C312.5,157.1,312.6,157.5,312.7,158.1z M65.1,102.9c-0.5,0-1.1,0.2-1.5,0.4c-0.4,0.2-0.9,0.7-1.2,1c-0.3,0.3-0.7,1-0.9,1.4
		c-0.2,0.4-0.5,1-0.5,1.3c-0.1,0.3-0.1,0.8-0.1,1.2c0,0.4,0.3,1.1,0.5,1.5c0.3,0.6,0.7,1,1.3,1.4c0.5,0.3,1.1,0.6,1.5,0.7
		c0.4,0.1,1,0.1,1.4,0c0.4-0.1,1-0.3,1.3-0.6c0.3-0.2,0.9-0.8,1.3-1.4c0.4-0.5,0.8-1.4,1-1.9c0.2-0.5,0.3-1.2,0.2-1.5
		c0-0.4-0.2-1-0.5-1.4c-0.2-0.4-0.5-0.8-0.5-0.8c-0.1,0-0.5,0.4-0.9,1s-0.8,1-0.8,1.1c0,0.1,0.1,0.3,0.2,0.6
		c0.1,0.3,0.2,0.7,0.1,0.9c-0.1,0.2-0.2,0.6-0.4,0.8c-0.2,0.2-0.6,0.4-0.9,0.5c-0.4,0-0.7,0-1.3-0.4c-0.5-0.3-0.9-0.6-1-0.9
		c-0.1-0.3-0.2-0.7-0.1-1.1c0.1-0.4,0.3-0.7,0.6-0.9c0.3-0.2,0.6-0.3,0.8-0.3c0.3,0.1,0.4-0.1,0.8-1.1c0.3-0.6,0.5-1.2,0.5-1.3
		c0-0.1,0-0.2-0.1-0.2C66,102.9,65.5,102.9,65.1,102.9z M308.7,166.5c-0.7,0.1-1.2,0.3-1.8,0.7c-0.4,0.3-1,0.8-1.2,1.2
		c-0.2,0.3-0.4,0.9-0.5,1.2c-0.1,0.4-0.1,1.1-0.1,1.7c0,0.6,0.2,1.4,0.4,1.8c0.2,0.4,0.6,0.9,0.9,1.2c0.3,0.3,0.8,0.6,1.2,0.7
		c0.4,0.2,1,0.2,1.6,0.2c0.7,0,1.3-0.2,1.8-0.5c0.6-0.4,1-0.7,1.3-1.3c0.3-0.6,0.5-1.1,0.5-1.6c0-0.5,0-1.2,0-1.8
		c-0.1-0.7-0.3-1.2-0.7-1.8c-0.4-0.6-0.9-1-1.3-1.2c-0.4-0.2-0.8-0.4-1-0.4C309.8,166.5,309.2,166.5,308.7,166.5z M310.9,170.1
		c0.1,0.2,0.3,0.6,0.3,0.8c0,0.2-0.1,0.6-0.3,0.8c-0.2,0.2-0.6,0.5-1,0.6c-0.4,0.1-1,0.1-1.5,0c-0.6-0.1-0.8-0.3-1-0.6
		c-0.2-0.3-0.2-0.6-0.2-0.9c0.1-0.3,0.2-0.6,0.4-0.8c0.1-0.2,0.6-0.4,1-0.4s1-0.1,1.4,0C310.4,169.6,310.7,169.8,310.9,170.1z
		 M58,112.2c-0.1,0.2-0.4,0.8-0.6,1.3c-0.2,0.5-0.4,0.9-0.4,0.9c0,0,0.9,0.5,2,1.1c1.3,0.7,2,1.2,2.2,1.4c0.2,0.2,0.2,0.6,0.2,0.9
		c-0.1,0.2-0.2,0.5-0.4,0.6c-0.2,0.1-0.5,0.2-0.7,0.1c-0.2,0-1.2-0.5-2.3-1.1c-1.1-0.5-2-0.9-2.1-0.9c-0.1,0.1-0.4,0.6-0.7,1.2
		c-0.3,0.6-0.5,1.2-0.4,1.3c0.1,0.1,1.1,0.7,2.4,1.3c1.3,0.6,2.6,1.2,2.9,1.3c0.3,0.1,0.9,0,1.2-0.1c0.3-0.1,0.8-0.5,1.1-0.8
		c0.3-0.4,0.5-0.9,0.7-1.4c0.1-0.5,0.1-1.1,0-1.5l-0.2-0.7l0.5,0.2l0.5,0.2l0.6-1.2c0.3-0.6,0.5-1.2,0.5-1.3c0-0.1-1.4-0.8-3.1-1.7
		c-1.7-0.8-3.2-1.6-3.3-1.7C58.3,111.8,58.1,111.9,58,112.2z M309.5,177.6c-0.4,0-1,0-1.3,0c-0.3,0-0.8,0.2-1.1,0.4
		c-0.3,0.2-0.8,0.6-1,0.8c-0.2,0.3-0.5,0.8-0.7,1.1c-0.1,0.3-0.3,1.1-0.3,1.7c0,0.6,0,1.4,0.1,1.9c0.1,0.4,0.3,1,0.4,1.3
		c0.1,0.3,0.5,0.7,0.8,0.9c0.3,0.2,0.7,0.5,0.9,0.5c0.3,0.1,0.4,0,0.5-0.4c0.1-0.3,0.2-0.9,0.2-1.4c0.1-0.8,0.1-0.9-0.4-1.2
		c-0.3-0.2-0.5-0.5-0.6-0.8c0-0.2,0-0.7,0-0.9c0.1-0.3,0.3-0.6,0.6-0.8c0.3-0.2,0.8-0.3,1.2-0.3c0.5,0,0.9,0.1,1.3,0.3
		c0.3,0.2,0.6,0.5,0.7,0.7c0.1,0.2,0.1,0.7,0,1c-0.1,0.4-0.3,0.7-0.5,0.9l-0.4,0.3l0.1,1.4l0.1,1.4l0.5-0.2c0.3-0.1,0.7-0.4,0.9-0.6
		c0.2-0.2,0.6-0.6,0.7-0.9c0.2-0.3,0.4-1,0.5-1.7c0.1-0.6,0.1-1.6,0.1-2.2c-0.1-0.6-0.3-1.2-0.6-1.6c-0.2-0.3-0.6-0.8-0.8-0.9
		s-0.6-0.4-0.9-0.5C310.5,177.7,309.9,177.6,309.5,177.6z M50.3,121.4c-0.1,0.2-0.4,0.9-0.5,1.4l-0.3,1l0.7,0.3
		c0.4,0.2,1.1,0.5,1.6,0.7l1,0.4l-0.5,0.3c-0.3,0.2-0.6,0.5-0.8,0.7c-0.2,0.2-0.4,0.8-0.5,1.3c-0.2,0.6-0.1,1,0.1,1.6
		c0.2,0.5,0.5,1,1,1.4c0.5,0.4,1.1,0.7,1.9,1c0.6,0.2,1.4,0.3,1.8,0.3c0.4,0,1-0.2,1.3-0.3c0.3-0.2,0.8-0.5,0.9-0.8
		c0.2-0.3,0.4-0.9,0.5-1.3c0.2-0.7,0.1-1-0.1-1.5c-0.1-0.4-0.3-0.6-0.3-0.7c0,0,0.2,0.1,0.5,0.2l0.5,0.2l0.5-1.2
		c0.3-0.7,0.4-1.3,0.4-1.3c0-0.1-2-0.9-4.4-1.8c-2.4-0.9-4.5-1.8-4.8-1.9C50.6,121,50.5,121.1,50.3,121.4z M56.7,127.1
		c0.2,0.3,0.3,0.7,0.2,0.9c-0.1,0.2-0.2,0.6-0.4,0.7c-0.3,0.2-0.5,0.3-1.2,0.1c-0.5-0.1-1.1-0.3-1.3-0.5c-0.3-0.2-0.5-0.4-0.6-0.6
		c0-0.2,0-0.5,0-0.7c0-0.2,0.3-0.5,0.5-0.7c0.4-0.3,0.6-0.3,1.4,0C56.2,126.5,56.5,126.7,56.7,127.1z M306.1,188.5
		c-0.3,0.1-0.8,0.4-1,0.6c-0.3,0.3-0.5,0.7-0.6,1.4c-0.1,0.5-0.2,1.3-0.2,1.6c0,0.4,0.2,1,0.4,1.3l0.3,0.6l-0.4,0.1
		c-0.3,0.1-0.5,0.2-0.5,0.5c0,0.2-0.1,0.8-0.2,1.4l-0.1,1l0.5-0.1c0.3-0.1,1.6,0,2.8,0.2c1.5,0.2,2.5,0.2,2.9,0.1
		c0.4-0.1,0.8-0.4,1.1-0.7c0.3-0.4,0.5-0.8,0.7-1.8c0.2-0.7,0.3-1.7,0.3-2.3c0-0.6,0-1.3-0.1-1.6c-0.1-0.3-0.4-0.8-0.6-1
		c-0.2-0.2-0.6-0.5-0.8-0.5c-0.3-0.1-0.4,0-0.7,1.3c-0.3,1.1-0.3,1.4-0.1,1.4c0.1,0,0.3,0.2,0.4,0.5c0.1,0.2,0.1,0.7,0.1,1
		c0,0.4-0.1,0.7-0.4,0.8c-0.2,0.1-0.4,0.2-0.5,0.2c-0.1,0-0.3-0.4-0.3-0.9c-0.1-0.5-0.2-1.5-0.3-2.2c-0.1-0.9-0.2-1.6-0.5-2
		c-0.2-0.4-0.6-0.6-1-0.8C306.9,188.4,306.6,188.4,306.1,188.5z M307.6,192.8c0.1,0.6,0.3,1.2,0.2,1.3c0,0.1-0.4,0-0.8-0.1
		c-0.6-0.2-0.8-0.3-1-0.9c-0.1-0.3-0.2-0.8-0.1-1c0-0.2,0.2-0.5,0.4-0.6c0.2-0.1,0.5-0.1,0.6-0.1C307.2,191.6,307.4,192,307.6,192.8
		z M46.1,132.4c-0.1,0.2-0.6,2.1-1.2,4.1c-0.6,2-1.1,3.7-1.1,3.8c0,0,2.3,0.8,5,1.6c2.7,0.8,5,1.5,5,1.5c0.1,0,0.7-1.9,1.4-4.2
		c0.7-2.3,1.3-4.2,1.2-4.3c0,0-0.5-0.2-1.1-0.4l-1.1-0.3l-0.4,1.2c-0.2,0.7-0.6,1.9-0.8,2.7l-0.5,1.5l-0.5-0.1
		c-0.3-0.1-0.7-0.2-1-0.3c-0.4-0.2-0.5-0.3-0.3-0.6c0.1-0.2,0.4-1.3,0.8-2.4l0.6-2l-1-0.2l-1-0.2l-0.5,1.5c-0.2,0.8-0.6,1.9-0.8,2.4
		l-0.3,0.9l-0.8-0.2l-0.8-0.2l0.4-1.2c0.2-0.7,0.6-1.9,0.8-2.7l0.5-1.5l-1.1-0.3C46.3,131.9,46.2,131.9,46.1,132.4z M304.4,207.2
		l-0.5,2.1l1.1,0.3l1.1,0.3l0.5-2.1l0.5-2.1l-1.1-0.3l-1.1-0.3L304.4,207.2z M47.8,150.8c-0.4,0-0.9,0-1.1,0c-0.2,0-0.7,0.2-1.1,0.4
		c-0.3,0.2-0.8,0.6-1.1,0.9c-0.4,0.5-0.6,0.9-0.8,2c-0.3,1.2-0.3,1.6-0.2,2.4c0.1,0.5,0.4,1.2,0.6,1.5c0.2,0.3,0.8,0.8,1.3,1.1
		c0.7,0.4,1,0.5,1.8,0.5c0.5,0,1.3,0,1.6-0.2c0.3-0.1,0.9-0.4,1.1-0.6c0.3-0.2,0.7-0.7,0.8-1c0.2-0.4,0.4-1.1,0.6-2
		c0.1-0.8,0.2-1.7,0.1-2.1c-0.1-0.4-0.3-1-0.4-1.3c-0.2-0.3-0.5-0.7-0.7-0.9l-0.4-0.3l-0.3,1.4c-0.3,1.1-0.3,1.5-0.1,1.9
		c0.1,0.3,0.2,0.7,0.1,1s-0.2,0.6-0.3,0.8c-0.1,0.1-0.4,0.3-0.7,0.4c-0.3,0.1-0.6,0.1-0.6,0c0-0.1,0.1-1.4,0.4-2.9
		c0.3-1.6,0.5-2.8,0.5-2.9c0,0-0.1-0.1-0.2-0.1C48.5,150.9,48.2,150.8,47.8,150.8z M46.9,154.1c0,0.2-0.2,0.9-0.2,1.5l-0.2,1.1
		l-0.5-0.3c-0.3-0.2-0.6-0.5-0.7-0.7c-0.1-0.2-0.1-0.6-0.1-0.9c0.1-0.3,0.3-0.6,0.6-0.8c0.2-0.1,0.6-0.3,0.7-0.3c0.1,0,0.3,0,0.4,0
		C47,153.7,47,153.9,46.9,154.1z M299.1,216.6c-0.1,0.2-0.3,0.7-0.5,1.2c-0.3,0.9-0.3,1-0.1,1.1c0.1,0.1,1.8,0.7,3.7,1.4
		c1.9,0.7,3.2,1.3,3,1.2c-0.2,0-2-0.2-4-0.4l-3.6-0.4l-0.2,0.4c-0.1,0.2-0.3,0.8-0.5,1.2l-0.2,0.7l3.3,2.4c1.8,1.3,3.1,2.3,2.8,2.1
		c-0.3-0.1-1.9-0.7-3.5-1.3c-1.6-0.6-3.1-1.1-3.2-1.2c-0.1,0-0.4,0.4-0.6,1.2c-0.2,0.7-0.4,1.3-0.4,1.3c0,0,2.2,0.8,4.8,1.8
		c2.6,1,4.8,1.8,4.9,1.8c0.1,0,0.5-0.9,0.9-1.9l0.7-1.9l-0.7-0.5c-0.4-0.3-1.6-1.2-2.7-1.9c-1.9-1.3-1.9-1.4-1.3-1.3
		c0.4,0,1.8,0.2,3.2,0.3c2.3,0.3,2.6,0.3,2.7,0c0.1-0.2,0.4-1.1,0.8-2c0.4-1.2,0.6-1.7,0.5-1.8c-0.1-0.1-2.1-0.8-4.4-1.7
		s-4.5-1.7-4.7-1.8C299.4,216.4,299.2,216.4,299.1,216.6z M44.6,162.1c-2.6-0.2-4.8-0.3-4.9-0.3c0,0-0.1,0.7-0.2,1.5
		c-0.1,0.8-0.1,1.4,0.1,1.5c0.1,0,0.9,0.1,1.7,0.1c0.8,0.1,1.5,0.1,1.6,0.1c0.1,0,0,0.2-0.2,0.4c-0.2,0.2-0.4,0.8-0.5,1.2
		c-0.1,0.5-0.1,1.1-0.1,1.4c0.1,0.3,0.3,0.9,0.5,1.2c0.3,0.4,0.7,0.8,1.3,1c0.7,0.3,1.1,0.4,2.1,0.4c0.8,0,1.5-0.1,2-0.3
		c0.4-0.2,1-0.5,1.2-0.8c0.4-0.3,0.5-0.7,0.7-1.3c0.1-0.5,0.2-1.1,0.1-1.3s-0.3-0.8-0.5-1.2c-0.4-0.6-0.4-0.7-0.1-0.6
		c0.2,0,0.4,0,0.5,0c0.2-0.1,0.2-0.4,0.3-1.3c0.1-1.2,0.1-1.3-0.3-1.4C49.6,162.5,47.3,162.3,44.6,162.1z M47.7,165.9
		c0.2,0.2,0.2,0.6,0.1,1c-0.1,0.4-0.2,0.6-0.6,0.7c-0.3,0.1-0.8,0.2-1.1,0.1c-0.4,0-0.9-0.2-1.2-0.3c-0.3-0.2-0.5-0.5-0.6-0.7
		c0-0.2,0-0.6,0.1-0.8c0.1-0.2,0.5-0.5,0.8-0.6c0.4-0.1,0.9-0.1,1.4,0C47.2,165.5,47.5,165.7,47.7,165.9z M293.1,231.3
		c-0.3,0.7-0.6,1.3-0.6,1.4c0,0,1.6,0.8,3.4,1.6c1.9,0.9,3.4,1.6,3.4,1.6c0,0,0.3-0.6,0.6-1.3c0.3-0.7,0.6-1.3,0.5-1.3
		c0,0-1.4-0.7-3.2-1.5c-1.7-0.8-3.2-1.5-3.4-1.6C293.8,230,293.7,230.1,293.1,231.3z M300.9,234.9c-0.3,0.7-0.5,1.3-0.5,1.3
		c0,0.1,0.3,0.3,0.8,0.6c0.5,0.2,0.8,0.4,0.9,0.4c0,0,0.3-0.5,0.6-1.1c0.3-0.6,0.5-1.2,0.6-1.3c0-0.1-0.3-0.4-0.7-0.6
		c-0.4-0.2-0.8-0.4-0.9-0.4C301.5,233.7,301.2,234.2,300.9,234.9z M290.7,236.2c-0.4,0.7-0.7,1.3-0.7,1.4c0,0.1,0.6,0.5,1.3,0.9
		c0.7,0.4,1.6,0.9,2,1.2c0.4,0.3,0.7,0.6,0.9,0.8c0.1,0.2,0.2,0.5,0.1,0.8c-0.1,0.3-0.2,0.6-0.3,0.7c-0.2,0.2-0.1,0.4,0.4,1.1
		c0.5,0.7,0.7,0.8,0.9,0.7c0.1-0.1,0.5-0.4,0.7-0.8c0.3-0.5,0.4-0.7,0.3-1.1c0-0.3-0.2-0.7-0.3-0.9c-0.2-0.4-0.2-0.4,0.3-0.1
		c0.5,0.2,0.5,0.2,0.9-0.6c0.2-0.4,0.5-1,0.6-1.2c0.2-0.4,0.2-0.4-0.6-0.8c-0.4-0.2-1.9-1-3.2-1.7c-1.3-0.7-2.5-1.3-2.6-1.4
		C291.4,235.1,291.2,235.4,290.7,236.2z M48.9,179.1c-0.2,0.1-1.3,0.2-2.5,0.3c-1.1,0.1-2.4,0.2-2.7,0.3c-0.4,0.1-0.8,0.3-1,0.5
		c-0.2,0.2-0.5,0.6-0.6,0.9c-0.1,0.3-0.2,1.2-0.2,2.1c0,0.8,0.1,1.9,0.2,2.4c0.1,0.5,0.4,1.1,0.6,1.3c0.2,0.2,0.7,0.5,1,0.7
		c0.4,0.2,0.6,0.2,0.7,0c0-0.1,0.1-0.7,0.1-1.4c0.1-1,0-1.2-0.3-1.5c-0.2-0.2-0.5-0.6-0.5-1c-0.1-0.3-0.1-0.7,0-0.9
		c0-0.2,0.3-0.4,0.5-0.4c0.3-0.1,0.4,0,0.5,0.2c0.1,0.2,0.4,1.1,0.6,2c0.2,0.9,0.5,1.8,0.6,1.9c0.1,0.2,0.3,0.5,0.5,0.7
		c0.2,0.2,0.6,0.4,0.9,0.5c0.3,0.1,0.8,0,1.2-0.1c0.3-0.1,0.8-0.4,0.9-0.6c0.2-0.2,0.4-0.7,0.5-1.3c0.1-0.5,0.1-1.3,0-1.7
		c-0.1-0.4-0.4-1-0.6-1.4l-0.5-0.6l0.4-0.2l0.4-0.2l0-1.2c0-0.7-0.1-1.3-0.1-1.4C49.3,179,49.1,179,48.9,179.1z M47.8,183.1
		c0.3,0.5,0.4,0.8,0.3,1.2c-0.1,0.3-0.2,0.5-0.5,0.6c-0.2,0.1-0.5,0-0.6-0.1c-0.2-0.1-0.4-0.7-0.6-1.2s-0.3-1.1-0.3-1.2
		c0,0,0.2-0.1,0.3-0.1c0.2,0,0.5,0,0.7,0.1C47.3,182.4,47.6,182.6,47.8,183.1z M288,242.1c-0.4,0.1-0.8,0.5-1.2,1
		c-0.4,0.6-0.7,1.1-0.9,1.7c-0.1,0.5-0.2,1.1-0.2,1.3c0,0.3,0,0.4-0.4,0.3c-0.4,0-0.5,0.1-1.2,1.1l-0.7,1.1l0.4,0.1
		c0.2,0.1,1.3,0.6,2.3,1.3c1.1,0.7,2.2,1.3,2.6,1.4c0.4,0.1,0.9,0.1,1.3,0c0.3-0.1,0.8-0.4,1-0.7c0.3-0.3,0.8-1,1.2-1.6
		c0.4-0.6,0.8-1.4,0.9-1.8c0.1-0.4,0.2-1,0.2-1.3c0-0.3-0.2-0.9-0.4-1.2c-0.3-0.5-0.4-0.5-0.6-0.4c-0.1,0.1-0.5,0.6-0.9,1.1
		c-0.6,0.8-0.6,1-0.6,1.3c0.1,0.2,0.1,0.6,0,0.8c-0.1,0.3-0.2,0.6-0.4,0.8c-0.2,0.3-0.4,0.3-0.7,0.3c-0.4-0.1-0.4-0.2-0.3-0.7
		c0.1-0.3,0.4-1.3,0.7-2.2c0.5-1.4,0.5-1.7,0.4-2.2c-0.1-0.4-0.3-0.9-0.6-1.1c-0.2-0.2-0.7-0.5-1-0.6C288.9,242,288.4,242,288,242.1
		z M288.7,245.4c0.1,0.4,0.1,0.7-0.2,1.5l-0.4,1l-0.4-0.3c-0.2-0.1-0.5-0.5-0.6-0.7c-0.1-0.2-0.1-0.7,0-1.1c0.1-0.4,0.3-0.8,0.5-0.9
		c0.2-0.1,0.4-0.2,0.6-0.1C288.4,244.9,288.6,245.2,288.7,245.4z M44.8,190.6c-2.8,0.3-5.1,0.6-5.2,0.6c0,0,0,0.6,0.1,1.4
		c0.1,0.8,0.2,1.4,0.2,1.4c0,0,2.3-0.2,5.1-0.5c2.8-0.3,5.1-0.6,5.2-0.7c0.1-0.1,0.1-0.7,0-1.5c-0.1-0.8-0.2-1.4-0.2-1.4
		C49.9,190,47.6,190.2,44.8,190.6z M48.8,195.9c0,0.1,0,0.7,0.1,1.4c0.1,1,0.2,1.4,0.5,1.7c0.2,0.2,0.4,0.6,0.5,0.9s0,0.7-0.1,0.9
		c-0.1,0.2-0.4,0.5-0.6,0.6c-0.2,0.1-0.4,0.1-0.5,0c-0.1-0.1-0.3-1.3-0.5-2.8c-0.2-1.4-0.5-2.6-0.5-2.7c-0.1-0.1-0.5-0.1-1,0.1
		c-0.5,0.1-1.2,0.4-1.5,0.7c-0.3,0.2-0.8,0.7-1,1c-0.2,0.3-0.4,1-0.5,1.5c-0.1,0.5,0,1.4,0.1,1.9c0.1,0.5,0.4,1.3,0.6,1.7
		c0.2,0.4,0.7,0.9,1,1.2c0.3,0.3,0.9,0.5,1.5,0.7c0.7,0.2,1.1,0.2,2-0.1c0.9-0.2,1.3-0.4,1.9-1c0.6-0.6,0.8-0.9,0.9-1.6
		c0.1-0.5,0.1-1.3,0.1-1.9c-0.1-0.6-0.2-1.3-0.3-1.7c-0.1-0.4-0.4-0.9-0.7-1.3c-0.2-0.4-0.7-0.8-1-1c-0.3-0.2-0.6-0.3-0.7-0.3
		C48.8,195.8,48.8,195.8,48.8,195.9z M281.3,251.9l-0.9,1.1l1.7,1.4c1,0.8,1.8,1.5,2,1.7c0.1,0.2,0.2,0.6,0.1,0.8
		c-0.1,0.3-0.2,0.6-0.4,0.7s-0.4,0.1-0.7,0c-0.2-0.1-1.2-0.7-2.1-1.4c-0.9-0.7-1.8-1.3-1.9-1.4s-0.6,0.5-1,1.1l-0.8,1.1l1.7,1.3
		c0.9,0.7,1.8,1.5,1.9,1.7c0.2,0.2,0.2,0.6,0.1,0.9c-0.1,0.5-0.2,0.6-0.6,0.7c-0.4,0.1-0.6,0-1.1-0.3c-0.3-0.2-1.2-0.9-2-1.5
		l-1.4-1.1l-0.8,1.1c-0.5,0.6-0.8,1.1-0.9,1.2c0,0.1,1,0.9,2.2,1.9c1.7,1.3,2.4,1.8,2.9,1.9c0.4,0.1,0.9,0.1,1.3,0
		c0.3-0.1,0.8-0.5,1.1-0.8c0.3-0.4,0.6-0.9,0.7-1.3c0.1-0.4,0.1-0.9,0.1-1.2c-0.1-0.4,0-0.5,0.4-0.5c0.3,0,0.7-0.1,0.9-0.2
		c0.3-0.1,0.7-0.5,1-0.8c0.3-0.4,0.6-0.9,0.7-1.3c0.1-0.4,0.1-0.8,0.1-1.1c0-0.3,0-0.4,0.1-0.4c0.1,0,0.3,0.1,0.4,0.3
		c0.2,0.2,0.4,0.1,1.1-0.8c0.4-0.6,0.8-1.1,0.7-1.2c0-0.1-1.3-1.1-2.9-2.3c-1.6-1.2-2.9-2.2-2.9-2.2
		C282.2,250.8,281.8,251.3,281.3,251.9z M47,200.6c0.2,1,0.2,1.3-0.1,1.3c-0.1,0-0.5,0-0.7-0.1c-0.2-0.1-0.5-0.4-0.7-0.7
		c-0.1-0.3-0.2-0.7-0.1-1c0.1-0.3,0.3-0.6,0.6-0.8c0.3-0.2,0.6-0.2,0.6-0.1C46.7,199.2,46.9,199.9,47,200.6z M49.1,207.2
		c-1.9,0.5-3.6,1-3.7,1.1c-0.1,0.1,0,0.7,0.1,1.4c0.2,0.7,0.3,1.3,0.4,1.4c0.1,0.1,1-0.2,2.1-0.5c1.4-0.4,2.2-0.5,2.6-0.4
		c0.5,0.1,0.7,0.2,0.8,0.6c0.2,0.4,0.2,0.6,0,0.9c-0.2,0.2-0.8,0.5-1.5,0.7c-0.6,0.2-1.7,0.5-2.3,0.7l-1.1,0.3l0.3,1.4
		c0.2,0.7,0.4,1.4,0.5,1.4c0.1,0,1.3-0.3,2.6-0.6c1.3-0.4,2.7-0.8,3.1-1c0.4-0.2,0.8-0.6,0.9-0.9c0.2-0.4,0.3-0.8,0.3-1.3
		c0-0.5-0.2-1-0.5-1.6c-0.3-0.5-0.7-0.9-1-1.1l-0.5-0.2l0.5-0.3l0.5-0.3l-0.2-0.8c-0.1-0.4-0.3-1-0.4-1.3l-0.2-0.5L49.1,207.2z
		 M272.6,263.4c-0.4,0-1,0.3-1.3,0.5c-0.4,0.3-0.9,0.8-1.2,1.3c-0.4,0.6-0.6,1-0.6,1.4c0,0.6-0.1,0.6-0.5,0.4
		c-0.4-0.2-0.5-0.1-1.3,0.8c-0.5,0.5-0.9,1-0.9,1.1c0,0.1,0.2,0.2,0.4,0.2c0.2,0,1,0.8,1.9,1.6c0.9,0.9,1.9,1.7,2.2,1.9
		c0.5,0.3,0.8,0.3,1.2,0.3c0.3,0,1-0.3,1.5-0.7c0.5-0.3,1.3-1.1,1.8-1.7c0.7-0.9,1-1.3,1.1-2c0.1-0.6,0.1-1,0-1.4
		c-0.1-0.3-0.3-0.6-0.4-0.6c-0.1-0.1-0.6,0.3-1.1,0.8c-0.9,0.8-1,0.9-0.9,1.4c0.1,0.4,0,0.6-0.4,1.1c-0.4,0.4-0.6,0.5-1,0.5
		c-0.4-0.1-0.5-0.1-0.4-0.4c0-0.2,0.5-1.1,1-2s1-1.9,1.1-2.2c0.1-0.4,0-0.8-0.3-1.3c-0.2-0.4-0.6-0.8-0.8-0.9
		C273.5,263.5,273.1,263.4,272.6,263.4z M272.5,266.6c0.1,0.3,0,0.6-0.4,1.4c-0.3,0.6-0.6,1-0.7,1c-0.1,0-0.3-0.3-0.5-0.6
		c-0.3-0.4-0.3-0.7-0.2-1.1c0.1-0.3,0.3-0.7,0.6-0.9c0.3-0.2,0.6-0.3,0.8-0.3C272.3,266.1,272.5,266.3,272.5,266.6z M52.9,217.2
		c-0.1,0.1,0,0.7,0.2,1.4c0.3,1.2,0.3,1.3,0.9,1.4c0.4,0.1,0.7,0.3,0.9,0.7c0.3,0.4,0.3,0.7,0.2,1.1c-0.1,0.3-0.3,0.7-0.5,0.9
		c-0.2,0.2-0.8,0.4-1.2,0.5c-0.6,0.1-0.9,0.1-1.2,0c-0.2-0.1-0.5-0.4-0.7-0.6c-0.2-0.2-0.3-0.6-0.3-0.9c0-0.3,0.1-0.6,0.3-0.8
		c0.2-0.3,0.2-0.4-0.3-1.4c-0.3-0.6-0.6-1.1-0.7-1.2c-0.1-0.1-0.4,0.2-0.7,0.6c-0.4,0.5-0.6,0.9-0.7,1.5c-0.1,0.5,0,1.2,0,1.7
		c0.1,0.4,0.4,1.2,0.6,1.7c0.2,0.6,0.7,1.2,1.1,1.5c0.5,0.4,0.9,0.6,1.5,0.8c0.5,0.1,1.1,0.1,1.5,0.1c0.4-0.1,1-0.3,1.4-0.5
		c0.4-0.2,1-0.6,1.2-0.9c0.4-0.4,0.6-0.9,0.7-1.6c0.2-0.8,0.2-1.2,0-2.1c-0.1-0.6-0.5-1.4-0.7-1.9c-0.2-0.4-0.7-1-1-1.3
		c-0.4-0.3-0.9-0.6-1.5-0.7C53.5,217.1,53,217.1,52.9,217.2z M264,271.5c-0.5,0.5-1,1-1,1c0,0,0.5,0.8,1.3,1.6
		c0.7,0.8,1.4,1.8,1.5,2.1s0.2,0.7,0.1,0.9c0,0.1-0.3,0.4-0.6,0.6l-0.5,0.4l0.3,1.1l0.3,1l0.5-0.2c0.3-0.1,0.7-0.4,0.9-0.5
		c0.2-0.2,0.4-0.5,0.5-0.8c0.1-0.3,0.1-0.7,0-0.9c-0.1-0.2-0.1-0.3,0-0.3c0.1,0,0.2,0.2,0.4,0.4c0.3,0.3,0.3,0.3,1.2-0.5
		c0.5-0.4,0.9-0.9,1-0.9c0.1-0.1-0.8-1.2-2.4-3c-1.4-1.6-2.6-2.8-2.6-2.8S264.5,271,264,271.5z M57.2,227.3c-0.3,0.1-0.8,0.3-1,0.5
		c-0.3,0.2-0.5,0.6-0.6,1.1c-0.1,0.6-0.1,1.1,0.2,2.4c0.2,0.9,0.4,1.8,0.3,1.9c0,0.1-0.2,0.3-0.3,0.3c-0.2,0-0.4-0.1-0.5-0.2
		c-0.1-0.1-0.3-0.5-0.3-0.8c0-0.3,0-0.7,0.1-0.9c0.1-0.3,0-0.6-0.5-1.5l-0.7-1.2l-0.3,0.3c-0.2,0.2-0.4,0.7-0.5,1.1
		c-0.1,0.6-0.1,1,0.1,1.7c0.2,0.5,0.6,1.4,0.9,2c0.5,0.8,0.9,1.2,1.3,1.4c0.3,0.2,0.8,0.3,1,0.3c0.2,0,0.6-0.1,0.9-0.2
		c0.2-0.1,0.6-0.3,0.8-0.6c0.2-0.2,0.4-0.7,0.5-1c0.1-0.4,0-1.2-0.2-2.3c-0.2-0.9-0.3-1.8-0.3-2c0-0.2,0.2-0.3,0.4-0.3
		c0.2,0,0.5,0.1,0.7,0.3c0.2,0.2,0.4,0.6,0.4,0.9c0,0.3,0,0.7-0.1,1c-0.2,0.4-0.2,0.6,0.5,1.7l0.7,1.2l0.4-0.4
		c0.2-0.2,0.5-0.8,0.6-1.2c0.1-0.5,0.1-1.1,0-1.5c-0.1-0.4-0.4-1.3-0.7-1.9c-0.4-0.8-0.8-1.3-1.3-1.8c-0.4-0.3-0.9-0.7-1.1-0.7
		C58,227.2,57.6,227.2,57.2,227.3z M255.4,282.2c-0.9,0.7-1.7,1.3-1.7,1.3c0,0,0.3,0.5,0.6,1l0.6,0.9l1.6-1.2
		c0.9-0.7,1.7-1.3,1.7-1.4c0-0.1-0.2-0.5-0.6-1l-0.6-0.8L255.4,282.2z M62.1,236.2c-0.5,0.3-0.9,0.6-0.9,0.6c0,0.1,0.6,1.2,1.3,2.5
		l1.3,2.4l-0.9,0.5c-0.8,0.4-0.9,0.5-1.1,0.3c-0.1-0.1-0.6-1.1-1.2-2.2c-0.6-1-1.1-1.9-1.2-1.9c-0.1,0-0.5,0.2-0.9,0.4l-0.8,0.5
		l0.2,0.5c0.1,0.3,0.6,1.3,1.2,2.2l1,1.7l-0.7,0.4c-0.4,0.2-0.7,0.4-0.8,0.3c-0.1-0.1-0.7-1.1-1.3-2.3c-0.7-1.2-1.3-2.2-1.4-2.2
		c-0.1,0-0.6,0.2-1,0.5L54,241l2.1,3.8c1.1,2.1,2.1,3.8,2.2,3.8c0.1,0,2.1-1.1,4.6-2.5c2.9-1.6,4.5-2.6,4.4-2.7c0-0.1-1-1.9-2.1-3.9
		c-1.1-2-2.1-3.7-2.1-3.7C63.1,235.7,62.6,235.9,62.1,236.2z M242.9,287.4c-1.3,0.8-2.8,1.7-3.3,2.1c-0.5,0.4-1,0.9-1.1,1.2
		c-0.2,0.4-0.3,0.8-0.3,1.3c0,0.5,0.2,1,0.4,1.5c0.2,0.4,0.7,0.8,1,1c0.4,0.2,0.8,0.3,1.4,0.3c0.8,0,0.8,0,0.6,0.2
		c-0.1,0.1-0.3,0.5-0.4,0.8c-0.1,0.3-0.1,0.8,0,1.2c0.1,0.3,0.4,0.9,0.7,1.1c0.3,0.3,0.8,0.6,1.1,0.6c0.3,0.1,0.8,0.1,1.2,0
		s1-0.3,1.5-0.6c0.5-0.3,1.8-1.1,3-1.7l2.1-1.2l-2.6-4.5c-1.4-2.5-2.6-4.5-2.7-4.6C245.4,286,244.2,286.7,242.9,287.4z M244.3,290.6
		l0.5,0.8l-0.7,0.4c-0.4,0.2-0.9,0.5-1.2,0.6c-0.3,0.1-0.6,0.1-0.8,0.1c-0.2,0-0.4-0.2-0.5-0.4c-0.1-0.2-0.2-0.5-0.1-0.8
		c0.1-0.3,0.4-0.6,1-1.1c0.5-0.3,1-0.6,1.1-0.6C243.7,289.7,244,290.1,244.3,290.6z M246.3,294c0.3,0.4,0.5,0.8,0.4,0.9
		c0,0.1-0.4,0.3-0.9,0.6c-0.6,0.4-1,0.5-1.3,0.4c-0.3-0.1-0.6-0.2-0.6-0.4c-0.1-0.1-0.1-0.4-0.1-0.6c0-0.3,0.2-0.5,0.9-1
		c0.5-0.3,1-0.6,1-0.6C245.8,293.3,246,293.6,246.3,294z M233.2,292.6c-0.3,0.1-0.7,0.3-1,0.4c-0.3,0.1-0.7,0.5-0.9,0.8
		c-0.2,0.3-0.5,0.8-0.6,1l-0.1,0.5l-0.2-0.5c-0.1-0.3-0.3-0.5-0.4-0.5c-0.1,0-0.7,0.2-1.3,0.5c-0.6,0.3-1.1,0.6-1,0.7
		c0,0.1,0.7,1.6,1.5,3.3c0.8,1.7,1.5,3.2,1.5,3.3c0,0.1,0.6-0.1,1.3-0.4c0.7-0.3,1.3-0.7,1.3-0.7c0-0.1-0.4-1-0.8-2.1
		c-0.5-1.1-0.9-2.2-0.9-2.4c0-0.3,0.1-0.6,0.3-0.7c0.2-0.2,0.4-0.3,0.6-0.3c0.2,0,0.5,0.1,0.6,0.1c0.2,0.1,0.7,1.1,1.3,2.3
		c0.5,1.2,1,2.2,1,2.2c0,0,0.6-0.2,1.3-0.5c0.7-0.3,1.2-0.6,1.3-0.7c0-0.1-0.5-1.3-1.1-2.7c-0.8-1.8-1.3-2.7-1.7-3
		c-0.3-0.3-0.7-0.5-1-0.6C233.9,292.5,233.5,292.6,233.2,292.6z M223.3,297.3c-0.4,0-1.1,0.1-1.5,0.3c-0.4,0.1-1,0.4-1.4,0.6
		c-0.4,0.2-1,0.6-1.3,0.9c-0.3,0.3-0.7,0.9-0.8,1.4l-0.3,0.8l1.5-0.4c1-0.3,1.5-0.5,1.5-0.7c0-0.2,0.3-0.5,0.6-0.7
		c0.4-0.2,0.7-0.3,1.1-0.2c0.3,0.1,0.6,0.3,0.8,0.6l0.3,0.5l-2.8,1l-2.8,1l0.2,0.5c0.1,0.3,0.4,0.8,0.5,1.1c0.2,0.3,0.6,0.8,0.9,1
		c0.3,0.3,0.9,0.5,1.4,0.6c0.6,0.1,1.1,0.1,1.9-0.1c0.6-0.1,1.4-0.4,1.8-0.6c0.4-0.2,1-0.7,1.3-1.1c0.4-0.5,0.6-1,0.8-1.5
		c0.1-0.4,0.1-1.1,0-1.5c-0.1-0.4-0.3-1-0.5-1.4c-0.2-0.4-0.6-0.9-1-1.2c-0.3-0.3-0.8-0.6-1.1-0.7
		C224.3,297.3,223.7,297.2,223.3,297.3z M224.2,302.5c-0.1,0.6-0.2,0.8-0.6,1c-0.3,0.1-0.7,0.2-1,0.1c-0.2-0.1-0.6-0.3-0.8-0.6
		l-0.3-0.5l1.3-0.5c0.7-0.3,1.3-0.5,1.4-0.4C224.3,301.8,224.3,302.1,224.2,302.5z M213.6,300.5c-0.7,0.2-1.2,0.4-1.2,0.4
		c0,0.1,0.2,1,0.5,2.1s0.5,2.2,0.5,2.5c0,0.3-0.1,0.6-0.3,0.8c-0.2,0.2-0.5,0.3-0.7,0.4c-0.2,0-0.5-0.1-0.7-0.3
		c-0.2-0.2-0.6-1.4-0.9-2.6l-0.6-2.3l-1.2,0.3c-0.7,0.2-1.3,0.4-1.4,0.5c-0.2,0.1,0,0.8,0.5,2.8c0.4,1.4,0.9,2.9,1.1,3.2
		c0.3,0.5,0.5,0.6,1.3,0.9c0.8,0.3,1,0.3,1.8-0.1c0.7-0.3,1-0.5,1.4-1.1l0.5-0.8l0.2,0.5l0.2,0.5l1.3-0.3c0.7-0.2,1.3-0.4,1.3-0.5
		c0-0.1-0.4-1.7-0.9-3.7s-1-3.6-1.1-3.6C214.9,300.2,214.2,300.3,213.6,300.5z M201.2,303.4c-0.5,0.1-1.1,0.2-1.4,0.3
		c-0.3,0.1-0.8,0.4-1.2,0.7c-0.3,0.2-0.8,0.7-0.9,1c-0.2,0.3-0.4,1-0.5,1.5c-0.1,0.6,0,1.3,0.1,1.7c0.1,0.4,0.4,1,0.5,1.2
		c0.2,0.2,0.6,0.6,0.9,0.9c0.3,0.2,1,0.5,1.4,0.6c0.5,0.1,1.2,0.1,1.7,0.1c0.5-0.1,1.3-0.3,1.7-0.5c0.5-0.2,1.1-0.7,1.4-1
		c0.4-0.5,0.6-0.9,0.8-1.6c0.2-0.7,0.2-1.2,0-1.9c-0.1-0.5-0.4-1.2-0.7-1.5c-0.3-0.3-0.7-0.8-1-1c-0.3-0.2-0.9-0.4-1.3-0.5
		C202.4,303.4,201.7,303.3,201.2,303.4z M202.5,306c0.1,0.1,0.3,0.5,0.3,0.9c0.1,0.4,0.1,1,0,1.3c-0.1,0.5-0.3,0.7-0.6,1
		c-0.3,0.2-0.6,0.3-0.8,0.2c-0.2,0-0.5-0.2-0.7-0.4c-0.2-0.2-0.5-0.7-0.6-1.1c-0.1-0.5-0.1-1.1-0.1-1.4c0.1-0.3,0.2-0.6,0.4-0.7
		c0.1-0.1,0.4-0.3,0.6-0.3c0.2-0.1,0.6,0,0.8,0.1C202.2,305.6,202.4,305.8,202.5,306z M190.8,305c-0.6,0.1-1.4,0.2-1.7,0.3
		c-0.3,0.1-0.9,0.4-1.2,0.7c-0.5,0.4-0.7,0.6-0.8,1.4c-0.2,0.8-0.2,0.9,0.3,1.6c0.3,0.4,0.7,0.8,1,0.9c0.4,0.2,1.2,0.3,2.1,0.3
		c0.9,0,1.6,0.1,1.8,0.2c0.1,0.1,0.2,0.3,0.1,0.5c0,0.2-0.3,0.4-0.5,0.5c-0.2,0.1-0.6,0.1-0.8,0.1c-0.2,0-0.5-0.2-0.7-0.3
		c-0.3-0.2-0.6-0.2-1.6,0l-1.3,0.3l0.3,0.4c0.2,0.2,0.4,0.5,0.6,0.7c0.2,0.2,0.7,0.4,1.1,0.5c0.4,0.1,1.3,0.1,2,0
		c0.7-0.1,1.5-0.3,1.9-0.4c0.4-0.2,0.8-0.5,1-0.7c0.2-0.2,0.4-0.6,0.5-1c0.1-0.4,0.1-0.9-0.1-1.2c-0.1-0.3-0.4-0.7-0.7-0.9
		c-0.3-0.2-0.8-0.4-1.9-0.5c-0.8-0.1-1.7-0.3-2.1-0.3c-0.6-0.1-0.6-0.2-0.6-0.6c0-0.3,0.2-0.5,0.5-0.6c0.2-0.1,0.7-0.1,1,0
		c0.3,0.1,0.6,0.3,0.8,0.4c0.2,0.3,0.3,0.3,1.7,0l1.4-0.3l-0.4-0.7c-0.4-0.6-0.5-0.7-1.5-1C192.2,304.9,191.7,304.8,190.8,305z
		 M177.7,305.9l-1.5,0l-0.3,0.7c-0.1,0.4-0.3,0.8-0.4,0.9c0,0.1-0.8,0.1-1.6,0.1c-0.8,0-1.6,0-1.8,0c-0.2,0-0.3-0.3-0.5-0.9
		c-0.2-0.6-0.3-0.9-0.5-0.9c-0.1,0-0.9,0-1.7,0c-1.4-0.1-1.5,0-1.3,0.3c0.1,0.2,0.9,2.6,1.8,5.2c0.9,2.6,1.7,4.9,1.7,5
		c0.1,0.1,0.7,0.2,1.6,0.2c0.9,0,1.7,0,1.8,0c0.2-0.1,0.9-1.7,2.2-4.9c1.1-2.6,2-5,2.1-5.2c0.1-0.2,0.1-0.4,0.1-0.4
		C179.3,306,178.6,306,177.7,305.9z M164.7,305.3c-1-0.1-1.3-0.1-1.4,0.1c0,0.1-0.2,1.9-0.4,3.9l-0.4,3.6l0.4,0
		c0.2,0,0.9,0.1,1.5,0.1c0.6,0.1,1,0.1,1,0c0-0.1,0.2-1.8,0.4-3.8c0.2-2,0.4-3.7,0.4-3.8c0,0,0-0.1-0.1-0.1
		C166,305.4,165.4,305.4,164.7,305.3z M137.8,299.8c-0.4,0-1,0.1-1.2,0.2c-0.2,0.1-0.6,0.4-0.8,0.6c-0.2,0.2-0.5,0.7-0.6,1.1
		c-0.1,0.5-0.1,0.9,0.1,1.3c0.1,0.3,0.5,0.7,0.7,0.9c0.3,0.2,1,0.7,1.7,1c0.6,0.3,1.3,0.7,1.4,0.8c0.2,0.2,0.2,0.3,0,0.5
		c-0.2,0.2-0.4,0.2-0.9,0.1c-0.5-0.1-0.7-0.3-0.8-0.6c-0.1-0.4-0.3-0.4-1.5-0.7c-0.7-0.2-1.3-0.3-1.4-0.2c0,0.1,0.1,0.4,0.2,0.8
		c0.1,0.4,0.4,0.9,0.8,1.2c0.4,0.4,0.9,0.6,2.2,0.9c1,0.3,1.8,0.4,2.2,0.4c0.3,0,0.9-0.2,1.2-0.4c0.5-0.3,0.6-0.5,0.8-1.2
		c0.2-0.7,0.1-1-0.1-1.4c-0.2-0.3-0.4-0.6-0.6-0.8c-0.2-0.1-0.9-0.6-1.7-1c-0.9-0.5-1.4-0.9-1.5-1.1c-0.1-0.3,0-0.4,0.4-0.6
		c0.4-0.2,0.6-0.2,1,0c0.3,0.1,0.6,0.4,0.8,0.8l0.3,0.6l1.3,0.2c0.7,0.1,1.3,0.1,1.4,0c0-0.1,0-0.3-0.1-0.5
		c-0.1-0.2-0.2-0.6-0.4-0.9c-0.2-0.3-0.6-0.7-1-1c-0.4-0.2-1.2-0.6-1.8-0.8C139,299.9,138.2,299.8,137.8,299.8z M158.2,304.5
		c-0.5-0.1-0.5,0-0.6,0.5c0,0.3-0.2,1.4-0.4,2.3c-0.3,1.4-0.5,1.8-0.8,2.1c-0.3,0.3-0.5,0.3-1.1,0.2l-0.7-0.2l-0.5,0.9
		c-0.4,0.8-0.5,0.9-0.3,1.1c0.1,0.1,0.5,0.3,0.9,0.4s0.8,0.1,0.9,0.1c0.2,0,0.5-0.3,0.8-0.5l0.5-0.5l-0.1,0.5l-0.1,0.5l1.3,0.2
		c0.7,0.1,1.3,0.2,1.4,0.2c0,0,0.3-1.5,0.6-3.2c0.3-1.8,0.5-3.4,0.5-3.7l0-0.5l-0.9-0.2C159.2,304.7,158.5,304.6,158.2,304.5z
		 M148,302.6c-0.5,0-1.1,0.1-1.4,0.3c-0.3,0.1-0.8,0.4-1,0.6c-0.2,0.2-0.4,0.4-0.5,0.5c0,0,0.6,0.3,1.3,0.5c1.2,0.4,1.4,0.4,1.8,0.2
		c0.3-0.1,0.7-0.2,1-0.1c0.4,0.1,0.6,0.3,0.8,0.6c0.2,0.3,0.3,0.6,0.2,0.8c-0.1,0.3-0.2,0.3-2.9-0.3l-2.8-0.7l-0.2,1.1
		c-0.1,0.6-0.1,1.4,0,1.7c0.1,0.3,0.3,0.8,0.5,1.2c0.2,0.4,0.7,0.8,1.1,1.1c0.4,0.2,1.2,0.5,1.7,0.6c0.5,0.1,1.3,0.2,1.6,0.2
		c0.4,0,1-0.1,1.3-0.3c0.4-0.1,0.9-0.5,1.2-0.7c0.3-0.3,0.7-0.8,0.9-1.3c0.3-0.6,0.4-1.1,0.4-1.8c0-0.9-0.1-1.2-0.6-2
		c-0.5-0.8-0.8-1.1-1.4-1.4c-0.4-0.2-1.1-0.5-1.6-0.5C149.1,302.6,148.4,302.6,148,302.6z M174.3,311.6c-0.3,0.9-0.6,1.7-0.7,1.7
		c-0.1,0.1-0.3-0.6-0.6-1.4c-0.2-0.9-0.4-1.6-0.4-1.8c0-0.1,0.4-0.2,0.8-0.2c0.5,0,0.9,0,1.1,0C174.7,310,174.7,310.3,174.3,311.6z
		 M149.8,308c0,0.2-0.3,0.5-0.5,0.6c-0.3,0.3-0.6,0.3-1.1,0.2c-0.6-0.1-0.7-0.2-0.9-0.8c-0.1-0.3-0.2-0.7-0.1-0.8
		c0-0.1,0.4-0.1,1.4,0.1C149.7,307.7,149.9,307.7,149.8,308z M163.7,313.9l-1.3-0.1l-0.1,0.9c-0.1,0.5-0.1,0.9,0,1
		c0,0.1,0.6,0.2,1.2,0.3c0.6,0.1,1.2,0.1,1.4,0.1c0.2-0.1,0.3-0.3,0.3-1c0.1-0.6,0-0.9-0.1-1C165.1,314,164.4,314,163.7,313.9z"/>
</g>
</svg>
